<svg width="75" height="75" viewBox="0 0 75 75" fill="none" xmlns="http://www.w3.org/2000/svg">
<path d="M37.531 74.052C57.1542 74.052 73.062 58.1465 73.062 38.526C73.062 18.9055 57.1542 3 37.531 3C17.9078 3 2 18.9055 2 38.526C2 58.1465 17.9078 74.052 37.531 74.052Z" fill="#E6E7E8"/>
<path d="M7.98101 50.3915C5.46042 44.6043 4.70075 38.2027 5.79689 31.9863C6.89302 25.7698 9.79636 20.0141 14.1443 15.438C18.4922 10.8619 24.0921 7.66822 30.2444 6.25584C36.3966 4.84346 42.8287 5.27499 48.7372 7.49654C54.6457 9.7181 59.7687 13.6312 63.4664 18.7471C67.1641 23.863 69.2725 29.955 69.5284 36.2621C69.7843 42.5692 68.1764 48.812 64.9053 54.2106C61.6342 59.6093 56.8451 63.9246 51.136 66.6175" stroke="black" stroke-width="10" stroke-miterlimit="10" stroke-linecap="round"/>
<path d="M36.062 39.8022H31.608L30.894 41.9102H27.851L32.169 29.9762H35.535L39.853 41.9102H36.776L36.062 39.8022ZM35.314 37.5582L33.835 33.1892L32.373 37.5582H35.314ZM40.5722 32.2032V29.5002H45.2812V41.9102H42.2552V32.2032H40.5722Z" fill="black"/>
<path d="M30.0506 19.5859V24.3079H28.7396L26.9946 21.6659V24.3079H25.6836V19.5859H26.9946L28.7396 22.2569V19.5859H30.0506Z" fill="black"/>
<path d="M32.7715 24.3556C32.2929 24.3566 31.8248 24.2156 31.4262 23.9505C31.0277 23.6855 30.7168 23.3081 30.5327 22.8663C30.3486 22.4245 30.2997 21.938 30.3921 21.4684C30.4845 20.9988 30.7141 20.5671 31.0518 20.228C31.3896 19.8888 31.8203 19.6575 32.2895 19.5631C32.7588 19.4688 33.2454 19.5157 33.688 19.6979C34.1306 19.8802 34.5092 20.1896 34.7759 20.587C35.0427 20.9844 35.1856 21.452 35.1866 21.9306C35.1935 22.2501 35.1358 22.5677 35.017 22.8644C34.8982 23.1611 34.7207 23.4307 34.4952 23.6572C34.2697 23.8836 34.0008 24.0622 33.7047 24.1822C33.4085 24.3022 33.0911 24.3612 32.7715 24.3556ZM32.7715 23.1336C33.0163 23.1602 33.2634 23.1117 33.4801 22.9947C33.6967 22.8776 33.8727 22.6975 33.9846 22.4782C34.0966 22.2589 34.1393 22.0108 34.1071 21.7666C34.0748 21.5225 33.9692 21.294 33.8041 21.1113C33.6391 20.9285 33.4224 20.8003 33.1828 20.7435C32.9432 20.6867 32.692 20.704 32.4625 20.7932C32.233 20.8824 32.036 21.0392 31.8976 21.2428C31.7592 21.4465 31.686 21.6874 31.6876 21.9336C31.668 22.086 31.6817 22.2408 31.7276 22.3874C31.7736 22.534 31.8506 22.6689 31.9536 22.7829C32.0566 22.8969 32.183 22.9872 32.3242 23.0478C32.4654 23.1083 32.618 23.1376 32.7715 23.1336Z" fill="black"/>
<path d="M37.5416 19.5859C38.7146 19.5859 39.3065 20.2559 39.3065 21.1039C39.3153 21.4159 39.2175 21.7215 39.0294 21.9705C38.8413 22.2195 38.574 22.3971 38.2715 22.4739L39.3365 24.3169H37.8676L36.9315 22.5719H36.7935V24.3169H35.4816V19.5959H37.5416V19.5859ZM37.4416 20.6799H36.7906V21.6659H37.4416C37.7966 21.6659 37.9735 21.4889 37.9735 21.1729C37.9779 21.1038 37.9668 21.0346 37.9412 20.9703C37.9155 20.906 37.8759 20.8482 37.8252 20.801C37.7745 20.7539 37.714 20.7185 37.648 20.6976C37.582 20.6767 37.5122 20.6706 37.4435 20.6799H37.4416Z" fill="black"/>
<path d="M39.3456 19.5859H43.1706V20.6309H41.9086V24.3079H40.5876V20.6309H39.3456V19.5859Z" fill="black"/>
<path d="M43.3475 19.5859H44.6585V24.3079H43.3475V19.5859Z" fill="black"/>
<path d="M47.3016 19.5348C47.8276 19.5047 48.3468 19.6657 48.7634 19.9883C49.18 20.3108 49.466 20.773 49.5686 21.2898H48.1586C48.0849 21.1224 47.9632 20.9806 47.8088 20.8823C47.6545 20.7841 47.4745 20.7338 47.2916 20.7378C46.6916 20.7378 46.2916 21.2108 46.2916 21.9308C46.2916 22.6508 46.6856 23.1308 47.2916 23.1308C47.4745 23.1349 47.6545 23.0846 47.8088 22.9863C47.9632 22.8881 48.0849 22.7462 48.1586 22.5788H49.5686C49.4673 23.0963 49.1817 23.5594 48.7648 23.8822C48.3478 24.2049 47.8279 24.3654 47.3016 24.3338C46.6651 24.3338 46.0546 24.081 45.6046 23.6309C45.1545 23.1808 44.9016 22.5703 44.9016 21.9338C44.9016 21.2973 45.1545 20.6868 45.6046 20.2368C46.0546 19.7867 46.6651 19.5338 47.3016 19.5338V19.5348Z" fill="black"/>
<path d="M49.9503 45.7617H24.7373V46.0477H49.9503V45.7617Z" fill="black"/>
<path d="M38.009 45.9093C38.009 46.042 37.9696 46.1717 37.8959 46.2821C37.8222 46.3924 37.7174 46.4784 37.5948 46.5292C37.4722 46.58 37.3373 46.5933 37.2071 46.5674C37.0769 46.5415 36.9574 46.4776 36.8635 46.3838C36.7697 46.2899 36.7058 46.1704 36.6799 46.0402C36.654 45.91 36.6673 45.7751 36.7181 45.6525C36.7689 45.5299 36.8549 45.4251 36.9652 45.3513C37.0756 45.2776 37.2053 45.2383 37.338 45.2383C37.5154 45.2401 37.685 45.3114 37.8105 45.4368C37.9359 45.5623 38.0072 45.7319 38.009 45.9093Z" fill="black"/>
</svg>
