<svg width="75" height="74" viewBox="0 0 75 74" fill="none" xmlns="http://www.w3.org/2000/svg">
<path d="M37.593 73.052C57.2162 73.052 73.124 57.1465 73.124 37.526C73.124 17.9055 57.2162 2 37.593 2C17.9698 2 2.06201 17.9055 2.06201 37.526C2.06201 57.1465 17.9698 73.052 37.593 73.052Z" fill="#E6E7E8"/>
<path d="M8.04302 50.3407C5.52243 44.5535 4.76276 38.1519 5.8589 31.9355C6.95503 25.7191 9.85837 19.9634 14.2063 15.3872C18.5543 10.8111 24.1541 7.61743 30.3064 6.20506C36.4586 4.79268 42.8907 5.22421 48.7992 7.44576C54.7077 9.66731 59.8307 13.5804 63.5284 18.6963C67.2261 23.8122 69.3345 29.9042 69.5904 36.2113C69.8464 42.5185 68.2384 48.7612 64.9673 54.1599C61.6962 59.5585 56.9071 63.8738 51.198 66.5667" stroke="#3875B6" stroke-width="10" stroke-miterlimit="10" stroke-linecap="round"/>
<path d="M34.2286 39.7514H29.7746L29.0606 41.8594H26.0176L30.3356 29.9254H33.7016L38.0196 41.8594H34.9426L34.2286 39.7514ZM33.4806 37.5074L32.0016 33.1384L30.5396 37.5074H33.4806ZM38.9428 39.5304C39.3281 39.2244 39.5038 39.0827 39.4698 39.1054C40.5805 38.1874 41.4531 37.4337 42.0878 36.8444C42.7338 36.255 43.2778 35.6374 43.7198 34.9914C44.1618 34.3454 44.3828 33.7164 44.3828 33.1044C44.3828 32.6397 44.2751 32.277 44.0598 32.0164C43.8445 31.7557 43.5215 31.6254 43.0908 31.6254C42.6601 31.6254 42.3201 31.7897 42.0708 32.1184C41.8328 32.4357 41.7138 32.889 41.7138 33.4784H38.9088C38.9315 32.515 39.1355 31.7104 39.5208 31.0644C39.9175 30.4184 40.4331 29.9424 41.0678 29.6364C41.7138 29.3304 42.4278 29.1774 43.2098 29.1774C44.5585 29.1774 45.5728 29.523 46.2528 30.2144C46.9441 30.9057 47.2898 31.8067 47.2898 32.9174C47.2898 34.13 46.8761 35.2577 46.0488 36.3004C45.2215 37.3317 44.1675 38.3404 42.8868 39.3264H47.4768V41.6894H38.9428V39.5304Z" fill="#3875B6"/>
<path d="M30.1126 19.5352V24.2572H28.8016L27.0566 21.6152V24.2572H25.7456V19.5352H27.0566L28.8016 22.2061V19.5352H30.1126Z" fill="#3875B6"/>
<path d="M32.8336 24.3048C32.3549 24.3058 31.8868 24.1649 31.4883 23.8998C31.0897 23.6347 30.7788 23.2574 30.5947 22.8156C30.4106 22.3737 30.3617 21.8873 30.4541 21.4176C30.5465 20.948 30.7761 20.5163 31.1138 20.1772C31.4516 19.838 31.8823 19.6067 32.3515 19.5123C32.8208 19.418 33.3075 19.4649 33.75 19.6471C34.1926 19.8294 34.5712 20.1388 34.838 20.5362C35.1047 20.9336 35.2476 21.4012 35.2486 21.8798C35.2555 22.1993 35.1978 22.5169 35.079 22.8136C34.9602 23.1103 34.7828 23.38 34.5573 23.6064C34.3317 23.8328 34.0628 24.0114 33.7667 24.1314C33.4705 24.2515 33.1531 24.3104 32.8336 24.3048ZM32.8336 23.0828C33.0784 23.1094 33.3254 23.0609 33.5421 22.9439C33.7587 22.8268 33.9347 22.6467 34.0467 22.4274C34.1586 22.2081 34.2013 21.96 34.1691 21.7159C34.1368 21.4718 34.0312 21.2432 33.8661 21.0605C33.7011 20.8777 33.4844 20.7495 33.2448 20.6927C33.0052 20.6359 32.754 20.6532 32.5245 20.7424C32.295 20.8316 32.098 20.9884 31.9596 21.192C31.8212 21.3957 31.748 21.6366 31.7496 21.8828C31.73 22.0352 31.7437 22.19 31.7896 22.3366C31.8356 22.4832 31.9127 22.6181 32.0156 22.7321C32.1186 22.8461 32.245 22.9365 32.3862 22.997C32.5274 23.0575 32.68 23.0868 32.8336 23.0828Z" fill="#3875B6"/>
<path d="M37.6036 19.5352C38.7766 19.5352 39.3686 20.2051 39.3686 21.0531C39.3773 21.3651 39.2795 21.6707 39.0914 21.9197C38.9033 22.1687 38.636 22.3463 38.3336 22.4232L39.3986 24.2662H37.9296L36.9936 22.5211H36.8556V24.2662H35.5436V19.5452H37.6036V19.5352ZM37.5036 20.6292H36.8526V21.6152H37.5036C37.8586 21.6152 38.0356 21.4381 38.0356 21.1221C38.0399 21.053 38.0288 20.9838 38.0032 20.9195C37.9775 20.8552 37.9379 20.7974 37.8872 20.7502C37.8365 20.7031 37.776 20.6678 37.71 20.6468C37.644 20.6259 37.5742 20.6198 37.5056 20.6292H37.5036Z" fill="#3875B6"/>
<path d="M39.4076 19.5352H43.2326V20.5802H41.9706V24.2572H40.6496V20.5802H39.4076V19.5352Z" fill="#3875B6"/>
<path d="M43.4095 19.5352H44.7206V24.2572H43.4095V19.5352Z" fill="#3875B6"/>
<path d="M47.3636 19.484C47.8896 19.4539 48.4088 19.615 48.8254 19.9375C49.242 20.26 49.528 20.7223 49.6306 21.239H48.2206C48.1469 21.0716 48.0252 20.9298 47.8708 20.8315C47.7165 20.7333 47.5365 20.683 47.3536 20.687C46.7536 20.687 46.3536 21.16 46.3536 21.88C46.3536 22.6 46.7476 23.08 47.3536 23.08C47.5365 23.0841 47.7165 23.0338 47.8708 22.9355C48.0252 22.8373 48.1469 22.6955 48.2206 22.528H49.6306C49.5294 23.0455 49.2437 23.5086 48.8268 23.8314C48.4098 24.1542 47.8899 24.3147 47.3636 24.283C46.7271 24.283 46.1167 24.0302 45.6666 23.5801C45.2165 23.13 44.9636 22.5196 44.9636 21.883C44.9636 21.2465 45.2165 20.6361 45.6666 20.186C46.1167 19.7359 46.7271 19.483 47.3636 19.483V19.484Z" fill="#3875B6"/>
<path d="M50.0123 45.7109H24.7993V45.9969H50.0123V45.7109Z" fill="#3875B6"/>
<path d="M38.071 45.8585C38.071 45.9912 38.0317 46.1209 37.9579 46.2313C37.8842 46.3416 37.7794 46.4276 37.6568 46.4784C37.5342 46.5292 37.3993 46.5425 37.2691 46.5166C37.139 46.4907 37.0194 46.4268 36.9255 46.333C36.8317 46.2391 36.7678 46.1196 36.7419 45.9894C36.716 45.8592 36.7293 45.7243 36.7801 45.6017C36.8309 45.4791 36.9169 45.3743 37.0272 45.3006C37.1376 45.2268 37.2673 45.1875 37.4 45.1875C37.5774 45.1893 37.747 45.2606 37.8725 45.386C37.9979 45.5115 38.0692 45.6811 38.071 45.8585Z" fill="#3875B6"/>
</svg>
