<svg width="75" height="74" viewBox="0 0 75 74" fill="none" xmlns="http://www.w3.org/2000/svg">
<path d="M37.631 73.052C57.241 73.052 73.138 57.1465 73.138 37.526C73.138 17.9055 57.241 2 37.631 2C18.021 2 2.12402 17.9055 2.12402 37.526C2.12402 57.1465 18.021 73.052 37.631 73.052Z" fill="#E6E7E8"/>
<path d="M8.208 50.3415C5.69127 44.5577 4.9343 38.1607 6.03161 31.9493C7.12892 25.7378 10.0319 19.9874 14.378 15.416C18.724 10.8446 24.3206 7.65498 30.4687 6.2454C36.6167 4.83583 43.0438 5.2688 48.9473 7.49025C54.8508 9.7117 59.9689 13.6232 63.6626 18.7361C67.3563 23.8491 69.4617 29.937 69.716 36.2395C69.9703 42.542 68.3622 48.7797 65.0925 54.1736C61.8227 59.5676 57.0363 63.8787 51.331 66.5685" stroke="#00844D" stroke-width="10" stroke-miterlimit="10" stroke-linecap="round"/>
<path d="M49.8051 45.7188H24.0081V46.0048H49.8051V45.7188Z" fill="#00844D"/>
<path d="M37.5907 45.8558C37.5907 45.9903 37.5508 46.1217 37.4761 46.2336C37.4014 46.3454 37.2952 46.4325 37.1709 46.484C37.0467 46.5355 36.91 46.5489 36.7781 46.5227C36.6461 46.4965 36.525 46.4317 36.4299 46.3366C36.3348 46.2415 36.27 46.1203 36.2438 45.9884C36.2175 45.8565 36.231 45.7198 36.2825 45.5956C36.3339 45.4713 36.4211 45.3651 36.5329 45.2904C36.6447 45.2157 36.7762 45.1758 36.9107 45.1758C37.0909 45.1763 37.2636 45.2481 37.391 45.3755C37.5184 45.5029 37.5902 45.6756 37.5907 45.8558Z" fill="#00844D"/>
<path d="M30.0606 19.5195V24.2415H28.7496L27.0046 21.5995V24.2415H25.6936V19.5195H27.0046L28.7496 22.1905V19.5195H30.0606Z" fill="#00844D"/>
<path d="M32.7816 24.2892C32.3029 24.2902 31.8348 24.1492 31.4362 23.8841C31.0377 23.619 30.7268 23.2417 30.5427 22.7999C30.3586 22.3581 30.3097 21.8716 30.4021 21.402C30.4945 20.9324 30.7241 20.5007 31.0618 20.1616C31.3996 19.8224 31.8303 19.591 32.2995 19.4967C32.7688 19.4024 33.2555 19.4493 33.698 19.6315C34.1406 19.8138 34.5192 20.1232 34.7859 20.5206C35.0527 20.918 35.1956 21.3856 35.1966 21.8642C35.2035 22.1837 35.1458 22.5013 35.027 22.798C34.9082 23.0947 34.7308 23.3643 34.5052 23.5908C34.2797 23.8172 34.0108 23.9958 33.7147 24.1158C33.4185 24.2358 33.1011 24.2948 32.7816 24.2892ZM32.7816 23.0672C33.0264 23.0938 33.2734 23.0453 33.4901 22.9283C33.7067 22.8112 33.8827 22.6311 33.9947 22.4118C34.1066 22.1925 34.1493 21.9444 34.1171 21.7002C34.0848 21.4561 33.9792 21.2276 33.8141 21.0448C33.6491 20.8621 33.4324 20.7339 33.1928 20.6771C32.9532 20.6203 32.702 20.6376 32.4725 20.7268C32.243 20.816 32.046 20.9728 31.9076 21.1764C31.7692 21.3801 31.696 21.621 31.6976 21.8672C31.678 22.0196 31.6917 22.1744 31.7376 22.321C31.7836 22.4676 31.8606 22.6025 31.9636 22.7165C32.0666 22.8305 32.193 22.9208 32.3342 22.9814C32.4754 23.0419 32.628 23.0712 32.7816 23.0672Z" fill="#00844D"/>
<path d="M37.5516 19.5195C38.7246 19.5195 39.3166 20.1895 39.3166 21.0375C39.3253 21.3495 39.2275 21.6551 39.0394 21.9041C38.8513 22.1531 38.584 22.3307 38.2816 22.4075L39.3466 24.2505H37.8776L36.9416 22.5055H36.8036V24.2505H35.4916V19.5295H37.5516V19.5195ZM37.4516 20.6135H36.8006V21.5995H37.4516C37.8066 21.5995 37.9836 21.4225 37.9836 21.1065C37.9879 21.0374 37.9768 20.9682 37.9512 20.9039C37.9255 20.8396 37.8859 20.7818 37.8352 20.7346C37.7845 20.6874 37.724 20.6521 37.658 20.6312C37.592 20.6103 37.5222 20.6042 37.4536 20.6135H37.4516Z" fill="#00844D"/>
<path d="M39.3556 19.5195H43.1806V20.5645H41.9186V24.2415H40.5976V20.5645H39.3556V19.5195Z" fill="#00844D"/>
<path d="M43.3575 19.5195H44.6685V24.2415H43.3575V19.5195Z" fill="#00844D"/>
<path d="M47.3116 19.4684C47.8376 19.4383 48.3568 19.5993 48.7734 19.9219C49.19 20.2444 49.476 20.7066 49.5786 21.2234H48.1686C48.0949 21.056 47.9732 20.9142 47.8188 20.8159C47.6645 20.7176 47.4845 20.6674 47.3016 20.6714C46.7016 20.6714 46.3016 21.1444 46.3016 21.8644C46.3016 22.5844 46.6956 23.0644 47.3016 23.0644C47.4845 23.0685 47.6645 23.0182 47.8188 22.9199C47.9732 22.8217 48.0949 22.6798 48.1686 22.5124H49.5786C49.4774 23.0299 49.1917 23.493 48.7748 23.8158C48.3578 24.1385 47.8379 24.299 47.3116 24.2674C46.6751 24.2674 46.0647 24.0146 45.6146 23.5645C45.1645 23.1144 44.9116 22.5039 44.9116 21.8674C44.9116 21.2309 45.1645 20.6204 45.6146 20.1704C46.0647 19.7203 46.6751 19.4674 47.3116 19.4674V19.4684Z" fill="#00844D"/>
<path d="M34.608 40.0146H29.246L28.428 42.4786H24.0081L29.528 27.3477H34.3781L39.869 42.4786H35.423L34.608 40.0146ZM31.927 31.9016L30.32 36.7906H33.563L31.927 31.9016Z" fill="#00844D"/>
<path d="M44.798 26.4492C48.189 26.4492 49.993 28.3612 49.993 30.7672C50.0413 31.5233 49.8412 32.2745 49.4231 32.9063C49.005 33.5382 48.3918 34.0161 47.677 34.2672V34.3562C48.4578 34.5945 49.1368 35.0867 49.6063 35.7545C50.0758 36.4224 50.3091 37.2278 50.269 38.0432C50.269 40.7432 48.337 42.6172 45.035 42.6172C41.644 42.6172 39.2591 41.0692 39.1801 37.3332H43.28C43.241 38.4472 43.753 39.1332 44.867 39.1332C45.0514 39.1405 45.2352 39.1081 45.4059 39.0381C45.5767 38.9681 45.7304 38.8623 45.8566 38.7277C45.9829 38.5931 46.0787 38.433 46.1376 38.2581C46.1965 38.0832 46.2171 37.8977 46.198 37.7142C46.198 36.6402 45.557 36.1272 43.97 36.1272H43.221V32.7162H43.95C44.768 32.7362 45.902 32.6082 45.902 31.2772C45.902 30.3772 45.409 29.9462 44.702 29.9462C43.775 29.9462 43.5021 30.7462 43.4601 31.4742H39.36C39.455 28.2332 41.456 26.4492 44.798 26.4492Z" fill="#00844D"/>
</svg>
