<svg width="75" height="74" viewBox="0 0 75 74" fill="none" xmlns="http://www.w3.org/2000/svg">
<path d="M37.6639 73.052C57.2844 73.052 73.1899 57.1465 73.1899 37.526C73.1899 17.9055 57.2844 2 37.6639 2C18.0435 2 2.13794 17.9055 2.13794 37.526C2.13794 57.1465 18.0435 73.052 37.6639 73.052Z" fill="#E6E7E8"/>
<path d="M7.98742 50.2975C5.45212 44.4754 4.68829 38.0353 5.79134 31.7816C6.89439 25.5279 9.81543 19.7378 14.1896 15.1343C18.5638 10.5309 24.1973 7.31814 30.3866 5.89737C36.5759 4.4766 43.0465 4.91076 48.9905 7.14562C54.9345 9.38048 60.0883 13.317 63.8083 18.4635C67.5284 23.6101 69.6497 29.7385 69.9074 36.0835C70.1652 42.4285 68.5479 48.7088 65.2575 54.1401C61.9671 59.5714 57.1496 63.913 51.4064 66.6226" stroke="#6D335A" stroke-width="10" stroke-miterlimit="10" stroke-linecap="round"/>
<path d="M49.8639 45.6406H24.4719V45.9286H49.8639V45.6406Z" fill="#6D335A"/>
<path d="M37.8385 45.7883C37.8385 45.9218 37.799 46.0523 37.7248 46.1633C37.6506 46.2743 37.5452 46.3608 37.4218 46.4119C37.2985 46.463 37.1628 46.4764 37.0319 46.4503C36.9009 46.4243 36.7806 46.36 36.6862 46.2656C36.5918 46.1712 36.5275 46.0509 36.5015 45.92C36.4754 45.789 36.4888 45.6533 36.5399 45.53C36.591 45.4066 36.6775 45.3012 36.7885 45.227C36.8995 45.1529 37.03 45.1133 37.1635 45.1133C37.3419 45.1154 37.5124 45.1871 37.6385 45.3133C37.7647 45.4394 37.8365 45.6099 37.8385 45.7883Z" fill="#6D335A"/>
<path d="M29.9742 19.3164V24.0734H28.6532L26.8952 21.4124V24.0734H25.5742V19.3164H26.8952L28.6532 22.0074V19.3164H29.9742Z" fill="#6D335A"/>
<path d="M32.7145 24.1221C32.2323 24.1231 31.7606 23.9811 31.3592 23.714C30.9577 23.4469 30.6444 23.0668 30.459 22.6217C30.2736 22.1766 30.2243 21.6865 30.3174 21.2134C30.4105 20.7403 30.6418 20.3054 30.982 19.9637C31.3223 19.622 31.7562 19.389 32.2289 19.2939C32.7017 19.1989 33.192 19.2462 33.6379 19.4298C34.0837 19.6134 34.4651 19.9251 34.7338 20.3255C35.0025 20.7258 35.1465 21.1969 35.1475 21.6791C35.1544 22.001 35.0963 22.3209 34.9766 22.6198C34.8569 22.9186 34.6781 23.1903 34.4509 23.4184C34.2237 23.6465 33.9528 23.8264 33.6545 23.9473C33.3561 24.0682 33.0364 24.1277 32.7145 24.1221ZM32.7145 22.8911C32.961 22.9178 33.2098 22.8691 33.4279 22.7513C33.6461 22.6335 33.8233 22.4523 33.9362 22.2316C34.0491 22.0108 34.0923 21.761 34.0601 21.5152C34.0279 21.2694 33.9218 21.0391 33.7558 20.8549C33.5899 20.6707 33.3719 20.5413 33.1307 20.4837C32.8896 20.4261 32.6366 20.4431 32.4054 20.5325C32.1741 20.6218 31.9754 20.7793 31.8356 20.984C31.6958 21.1888 31.6215 21.4312 31.6225 21.6791C31.6023 21.8328 31.6158 21.9891 31.6618 22.1372C31.7079 22.2852 31.7854 22.4215 31.8892 22.5367C31.993 22.6519 32.1205 22.7432 32.263 22.8044C32.4055 22.8656 32.5595 22.8951 32.7145 22.8911Z" fill="#6D335A"/>
<path d="M37.5212 19.3164C38.7032 19.3164 39.2992 19.9914 39.2992 20.8454C39.3079 21.1597 39.2094 21.4676 39.0198 21.7184C38.8303 21.9693 38.5609 22.1481 38.2562 22.2254L39.3292 24.0824H37.8452L36.9022 22.3244H36.7632V24.0824H35.4452V19.3264H37.5202L37.5212 19.3164ZM37.4212 20.4164H36.7662V21.4094H37.4212C37.7782 21.4094 37.9572 21.2304 37.9572 20.9094C37.9611 20.8399 37.9496 20.7703 37.9234 20.7058C37.8972 20.6412 37.8571 20.5833 37.8058 20.5361C37.7545 20.489 37.6934 20.4538 37.6269 20.4331C37.5604 20.4124 37.4901 20.4067 37.4212 20.4164Z" fill="#6D335A"/>
<path d="M39.3379 19.3164H43.1909V20.3694H41.9199V24.0694H40.5889V20.3694H39.3379V19.3164Z" fill="#6D335A"/>
<path d="M43.3693 19.3164H44.6903V24.0734H43.3693V19.3164Z" fill="#6D335A"/>
<path d="M47.3516 19.2653C47.8815 19.2349 48.4046 19.3971 48.8244 19.722C49.2441 20.047 49.5322 20.5127 49.6356 21.0333H48.2156C48.1413 20.8646 48.0185 20.7217 47.8629 20.6227C47.7074 20.5238 47.5259 20.4732 47.3416 20.4773C46.7356 20.4773 46.3416 20.9543 46.3416 21.6773C46.3416 22.4003 46.7416 22.8893 47.3416 22.8893C47.5259 22.8935 47.7074 22.8429 47.8629 22.7439C48.0185 22.645 48.1413 22.5021 48.2156 22.3333H49.6356C49.5336 22.8547 49.2459 23.3213 48.8258 23.6465C48.4057 23.9716 47.8819 24.1333 47.3516 24.1013C46.7103 24.1013 46.0953 23.8466 45.6418 23.3931C45.1884 22.9397 44.9336 22.3246 44.9336 21.6833C44.9336 21.042 45.1884 20.427 45.6418 19.9735C46.0953 19.5201 46.7103 19.2653 47.3516 19.2653Z" fill="#6D335A"/>
<path d="M34.1049 39.8931H29.0049L28.2299 42.2371H24.0049L29.2579 27.8281H33.8759L39.0989 42.2371H34.8689L34.1049 39.8931ZM31.5429 32.1771L30.0139 36.8341H33.1049L31.5429 32.1771Z" fill="#6D335A"/>
<path d="M45.2959 39.8031H38.6719V36.4961L44.9479 27.5391H49.3369V36.3181H50.9159V39.7941H49.3369V42.2471H45.2849L45.2949 39.804L45.2959 39.8031ZM45.6039 36.317V32.0471L42.7839 36.317H45.6039Z" fill="#6D335A"/>
</svg>
