<svg width="75" height="74" viewBox="0 0 75 74" fill="none" xmlns="http://www.w3.org/2000/svg">
<path d="M37.7309 73.052C57.3597 73.052 73.2719 57.1465 73.2719 37.526C73.2719 17.9055 57.3597 2 37.7309 2C18.1022 2 2.18994 17.9055 2.18994 37.526C2.18994 57.1465 18.1022 73.052 37.7309 73.052Z" fill="#E6E7E8"/>
<path d="M8.27964 50.3361C5.75702 44.5476 4.99582 38.1441 6.09114 31.9254C7.18645 25.7068 10.0897 19.9487 14.4383 15.3704C18.7869 10.7921 24.388 7.59656 30.5421 6.18286C36.6962 4.76916 43.1304 5.2 49.041 7.42158C54.9516 9.64315 60.0767 13.557 63.7761 18.6742C67.4754 23.7914 69.5851 29.8851 69.8415 36.1943C70.098 42.5034 68.4898 48.7483 65.2179 54.1488C61.9461 59.5494 57.1555 63.8662 51.4447 66.5601" stroke="#E9C248" stroke-width="10" stroke-miterlimit="10" stroke-linecap="round"/>
<path d="M49.9169 45.6914H24.6869V45.9774H49.9169V45.6914Z" fill="#E9C248"/>
<path d="M37.9683 45.839C37.9683 45.9717 37.929 46.1014 37.8553 46.2118C37.7815 46.3221 37.6767 46.4081 37.5541 46.4589C37.4315 46.5097 37.2966 46.523 37.1664 46.4971C37.0363 46.4712 36.9167 46.4073 36.8229 46.3134C36.7291 46.2196 36.6651 46.1 36.6392 45.9699C36.6133 45.8397 36.6266 45.7048 36.6774 45.5822C36.7282 45.4596 36.8142 45.3548 36.9245 45.281C37.0349 45.2073 37.1646 45.168 37.2973 45.168C37.4747 45.1698 37.6443 45.2411 37.7698 45.3665C37.8952 45.492 37.9665 45.6616 37.9683 45.839Z" fill="#E9C248"/>
<path d="M30.1526 19.2383V23.9643H28.8406L27.0946 21.3203V23.9643H25.7816V19.2383H27.0936L28.8396 21.9123V19.2383H30.1526Z" fill="#E9C248"/>
<path d="M32.8756 24.0159C32.3966 24.0169 31.928 23.8758 31.5292 23.6105C31.1303 23.3452 30.8191 22.9675 30.6349 22.5253C30.4507 22.0832 30.4017 21.5963 30.4942 21.1263C30.5867 20.6563 30.8164 20.2242 31.1545 19.8848C31.4925 19.5454 31.9236 19.3138 32.3932 19.2194C32.8628 19.125 33.3499 19.1719 33.7929 19.3543C34.2358 19.5367 34.6147 19.8464 34.8817 20.2441C35.1486 20.6419 35.2916 21.1098 35.2926 21.5889C35.2994 21.9086 35.2416 22.2264 35.1226 22.5233C35.0037 22.8201 34.8261 23.0899 34.6004 23.3165C34.3747 23.5431 34.1057 23.7219 33.8093 23.842C33.5129 23.9622 33.1954 24.0213 32.8756 24.0159ZM32.8756 22.7919C33.1207 22.8184 33.368 22.7699 33.5848 22.6527C33.8016 22.5355 33.9777 22.3551 34.0897 22.1356C34.2017 21.916 34.2444 21.6677 34.212 21.4233C34.1797 21.179 34.0738 20.9502 33.9085 20.7674C33.7432 20.5846 33.5263 20.4563 33.2864 20.3996C33.0466 20.3429 32.7952 20.3604 32.5655 20.4498C32.3358 20.5392 32.1387 20.6963 32.0003 20.9002C31.8619 21.1042 31.7888 21.3454 31.7906 21.5919C31.7712 21.7443 31.785 21.8991 31.8311 22.0457C31.8771 22.1923 31.9544 22.3272 32.0574 22.4412C32.1605 22.5551 32.2869 22.6455 32.4281 22.706C32.5694 22.7665 32.722 22.7958 32.8756 22.7919Z" fill="#E9C248"/>
<path d="M37.6512 19.2383C38.8252 19.2383 39.4172 19.9093 39.4172 20.7583C39.4262 21.0707 39.3284 21.3768 39.1401 21.6262C38.9518 21.8756 38.6841 22.0534 38.3812 22.1303L39.4472 23.9753H37.9772L37.0402 22.2293H36.9022V23.9753H35.5892V19.2483H37.6512V19.2383ZM37.5512 20.3383H36.9002V21.3253H37.5512C37.9062 21.3253 38.0842 21.1473 38.0842 20.8323C38.0887 20.763 38.0778 20.6936 38.0521 20.6291C38.0265 20.5645 37.9868 20.5065 37.936 20.4592C37.8851 20.4119 37.8244 20.3766 37.7582 20.3556C37.692 20.3347 37.622 20.3288 37.5532 20.3383H37.5512Z" fill="#E9C248"/>
<path d="M39.4576 19.2383H43.2856V20.2843H42.0226V23.9643H40.7007V20.2843H39.4576V19.2383Z" fill="#E9C248"/>
<path d="M43.4633 19.2383H44.7753V23.9643H43.4633V19.2383Z" fill="#E9C248"/>
<path d="M47.4196 19.1925C47.9461 19.1623 48.4658 19.3234 48.8829 19.6461C49.3001 19.9688 49.5865 20.4313 49.6896 20.9485H48.2786C48.2048 20.7808 48.083 20.6388 47.9285 20.5403C47.774 20.4419 47.5938 20.3915 47.4106 20.3955C46.8106 20.3955 46.4106 20.8695 46.4106 21.5895C46.4106 22.3095 46.8056 22.7895 47.4106 22.7895C47.5938 22.7935 47.774 22.7431 47.9285 22.6447C48.083 22.5463 48.2048 22.4042 48.2786 22.2365H49.6896C49.5881 22.7545 49.302 23.218 48.8845 23.541C48.467 23.864 47.9465 24.0244 47.4196 23.9925C46.7824 23.9925 46.1713 23.7394 45.7208 23.2888C45.2702 22.8383 45.0171 22.2272 45.0171 21.59C45.0171 20.9528 45.2702 20.3417 45.7208 19.8912C46.1713 19.4406 46.7824 19.1875 47.4196 19.1875V19.1925Z" fill="#E9C248"/>
<path d="M34.9389 40.3153H29.7489L28.9599 42.7033H24.6869L30.0249 28.0703H34.7119L40.0299 42.7033H35.7379L34.9389 40.3153ZM32.3389 32.4713L30.7899 37.1973H33.9279L32.3389 32.4713Z" fill="#E9C248"/>
<path d="M49.5519 27.5273V31.1194H43.3259V33.4193C44.0411 32.7894 44.974 32.4637 45.9259 32.5114C49.0639 32.5114 50.3859 34.9193 50.3859 37.4453C50.3859 40.7013 48.4519 42.6944 45.1369 42.6944C41.6139 42.6944 39.5719 40.7403 39.5519 38.0273H43.5089C43.5256 38.2006 43.5765 38.3688 43.6586 38.5223C43.7407 38.6757 43.8524 38.8114 43.9872 38.9215C44.122 39.0316 44.2772 39.1139 44.444 39.1636C44.6108 39.2134 44.7858 39.2296 44.9589 39.2114C45.9749 39.2114 46.4389 38.4414 46.4389 37.3864C46.4389 36.2864 45.8769 35.7284 44.8999 35.7284C44.5987 35.6979 44.297 35.7813 44.0542 35.9621C43.8114 36.1429 43.6451 36.4081 43.5879 36.7054H39.6309V27.5374L49.5569 27.5273H49.5519Z" fill="#E9C248"/>
</svg>
