<svg width="75" height="74" viewBox="0 0 75 74" fill="none" xmlns="http://www.w3.org/2000/svg">
<path d="M37.793 73.052C57.4107 73.052 73.314 57.1465 73.314 37.526C73.314 17.9055 57.4107 2 37.793 2C18.1753 2 2.27197 17.9055 2.27197 37.526C2.27197 57.1465 18.1753 73.052 37.793 73.052Z" fill="#E6E7E8"/>
<path d="M8.35844 50.3369C5.83957 44.5514 5.08103 38.1521 6.17755 31.938C7.27406 25.724 10.177 19.9708 14.5239 15.3968C18.8708 10.8229 24.4689 7.63094 30.6191 6.21969C36.7692 4.80844 43.1989 5.24041 49.105 7.46166C55.0112 9.68291 60.132 13.595 63.828 18.7093C67.5239 23.8236 69.6312 29.9135 69.8867 36.2183C70.1421 42.5232 68.5344 48.7636 65.2642 54.1601C61.9941 59.5566 57.2065 63.8701 51.4994 66.5619" stroke="#45B4A9" stroke-width="10" stroke-miterlimit="10" stroke-linecap="round"/>
<path d="M49.9723 45.707H24.7563V45.993H49.9723V45.707Z" fill="#45B4A9"/>
<path d="M38.03 45.8546C38.03 45.9873 37.9906 46.117 37.9169 46.2274C37.8432 46.3377 37.7384 46.4237 37.6158 46.4745C37.4932 46.5253 37.3583 46.5386 37.2281 46.5127C37.0979 46.4868 36.9784 46.4229 36.8845 46.3291C36.7907 46.2352 36.7268 46.1157 36.7009 45.9855C36.675 45.8553 36.6883 45.7204 36.7391 45.5978C36.7899 45.4752 36.8759 45.3704 36.9862 45.2967C37.0966 45.2229 37.2263 45.1836 37.359 45.1836C37.5364 45.1854 37.706 45.2567 37.8315 45.3821C37.9569 45.5076 38.0282 45.6772 38.03 45.8546Z" fill="#45B4A9"/>
<path d="M30.22 19.918V24.642H28.908L27.163 21.999V24.642H25.851V19.918H27.163L28.908 22.59V19.918H30.22Z" fill="#45B4A9"/>
<path d="M32.941 24.6896C32.4622 24.6906 31.9938 24.5496 31.5951 24.2844C31.1964 24.0192 30.8854 23.6417 30.7012 23.1997C30.5171 22.7577 30.4681 22.2711 30.5606 21.8012C30.653 21.3314 30.8827 20.8996 31.2206 20.5603C31.5585 20.221 31.9894 19.9895 32.4588 19.8952C32.9282 19.8008 33.4151 19.8477 33.8579 20.03C34.3006 20.2124 34.6794 20.5219 34.9462 20.9195C35.2131 21.317 35.356 21.7848 35.357 22.2637C35.3639 22.5833 35.3062 22.901 35.1874 23.1978C35.0685 23.4946 34.891 23.7644 34.6654 23.9909C34.4398 24.2174 34.1708 24.3961 33.8745 24.5162C33.5782 24.6362 33.2607 24.6952 32.941 24.6896ZM32.941 23.4666C33.1858 23.493 33.4328 23.4443 33.6493 23.3272C33.8658 23.21 34.0416 23.0298 34.1534 22.8104C34.2652 22.5911 34.3078 22.343 34.2754 22.0989C34.2431 21.8548 34.1373 21.6264 33.9722 21.4438C33.8071 21.2611 33.5904 21.133 33.3508 21.0763C33.1112 21.0196 32.8601 21.037 32.6306 21.1262C32.4012 21.2154 32.2042 21.3723 32.0659 21.5759C31.9276 21.7796 31.8544 22.0205 31.856 22.2666C31.8365 22.4191 31.8502 22.574 31.8961 22.7207C31.9421 22.8673 32.0193 23.0023 32.1224 23.1163C32.2255 23.2303 32.352 23.3207 32.4933 23.3811C32.6346 23.4416 32.7873 23.4708 32.941 23.4666Z" fill="#45B4A9"/>
<path d="M37.7137 19.918C38.8877 19.918 39.4787 20.589 39.4787 21.437C39.4875 21.749 39.3897 22.0548 39.2016 22.304C39.0135 22.5531 38.7462 22.7309 38.4437 22.808L39.5087 24.652H38.0397L37.1027 22.907H36.9647V24.652H35.6527V19.928H37.7137V19.918ZM37.6137 21.013H36.9627V21.999H37.6137C37.9687 21.999 38.1467 21.821 38.1467 21.506C38.1511 21.4368 38.14 21.3675 38.1143 21.3031C38.0885 21.2387 38.0489 21.1808 37.998 21.1336C37.9472 21.0864 37.8866 21.0511 37.8204 21.0303C37.7543 21.0094 37.6844 21.0035 37.6157 21.013H37.6137Z" fill="#45B4A9"/>
<path d="M39.5189 19.918H43.3449V20.963H42.0829V24.641H40.7619V20.963H39.5189V19.918Z" fill="#45B4A9"/>
<path d="M43.5229 19.918H44.835V24.642H43.5229V19.918Z" fill="#45B4A9"/>
<path d="M47.4775 19.8669C48.0036 19.8367 48.5229 19.9977 48.9397 20.3202C49.3565 20.6427 49.6427 21.105 49.7455 21.6219H48.3355C48.2616 21.4543 48.1397 21.3125 47.9852 21.2142C47.8307 21.116 47.6505 21.0658 47.4675 21.0699C46.8675 21.0699 46.4675 21.5429 46.4675 22.2629C46.4675 22.9829 46.8615 23.4629 47.4675 23.4629C47.6505 23.467 47.8307 23.4167 47.9852 23.3185C48.1397 23.2202 48.2616 23.0784 48.3355 22.9109H49.7455C49.644 23.4284 49.3582 23.8915 48.9411 24.2143C48.524 24.537 48.004 24.6975 47.4775 24.6659C46.841 24.6659 46.2305 24.413 45.7805 23.9629C45.3304 23.5128 45.0775 22.9024 45.0775 22.2659C45.0775 21.6293 45.3304 21.0189 45.7805 20.5688C46.2305 20.1187 46.841 19.8659 47.4775 19.8659V19.8669Z" fill="#45B4A9"/>
<path d="M35.0809 40.2153H29.8639L29.0749 42.6153H24.7749L30.1399 27.9023H34.8539L40.1989 42.6153H35.8759L35.0809 40.2153ZM32.4679 32.3263L30.8999 37.0893H34.0559L32.4679 32.3263Z" fill="#45B4A9"/>
<path d="M46.3342 31.7426C46.1472 30.8426 45.7722 30.3615 44.8752 30.3615C43.5142 30.3615 43.1202 31.6736 43.1002 34.1616C43.4416 33.7021 43.8911 33.334 44.4088 33.0898C44.9266 32.8456 45.4965 32.7328 46.0682 32.7616C48.6812 32.7616 50.5352 34.4086 50.5352 37.6036C50.5352 40.6906 48.5532 42.7216 45.2292 42.7216C40.5942 42.7216 39.4702 39.4276 39.4702 34.9996C39.4702 29.5996 41.1172 27.0706 45.1012 27.0706C45.7436 27.0246 46.3885 27.1113 46.9958 27.3253C47.6032 27.5392 48.1601 27.8759 48.6318 28.3143C49.1035 28.7527 49.48 29.2835 49.7377 29.8736C49.9955 30.4637 50.1291 31.1006 50.1302 31.7446L46.3342 31.7426ZM43.3852 37.5425C43.3592 37.7703 43.3849 38.0009 43.4604 38.2173C43.536 38.4337 43.6594 38.6303 43.8215 38.7923C43.9835 38.9544 44.1801 39.0778 44.3965 39.1533C44.6128 39.2289 44.8435 39.2546 45.0712 39.2286C45.2906 39.2481 45.5117 39.2185 45.7182 39.1421C45.9248 39.0656 46.1118 38.9441 46.2656 38.7865C46.4195 38.6288 46.5363 38.4389 46.6076 38.2305C46.679 38.0221 46.7031 37.8004 46.6782 37.5816C46.7008 37.3614 46.6744 37.1391 46.6009 36.9303C46.5274 36.7216 46.4087 36.5318 46.2532 36.3743C46.0977 36.2169 45.9092 36.0958 45.7014 36.0198C45.4936 35.9438 45.2716 35.9147 45.0512 35.9345C44.8324 35.9142 44.6118 35.9413 44.4044 36.014C44.197 36.0868 44.0078 36.2034 43.8496 36.356C43.6915 36.5085 43.5681 36.6934 43.4879 36.898C43.4078 37.1027 43.3728 37.3222 43.3852 37.5416V37.5425Z" fill="#45B4A9"/>
</svg>
