<svg width="76" height="74" viewBox="0 0 76 74" fill="none" xmlns="http://www.w3.org/2000/svg">
<path d="M37.89 73.052C57.538 73.052 73.466 57.1465 73.466 37.526C73.466 17.9055 57.538 2 37.89 2C18.2419 2 2.31396 17.9055 2.31396 37.526C2.31396 57.1465 18.2419 73.052 37.89 73.052Z" fill="#E6E7E8"/>
<path d="M8.408 50.3323C5.87852 44.5379 5.11255 38.1267 6.20576 31.8996C7.29898 25.6724 10.2029 19.9055 14.5548 15.3192C18.9066 10.733 24.5134 7.53074 30.6747 6.11264C36.836 4.69453 43.2786 5.12341 49.1975 7.3457C55.1164 9.56799 60.2493 13.4852 63.9548 18.6078C67.6604 23.7304 69.7742 29.8314 70.0324 36.1485C70.2905 42.4656 68.6815 48.7188 65.4063 54.1267C62.131 59.5346 57.3349 63.8575 51.617 66.5553" stroke="#E05D56" stroke-width="10" stroke-miterlimit="10" stroke-linecap="round"/>
<path d="M50.067 45.6758H24.823V45.9618H50.067V45.6758Z" fill="#E05D56"/>
<path d="M38.1123 45.8233C38.1123 45.956 38.0729 46.0858 37.9992 46.1961C37.9254 46.3065 37.8207 46.3925 37.698 46.4433C37.5754 46.4941 37.4405 46.5073 37.3103 46.4814C37.1802 46.4556 37.0606 46.3917 36.9668 46.2978C36.8729 46.204 36.809 46.0844 36.7832 45.9543C36.7573 45.8241 36.7705 45.6892 36.8213 45.5666C36.8721 45.4439 36.9581 45.3391 37.0685 45.2654C37.1788 45.1917 37.3086 45.1523 37.4413 45.1523C37.6187 45.1542 37.7883 45.2254 37.9137 45.3509C38.0392 45.4763 38.1104 45.6459 38.1123 45.8233Z" fill="#E05D56"/>
<path d="M30.2932 19.1484V23.8774H28.9792L27.2322 21.2314V23.8774H25.9192V19.1484H27.2322L28.9792 21.8234V19.1484H30.2932Z" fill="#E05D56"/>
<path d="M33.0182 23.9261C32.5388 23.9271 32.0699 23.7859 31.6707 23.5204C31.2715 23.2549 30.9601 22.8769 30.7757 22.4344C30.5913 21.9918 30.5423 21.5045 30.6348 21.0341C30.7274 20.5637 30.9574 20.1313 31.2957 19.7916C31.634 19.4519 32.0654 19.2202 32.5354 19.1257C33.0055 19.0312 33.4929 19.0782 33.9362 19.2607C34.3795 19.4433 34.7588 19.7532 35.026 20.1513C35.2931 20.5493 35.4362 21.0177 35.4372 21.4971C35.4442 21.8172 35.3864 22.1353 35.2674 22.4324C35.1484 22.7296 34.9706 22.9997 34.7448 23.2265C34.5189 23.4533 34.2495 23.6322 33.9529 23.7524C33.6562 23.8726 33.3383 23.9317 33.0182 23.9261ZM33.0182 22.7021C33.2633 22.7285 33.5105 22.6797 33.7272 22.5624C33.9439 22.445 34.1198 22.2646 34.2317 22.0451C34.3436 21.8255 34.3861 21.5771 34.3536 21.3328C34.3211 21.0885 34.2152 20.8599 34.0498 20.6771C33.8845 20.4944 33.6675 20.3663 33.4276 20.3096C33.1878 20.253 32.9364 20.2706 32.7068 20.36C32.4771 20.4495 32.2801 20.6066 32.1418 20.8106C32.0035 21.0145 31.9304 21.2557 31.9322 21.5021C31.913 21.6546 31.927 21.8094 31.9732 21.956C32.0193 22.1026 32.0966 22.2375 32.1997 22.3514C32.3029 22.4654 32.4294 22.5557 32.5707 22.6162C32.7119 22.6768 32.8646 22.7061 33.0182 22.7021Z" fill="#E05D56"/>
<path d="M37.7957 19.1484C38.9707 19.1484 39.5627 19.8194 39.5627 20.6684C39.5713 20.9809 39.4734 21.287 39.2849 21.5364C39.0964 21.7858 38.8287 21.9635 38.5257 22.0404L39.5916 23.8864H38.1207L37.1826 22.1394H37.0446V23.8864H35.7327V19.1584H37.7957V19.1484ZM37.6956 20.2484H37.0436V21.2354H37.6956C38.0506 21.2354 38.2287 21.0574 38.2287 20.7414C38.2328 20.6723 38.2216 20.6031 38.1959 20.5388C38.1701 20.4744 38.1304 20.4166 38.0796 20.3695C38.0288 20.3224 37.9683 20.2871 37.9022 20.2661C37.8362 20.2452 37.7663 20.2391 37.6977 20.2484H37.6956Z" fill="#E05D56"/>
<path d="M39.6018 19.1484H43.4328V20.1944H42.1688V23.8764H40.8458V20.1944H39.6018V19.1484Z" fill="#E05D56"/>
<path d="M43.6106 19.1484H44.9236V23.8774H43.6106V19.1484Z" fill="#E05D56"/>
<path d="M47.5692 19.0988C48.0959 19.0686 48.6159 19.2298 49.0332 19.5526C49.4505 19.8755 49.7371 20.3383 49.8401 20.8558H48.4282C48.3542 20.688 48.2322 20.5459 48.0775 20.4474C47.9229 20.349 47.7425 20.2987 47.5592 20.3027C46.9592 20.3027 46.5592 20.7768 46.5592 21.4978C46.5592 22.2188 46.9542 22.6978 47.5592 22.6978C47.7425 22.7018 47.9229 22.6515 48.0775 22.5531C48.2322 22.4546 48.3542 22.3125 48.4282 22.1447H49.8401C49.7384 22.6629 49.4522 23.1266 49.0346 23.4497C48.6169 23.7728 48.0962 23.9334 47.5692 23.9017C46.9316 23.9017 46.3201 23.6485 45.8693 23.1976C45.4184 22.7468 45.1652 22.1353 45.1652 21.4978C45.1652 20.8602 45.4184 20.2487 45.8693 19.7979C46.3201 19.347 46.9316 19.0938 47.5692 19.0938V19.0988Z" fill="#E05D56"/>
<path d="M35.2683 40.2537H29.9863L29.1863 42.6827H24.8433L30.2633 27.8047H35.0313L40.4313 42.6827H36.0573L35.2683 40.2537ZM32.6223 32.2767L31.0423 37.0847H34.2313L32.6223 32.2767Z" fill="#E05D56"/>
<path d="M50.0376 27.2734V30.3334L44.9726 42.6844H40.7296L45.8436 30.8174H39.8296V27.2734H50.0376Z" fill="#E05D56"/>
</svg>
