<svg width="76" height="74" viewBox="0 0 76 74" fill="none" xmlns="http://www.w3.org/2000/svg">
<path d="M37.9971 73.052C57.6203 73.052 73.5281 57.1465 73.5281 37.526C73.5281 17.9055 57.6203 2 37.9971 2C18.3738 2 2.46606 17.9055 2.46606 37.526C2.46606 57.1465 18.3738 73.052 37.9971 73.052Z" fill="#E6E7E8"/>
<path d="M8.55205 50.3407C6.03146 44.5535 5.2718 38.1519 6.36793 31.9355C7.46406 25.7191 10.3674 19.9634 14.7154 15.3872C19.0633 10.8111 24.6631 7.61743 30.8154 6.20506C36.9677 4.79268 43.3997 5.22421 49.3082 7.44576C55.2167 9.66731 60.3397 13.5804 64.0374 18.6963C67.7351 23.8122 69.8436 29.9042 70.0995 36.2113C70.3554 42.5185 68.7474 48.7612 65.4763 54.1599C62.2053 59.5585 57.4161 63.8738 51.7071 66.5667" stroke="#BAA787" stroke-width="10" stroke-miterlimit="10" stroke-linecap="round"/>
<path d="M50.1605 45.7109H24.9475V45.9969H50.1605V45.7109Z" fill="#BAA787"/>
<path d="M38.2192 45.8585C38.2192 45.9912 38.1798 46.1209 38.1061 46.2313C38.0324 46.3416 37.9276 46.4276 37.805 46.4784C37.6824 46.5292 37.5475 46.5425 37.4173 46.5166C37.2871 46.4907 37.1676 46.4268 37.0737 46.333C36.9799 46.2391 36.916 46.1196 36.8901 45.9894C36.8642 45.8592 36.8775 45.7243 36.9283 45.6017C36.9791 45.4791 37.0651 45.3743 37.1754 45.3006C37.2858 45.2268 37.4155 45.1875 37.5482 45.1875C37.7256 45.1893 37.8952 45.2606 38.0207 45.386C38.1461 45.5115 38.2174 45.6811 38.2192 45.8585Z" fill="#BAA787"/>
<path d="M30.41 19.0312V23.7542H29.099L27.354 21.1113V23.7542H26.042V19.0312H27.353L29.098 21.7032V19.0312H30.41Z" fill="#BAA787"/>
<path d="M33.132 23.8029C32.6532 23.8039 32.1848 23.6629 31.7862 23.3977C31.3875 23.1325 31.0764 22.755 30.8923 22.313C30.7081 21.871 30.6592 21.3844 30.7516 20.9145C30.844 20.4447 31.0737 20.0129 31.4116 19.6736C31.7495 19.3343 32.1804 19.1028 32.6498 19.0084C33.1193 18.9141 33.6061 18.961 34.0489 19.1433C34.4917 19.3256 34.8704 19.6352 35.1373 20.0327C35.4041 20.4303 35.547 20.8981 35.548 21.3769C35.5549 21.6966 35.4972 22.0143 35.3784 22.3111C35.2596 22.6079 35.082 22.8777 34.8564 23.1042C34.6308 23.3307 34.3618 23.5094 34.0655 23.6295C33.7692 23.7495 33.4517 23.8085 33.132 23.8029ZM33.132 22.5799C33.3768 22.6063 33.6238 22.5576 33.8403 22.4404C34.0569 22.3233 34.2327 22.1431 34.3445 21.9237C34.4563 21.7044 34.4988 21.4562 34.4665 21.2122C34.4341 20.9681 34.3284 20.7397 34.1633 20.5571C33.9981 20.3744 33.7814 20.2463 33.5419 20.1896C33.3023 20.1329 33.0511 20.1503 32.8217 20.2395C32.5922 20.3287 32.3953 20.4856 32.2569 20.6892C32.1186 20.8929 32.0454 21.1338 32.047 21.3799C32.0273 21.5325 32.0409 21.6875 32.0868 21.8342C32.1328 21.981 32.2099 22.1161 32.313 22.2303C32.4161 22.3444 32.5427 22.4348 32.6841 22.4954C32.8255 22.5559 32.9783 22.5851 33.132 22.5809V22.5799Z" fill="#BAA787"/>
<path d="M37.904 19.0312C39.077 19.0312 39.669 19.7022 39.669 20.5492C39.6779 20.8614 39.5803 21.1672 39.3922 21.4164C39.204 21.6656 38.9366 21.8433 38.634 21.9202L39.699 23.7643H38.23L37.293 22.0192H37.155V23.7643H35.843V19.0412H37.904V19.0312ZM37.804 20.1252H37.153V21.1113H37.804C38.159 21.1113 38.336 20.9342 38.336 20.6182C38.3404 20.549 38.3293 20.4797 38.3036 20.4153C38.2779 20.3509 38.2382 20.2931 38.1873 20.2459C38.1365 20.1987 38.0759 20.1634 38.0098 20.1425C37.9436 20.1217 37.8737 20.1158 37.805 20.1252H37.804Z" fill="#BAA787"/>
<path d="M39.708 19.0312H43.534V20.0762H42.272V23.7542H40.951V20.0762H39.708V19.0312Z" fill="#BAA787"/>
<path d="M43.7109 19.0312H45.0219V23.7542H43.7109V19.0312Z" fill="#BAA787"/>
<path d="M47.6656 18.9801C48.1917 18.95 48.711 19.111 49.1278 19.4335C49.5446 19.756 49.8308 20.2183 49.9336 20.7351H48.5236C48.4497 20.5676 48.3278 20.4258 48.1733 20.3275C48.0188 20.2293 47.8387 20.179 47.6556 20.1831C47.0556 20.1831 46.6556 20.6561 46.6556 21.3761C46.6556 22.0961 47.0496 22.5761 47.6556 22.5761C47.8387 22.5802 48.0188 22.53 48.1733 22.4318C48.3278 22.3335 48.4497 22.1916 48.5236 22.0241H49.9336C49.8321 22.5417 49.5463 23.0048 49.1292 23.3276C48.7121 23.6503 48.1921 23.8108 47.6656 23.7791C47.0291 23.7791 46.4187 23.5263 45.9686 23.0762C45.5185 22.6261 45.2656 22.0157 45.2656 21.3791C45.2656 20.7426 45.5185 20.1322 45.9686 19.6821C46.4187 19.232 47.0291 18.9791 47.6656 18.9791V18.9801Z" fill="#BAA787"/>
<path d="M34.8471 42.6259H27.0381V26.8398H34.6011C37.8011 26.8398 39.7681 28.3189 39.7681 30.9319C39.807 31.7443 39.5629 32.545 39.0775 33.1977C38.5921 33.8503 37.8954 34.3144 37.1061 34.5108C37.9728 34.696 38.7479 35.1772 39.2985 35.8717C39.849 36.5662 40.1406 37.4308 40.1231 38.3168C40.1231 40.9888 38.2291 42.6259 34.8471 42.6259ZM33.6341 30.3258H31.4151V33.0968H33.6381C34.7131 33.0968 35.2951 32.6528 35.2951 31.7358C35.2911 30.8038 34.7091 30.3308 33.6381 30.3308L33.6341 30.3258ZM33.9501 36.2128H31.4161V39.0818H33.9701C35.0641 39.0818 35.6271 38.6378 35.6271 37.6918C35.6271 36.7458 35.0251 36.2169 33.9501 36.2169V36.2128Z" fill="#BAA787"/>
<path d="M43.504 30.3798H41.197V26.2578H48.089V42.6158H43.504V30.3798Z" fill="#BAA787"/>
</svg>
