<svg width="24" height="24" viewBox="0 0 24 24" fill="none" xmlns="http://www.w3.org/2000/svg">
<path d="M12.002 2.423C14.2166 2.42525 16.3619 3.19524 18.0724 4.6018C19.783 6.00836 20.9529 7.96447 21.383 10.1369C21.8131 12.3093 21.4767 14.5636 20.4311 16.5158C19.3855 18.468 17.6954 19.9973 15.6487 20.8432C13.602 21.6891 11.3254 21.7992 9.20662 21.1547C7.08787 20.5103 5.25809 19.1512 4.02899 17.309C2.79989 15.4668 2.24751 13.2555 2.46596 11.0517C2.68441 8.84793 3.66017 6.78805 5.22701 5.223C6.11553 4.3327 7.1714 3.62697 8.3338 3.14642C9.49621 2.66587 10.7422 2.42002 12 2.423M12 0C9.62663 0 7.30655 0.703787 5.33316 2.02236C3.35977 3.34094 1.8217 5.21509 0.913451 7.4078C0.00519943 9.60051 -0.232441 12.0133 0.230582 14.3411C0.693605 16.6689 1.83649 18.8071 3.51472 20.4853C5.19295 22.1635 7.33115 23.3064 9.65892 23.7694C11.9867 24.2324 14.3995 23.9948 16.5922 23.0866C18.7849 22.1783 20.6591 20.6402 21.9776 18.6668C23.2962 16.6935 24 14.3734 24 12C24 8.8174 22.7357 5.76515 20.4853 3.51472C18.2348 1.26428 15.1826 0 12 0Z" fill="#003876"/>
<path d="M18.002 16.319L16.323 17.998L12.002 13.677L7.68095 17.998L6.00195 16.319L10.323 11.998L6.00195 7.67705L7.68095 5.99805L12.002 10.319L16.323 5.99805L18.002 7.67705L13.681 11.998L18.002 16.319Z" fill="#003876"/>
</svg>
