<svg width="76" height="74" viewBox="0 0 76 74" fill="none" xmlns="http://www.w3.org/2000/svg">
<path d="M38.0541 73.052C57.6745 73.052 73.5801 57.1465 73.5801 37.526C73.5801 17.9055 57.6745 2 38.0541 2C18.4336 2 2.52808 17.9055 2.52808 37.526C2.52808 57.1465 18.4336 73.052 38.0541 73.052Z" fill="#E6E7E8"/>
<path d="M8.61571 50.3354C6.09617 44.5495 5.33711 38.1495 6.43333 31.9348C7.52954 25.7201 10.4324 19.9661 14.7795 15.3914C19.1265 10.8167 24.725 7.62409 30.8757 6.21235C37.0265 4.80061 43.4568 5.23229 49.3637 7.45346C55.2705 9.67464 60.3921 13.5869 64.0886 18.7015C67.7852 23.8162 69.893 29.9066 70.1487 36.2121C70.4044 42.5176 68.7968 48.7587 65.5265 54.1559C62.2562 59.5531 57.4683 63.8672 51.7607 66.5594" stroke="#E47739" stroke-width="10" stroke-miterlimit="10" stroke-linecap="round"/>
<path d="M50.2621 45.6953H25.0281V45.9813H50.2621V45.6953Z" fill="#E47739"/>
<path d="M38.3115 45.8429C38.3115 45.9756 38.2721 46.1053 38.1984 46.2157C38.1247 46.326 38.0199 46.412 37.8973 46.4628C37.7747 46.5136 37.6397 46.5269 37.5096 46.501C37.3794 46.4751 37.2599 46.4112 37.166 46.3174C37.0722 46.2235 37.0083 46.1039 36.9824 45.9738C36.9565 45.8436 36.9698 45.7087 37.0206 45.5861C37.0713 45.4635 37.1573 45.3587 37.2677 45.2849C37.378 45.2112 37.5078 45.1719 37.6405 45.1719C37.8179 45.1737 37.9875 45.245 38.1129 45.3704C38.2384 45.4959 38.3097 45.6655 38.3115 45.8429Z" fill="#E47739"/>
<path d="M28.696 20.8047H28.012L26.868 19.0727V20.8047H26.184V17.9967H26.868L28.012 19.7367V17.9967H28.696V20.8047ZM30.5198 20.8327C30.2558 20.8327 30.0132 20.7714 29.7918 20.6487C29.5732 20.526 29.3985 20.3554 29.2678 20.1367C29.1398 19.9154 29.0758 19.6674 29.0758 19.3927C29.0758 19.118 29.1398 18.8714 29.2678 18.6527C29.3985 18.434 29.5732 18.2634 29.7918 18.1407C30.0132 18.018 30.2558 17.9567 30.5198 17.9567C30.7838 17.9567 31.0252 18.018 31.2438 18.1407C31.4652 18.2634 31.6385 18.434 31.7638 18.6527C31.8918 18.8714 31.9558 19.118 31.9558 19.3927C31.9558 19.6674 31.8918 19.9154 31.7638 20.1367C31.6358 20.3554 31.4625 20.526 31.2438 20.6487C31.0252 20.7714 30.7838 20.8327 30.5198 20.8327ZM30.5198 20.2087C30.7438 20.2087 30.9225 20.134 31.0558 19.9847C31.1918 19.8354 31.2598 19.638 31.2598 19.3927C31.2598 19.1447 31.1918 18.9474 31.0558 18.8007C30.9225 18.6514 30.7438 18.5767 30.5198 18.5767C30.2932 18.5767 30.1118 18.65 29.9758 18.7967C29.8425 18.9434 29.7758 19.142 29.7758 19.3927C29.7758 19.6407 29.8425 19.8394 29.9758 19.9887C30.1118 20.1354 30.2932 20.2087 30.5198 20.2087ZM33.7684 20.8047L33.1844 19.7447H33.0204V20.8047H32.3364V17.9967H33.4844C33.7057 17.9967 33.8937 18.0354 34.0484 18.1127C34.2057 18.19 34.323 18.2967 34.4004 18.4327C34.4777 18.566 34.5164 18.7154 34.5164 18.8807C34.5164 19.0674 34.463 19.234 34.3564 19.3807C34.2524 19.5274 34.0977 19.6314 33.8924 19.6927L34.5404 20.8047H33.7684ZM33.0204 19.2607H33.4444C33.5697 19.2607 33.663 19.23 33.7244 19.1687C33.7884 19.1074 33.8204 19.0207 33.8204 18.9087C33.8204 18.802 33.7884 18.718 33.7244 18.6567C33.663 18.5954 33.5697 18.5647 33.4444 18.5647H33.0204V19.2607ZM36.9658 17.9967V18.5447H36.2218V20.8047H35.5378V18.5447H34.7938V17.9967H36.9658ZM37.993 17.9967V20.8047H37.309V17.9967H37.993ZM38.3727 19.3967C38.3727 19.1194 38.4327 18.8727 38.5527 18.6567C38.6727 18.438 38.8394 18.2687 39.0527 18.1487C39.2687 18.026 39.5127 17.9647 39.7847 17.9647C40.1181 17.9647 40.4034 18.0527 40.6407 18.2287C40.8781 18.4047 41.0367 18.6447 41.1167 18.9487H40.3647C40.3087 18.8314 40.2287 18.742 40.1247 18.6807C40.0234 18.6194 39.9074 18.5887 39.7767 18.5887C39.5661 18.5887 39.3954 18.662 39.2647 18.8087C39.1341 18.9554 39.0687 19.1514 39.0687 19.3967C39.0687 19.642 39.1341 19.838 39.2647 19.9847C39.3954 20.1314 39.5661 20.2047 39.7767 20.2047C39.9074 20.2047 40.0234 20.174 40.1247 20.1127C40.2287 20.0514 40.3087 19.962 40.3647 19.8447H41.1167C41.0367 20.1487 40.8781 20.3887 40.6407 20.5647C40.4034 20.738 40.1181 20.8247 39.7847 20.8247C39.5127 20.8247 39.2687 20.7647 39.0527 20.6447C38.8394 20.522 38.6727 20.3527 38.5527 20.1367C38.4327 19.9207 38.3727 19.674 38.3727 19.3967Z" fill="#E47739"/>
<path d="M37.7871 29.9674H31.8661V32.6414H37.0961V36.1054H31.8661V39.0564H37.7871V42.7074H27.3071V26.3164H37.7871V29.9674Z" fill="#E47739"/>
<path d="M42.3857 30.4414H40.0767V26.3164H46.9767V42.6884H42.3876V30.4414H42.3857Z" fill="#E47739"/>
</svg>
