<svg width="198" height="83" viewBox="0 0 198 83" fill="none" xmlns="http://www.w3.org/2000/svg">
<path d="M23.3158 7.943H22.4868C22.3454 7.943 22.2308 8.0571 22.2308 8.19784V12.6098C22.2308 12.7506 22.3454 12.8647 22.4868 12.8647H23.3158C23.4572 12.8647 23.5718 12.7506 23.5718 12.6098V8.19784C23.5718 8.0571 23.4572 7.943 23.3158 7.943Z" fill="#003876"/>
<path d="M25.4726 7.943H24.6436C24.5022 7.943 24.3876 8.0571 24.3876 8.19784V12.6098C24.3876 12.7506 24.5022 12.8647 24.6436 12.8647H25.4726C25.614 12.8647 25.7286 12.7506 25.7286 12.6098V8.19784C25.7286 8.0571 25.614 7.943 25.4726 7.943Z" fill="#003876"/>
<path d="M21.1467 7.943H20.3177C20.1763 7.943 20.0617 8.0571 20.0617 8.19784V12.6098C20.0617 12.7506 20.1763 12.8647 20.3177 12.8647H21.1467C21.288 12.8647 21.4026 12.7506 21.4026 12.6098V8.19784C21.4026 8.0571 21.288 7.943 21.1467 7.943Z" fill="#003876"/>
<path d="M27.1543 6.9746H18.6288C18.5503 6.9746 18.4868 7.03791 18.4868 7.116V7.44153C18.4868 7.51962 18.5503 7.58293 18.6288 7.58293H27.1543C27.2328 7.58293 27.2964 7.51962 27.2964 7.44153V7.116C27.2964 7.03791 27.2328 6.9746 27.1543 6.9746Z" fill="#003876"/>
<path d="M31.0235 15.4278C31.3018 15.6325 31.6205 15.8767 31.9722 16.1677C32.7196 16.7925 33.427 17.4632 34.0902 18.176C35.8231 20.0478 37.256 22.1742 38.3386 24.4804C38.8665 25.5475 39.3195 26.6498 39.6944 27.7793C40.0989 28.9106 40.4248 30.0684 40.6696 31.2443C41.0824 33.2912 41.2888 35.5864 41.2888 35.5864H44.4447L44.439 35.5355L44.562 35.5815V35.5593C44.3946 31.0349 42.9161 26.6553 40.3049 22.9487C37.6936 19.242 34.061 16.3666 29.8452 14.6691L29.813 14.6559C30.0525 14.7852 30.2851 14.9268 30.5099 15.0801C30.666 15.1812 30.841 15.3021 31.0235 15.4278Z" fill="#003876"/>
<path d="M39.1584 35.5214C39.1377 35.2863 39.1031 35.057 39.0758 34.8235C38.8584 32.1722 38.2505 29.5672 37.2716 27.092C36.9604 26.3198 36.6019 25.5673 36.1982 24.8388C36.0842 24.6357 35.9645 24.4434 35.8472 24.2477C33.8743 20.3598 30.6566 17.2371 26.7024 15.3728L26.6875 15.3637L26.714 15.3982C27.473 16.1598 28.1494 16.9988 28.732 17.9014C31.2619 21.8723 32.8025 26.3874 33.2256 31.0708C33.3599 32.2253 33.4264 33.3867 33.4246 34.549C33.4353 34.8581 33.4469 35.362 33.451 35.5354L33.4386 35.5987H34.095L39.1394 35.5839V35.5798H39.1666L39.1584 35.5214Z" fill="#003876"/>
<path d="M26.1999 6.52745C26.2102 5.65266 25.877 4.80841 25.2714 4.17456C24.6657 3.54071 23.8354 3.16735 22.9573 3.13399V2.57908H23.8532V2.15408C23.853 2.14615 23.8496 2.13863 23.8439 2.1331C23.8382 2.12758 23.8306 2.1245 23.8226 2.1245H23.6897C23.6818 2.1245 23.6741 2.12758 23.6684 2.1331C23.6627 2.13863 23.6593 2.14615 23.6591 2.15408V2.47798H22.9548V1.20871H22.9738C22.9839 1.20871 22.9936 1.20472 23.0007 1.19762C23.0078 1.19053 23.0118 1.18094 23.0118 1.17091V0.819884C23.0118 0.809778 23.0078 0.800063 23.0007 0.79284C22.9936 0.785618 22.984 0.781465 22.9738 0.78125H22.8211C22.816 0.781249 22.811 0.782234 22.8063 0.784185C22.8016 0.786137 22.7974 0.789016 22.7939 0.792615C22.7904 0.796214 22.7876 0.800475 22.7857 0.805158C22.7839 0.809841 22.7829 0.81485 22.7831 0.819884V1.17091C22.7829 1.1759 22.7839 1.18087 22.7857 1.18551C22.7876 1.19015 22.7904 1.19434 22.7939 1.19787C22.7975 1.20141 22.8017 1.20419 22.8064 1.20605C22.8111 1.20791 22.816 1.20882 22.8211 1.20871H22.8433V2.47798H22.1299V2.15408C22.1297 2.14615 22.1264 2.13863 22.1207 2.1331C22.115 2.12758 22.1073 2.1245 22.0994 2.1245H21.9664C21.9624 2.12439 21.9585 2.12507 21.9548 2.12651C21.9511 2.12794 21.9477 2.13009 21.9448 2.13285C21.942 2.13561 21.9397 2.13892 21.9382 2.14256C21.9366 2.14621 21.9359 2.15012 21.9359 2.15408V2.57991H22.8441V3.13562C21.9639 3.16902 21.1318 3.54397 20.5257 4.18028C19.9196 4.81659 19.5876 5.66375 19.6007 6.54059V6.55622H26.1982L26.1999 6.52745Z" fill="#003876"/>
<path d="M27.1543 13.3834H18.6288C18.5503 13.3834 18.4868 13.4467 18.4868 13.5248V13.8503C18.4868 13.9284 18.5503 13.9917 18.6288 13.9917H27.1543C27.2328 13.9917 27.2964 13.9284 27.2964 13.8503V13.5248C27.2964 13.4467 27.2328 13.3834 27.1543 13.3834Z" fill="#003876"/>
<path d="M24.1069 15.8397L24.016 15.7625V35.5824L31.3187 35.6078C31.3187 35.6078 31.3187 35.4023 31.3187 35.2995C31.3187 26.8454 28.394 19.5127 24.1069 15.8397Z" fill="#003876"/>
<path d="M41.1316 38.6198H39.2019C39.0605 38.6198 38.9459 38.7339 38.9459 38.8747V40.7942C38.9459 40.9349 39.0605 41.049 39.2019 41.049H41.1316C41.2729 41.049 41.3875 40.9349 41.3875 40.7942V38.8747C41.3875 38.7339 41.2729 38.6198 41.1316 38.6198Z" fill="#003876"/>
<path d="M14.4142 38.6174H12.4837C12.3423 38.6174 12.2277 38.7315 12.2277 38.8723V40.7942C12.2277 40.935 12.3423 41.0491 12.4837 41.0491H14.4142C14.5556 41.0491 14.6702 40.935 14.6702 40.7942V38.8723C14.6702 38.7315 14.5556 38.6174 14.4142 38.6174Z" fill="#003876"/>
<path d="M33.3308 38.6198H31.4011C31.2597 38.6198 31.1451 38.7339 31.1451 38.8747V40.7942C31.1451 40.9349 31.2597 41.049 31.4011 41.049H33.3308C33.4722 41.049 33.5868 40.9349 33.5868 40.7942V38.8747C33.5868 38.7339 33.4722 38.6198 33.3308 38.6198Z" fill="#003876"/>
<path d="M23.8721 38.6174H21.9416C21.8002 38.6174 21.6856 38.7315 21.6856 38.8723V40.7942C21.6856 40.935 21.8002 41.0491 21.9416 41.0491H23.8721C24.0135 41.0491 24.1281 40.935 24.1281 40.7942V38.8723C24.1281 38.7315 24.0135 38.6174 23.8721 38.6174Z" fill="#003876"/>
<path d="M45.6838 37.2034H41.3908V36.48C41.3908 36.4236 41.3683 36.3694 41.3282 36.3295C41.2881 36.2895 41.2337 36.2671 41.177 36.2671H39.1639C39.1072 36.2671 39.0528 36.2895 39.0126 36.3295C38.9725 36.3694 38.95 36.4236 38.95 36.48V37.2034H33.5911V36.48C33.5911 36.452 33.5856 36.4242 33.5748 36.3983C33.564 36.3725 33.5481 36.3489 33.5281 36.3292C33.5082 36.3094 33.4845 36.2937 33.4585 36.2831C33.4324 36.2724 33.4045 36.267 33.3764 36.2671H31.3633C31.3066 36.2671 31.2522 36.2895 31.2121 36.3295C31.172 36.3694 31.1495 36.4236 31.1495 36.48V37.2034H24.1308V36.4759C24.1308 36.4194 24.1083 36.3653 24.0682 36.3253C24.0281 36.2854 23.9737 36.263 23.917 36.263H21.9031C21.8463 36.263 21.7919 36.2854 21.7518 36.3253C21.7117 36.3653 21.6892 36.4194 21.6892 36.4759V37.2034H14.6706V36.4759C14.6706 36.4194 14.648 36.3653 14.6079 36.3253C14.5678 36.2854 14.5134 36.263 14.4567 36.263H12.4428C12.386 36.263 12.3317 36.2854 12.2916 36.3253C12.2515 36.3653 12.2289 36.4194 12.2289 36.4759V37.2034H6.86835V36.4759C6.86835 36.4479 6.86277 36.4201 6.85197 36.3942C6.84117 36.3683 6.82535 36.3449 6.8054 36.3251C6.78546 36.3053 6.76179 36.2896 6.73575 36.279C6.70971 36.2683 6.68181 36.2629 6.65365 36.263H4.64056C4.58376 36.263 4.52925 36.2854 4.48901 36.3253C4.44877 36.3652 4.42608 36.4194 4.42586 36.4759V37.2034H0.14698C0.128329 37.2034 0.109882 37.2071 0.0926511 37.2142C0.07542 37.2213 0.0597252 37.2317 0.046537 37.2448C0.0333489 37.258 0.0228813 37.2735 0.0157439 37.2907C0.00860655 37.3079 0.00495876 37.3263 0.00495876 37.3448V37.7263C0.00495876 37.7638 0.0199024 37.7997 0.046537 37.8263C0.0731717 37.8528 0.109313 37.8677 0.14698 37.8677H45.6887C45.7264 37.8677 45.7627 37.8528 45.7895 37.8263C45.8162 37.7998 45.8314 37.7638 45.8316 37.7263V37.3448C45.8315 37.3258 45.8275 37.307 45.82 37.2895C45.8125 37.272 45.8015 37.2562 45.7877 37.243C45.7739 37.2298 45.7576 37.2195 45.7398 37.2127C45.7219 37.2059 45.7029 37.2028 45.6838 37.2034Z" fill="#003876"/>
<path d="M6.61185 38.6174H4.68131C4.53994 38.6174 4.42534 38.7315 4.42534 38.8723V40.7942C4.42534 40.935 4.53994 41.0491 4.68131 41.0491H6.61185C6.75321 41.0491 6.86782 40.935 6.86782 40.7942V38.8723C6.86782 38.7315 6.75321 38.6174 6.61185 38.6174Z" fill="#003876"/>
<path d="M21.8122 35.5938V15.7682L21.7214 15.8446C17.4342 19.5184 14.5104 26.8602 14.5104 35.3102C14.5104 35.4138 14.5104 35.6185 14.5104 35.6185L21.8122 35.5938Z" fill="#003876"/>
<path d="M1.38309 35.5946H2.568L3.68023 35.5988V35.5946H4.53815C4.53815 35.5946 4.74623 33.2986 5.15744 31.2501C5.67028 28.9132 6.45219 26.643 7.48764 24.4845C8.57017 22.1779 10.0034 20.0512 11.7368 18.1793C12.3995 17.4661 13.1066 16.7951 13.8539 16.1702C14.2048 15.8817 14.5236 15.6383 14.8018 15.4303C14.9851 15.3037 15.1619 15.1837 15.3171 15.0768C15.5419 14.9235 15.7745 14.7819 16.014 14.6527L15.9818 14.6658C11.7658 16.3654 8.13366 19.2428 5.52328 22.9512C2.9129 26.6596 1.43575 31.0406 1.26995 35.5659V35.5897H1.38722L1.38309 35.5946Z" fill="#003876"/>
<path d="M17.0952 17.9105C17.6772 17.0074 18.3533 16.1681 19.1124 15.4065L19.1388 15.3711L19.1248 15.3802C15.1695 17.2453 11.9513 20.3692 9.97828 24.2584C9.86103 24.4541 9.74131 24.6464 9.62736 24.8495C9.22536 25.5783 8.86823 26.3308 8.55802 27.1027C7.57686 29.5789 6.96729 32.1854 6.74889 34.8383C6.72246 35.0718 6.6878 35.302 6.66633 35.5371L6.6622 35.5914H6.68861L11.5752 35.6062H12.3886L12.3762 35.542C12.3803 35.3719 12.3918 34.8671 12.4026 34.5556C12.4014 33.3931 12.4679 32.2315 12.6016 31.0766C13.0252 26.3943 14.5658 21.8804 17.0952 17.9105Z" fill="#003876"/>
<path d="M45.5698 41.6212H0.255973C0.114603 41.6212 8.82937e-09 41.7353 8.82937e-09 41.876V42.9422C8.82937e-09 43.083 0.114603 43.1971 0.255973 43.1971H45.5698C45.7112 43.1971 45.8258 43.083 45.8258 42.9422V41.876C45.8258 41.7353 45.7112 41.6212 45.5698 41.6212Z" fill="#003876"/>
<path d="M0.00400101 52.4305V52.4132C-0.00881936 51.9961 0.0626216 51.5806 0.21406 51.1915C0.365498 50.8023 0.593848 50.4473 0.885612 50.1477C1.17738 49.848 1.52659 49.6097 1.91257 49.4469C2.29855 49.2841 2.71345 49.2 3.13265 49.1998C3.98517 49.1658 4.81751 49.4632 5.45373 50.0292L4.99879 50.5611C4.48492 50.0838 3.80203 49.8287 3.09964 49.8516C2.77466 49.8601 2.45464 49.9333 2.15846 50.0667C1.86228 50.2001 1.59592 50.3912 1.37503 50.6286C1.15413 50.8661 0.983155 51.1451 0.872206 51.4493C0.761257 51.7536 0.712565 52.0768 0.728975 52.4001V52.4181C0.703316 52.7532 0.748627 53.09 0.861925 53.4066C0.975222 53.7231 1.15401 54.0126 1.38672 54.256C1.61943 54.4995 1.90085 54.6916 2.21284 54.8199C2.52483 54.9483 2.86041 55.01 3.19787 55.0011C3.85095 54.9986 4.48462 54.7796 4.99879 54.3787V52.8349H3.09964V52.2044H5.67588V54.6804C4.98592 55.2915 4.09491 55.6296 3.17146 55.6307C2.74733 55.6461 2.32463 55.5735 1.93021 55.4175C1.53579 55.2614 1.17825 55.0255 0.88037 54.7245C0.582487 54.4235 0.350773 54.0642 0.199898 53.6692C0.0490228 53.2743 -0.0176953 52.8524 0.00400101 52.4305Z" fill="#003876"/>
<path d="M7.84181 52.4307V52.4135C7.84062 51.9974 7.92172 51.5852 8.08054 51.2004C8.23937 50.8155 8.47281 50.4656 8.76747 50.1706C9.06213 49.8755 9.41226 49.6411 9.7979 49.4808C10.1835 49.3205 10.5971 49.2374 11.015 49.2362C11.4329 49.235 11.847 49.3158 12.2335 49.4739C12.6201 49.632 12.9716 49.8644 13.268 50.1578C13.5643 50.4511 13.7997 50.7997 13.9607 51.1837C14.1218 51.5676 14.2052 51.9794 14.2064 52.3954C14.2155 52.4036 14.2155 52.4036 14.2064 52.4135C14.2087 53.2537 13.8757 54.0605 13.2805 54.6563C12.6853 55.2521 11.8768 55.5881 11.0328 55.5903C10.1888 55.5926 9.37844 55.261 8.78002 54.6685C8.18159 54.0759 7.84411 53.271 7.84181 52.4307ZM13.4757 52.4307V52.4135C13.489 52.0828 13.4353 51.7528 13.3178 51.4432C13.2003 51.1336 13.0214 50.8507 12.7918 50.6114C12.5622 50.3721 12.2866 50.1812 11.9813 50.0502C11.6761 49.9191 11.3474 49.8506 11.015 49.8487C10.6845 49.8496 10.3576 49.917 10.054 50.0468C9.75033 50.1767 9.47621 50.3664 9.24806 50.6044C9.01991 50.8425 8.84248 51.124 8.72639 51.432C8.61031 51.7401 8.55795 52.0683 8.57253 52.397V52.4151C8.55934 52.7458 8.61314 53.0756 8.73068 53.3851C8.84821 53.6946 9.02709 53.9774 9.25668 54.2167C9.48628 54.4559 9.76188 54.6467 10.0671 54.7777C10.3723 54.9087 10.7009 54.9772 11.0332 54.9791C11.3637 54.9782 11.6906 54.9108 11.9942 54.7809C12.2979 54.651 12.572 54.4614 12.8002 54.2234C13.0283 53.9853 13.2057 53.7038 13.3218 53.3958C13.4379 53.0877 13.4903 52.7594 13.4757 52.4307Z" fill="#003876"/>
<path d="M16.5466 49.3064H19.2029C19.7976 49.2722 20.3823 49.4694 20.8337 49.8564C20.9638 49.9872 21.0663 50.1426 21.1353 50.3134C21.2042 50.4842 21.2381 50.667 21.235 50.8511V50.8683C21.2409 51.1809 21.1486 51.4875 20.9709 51.7453C20.7933 52.0031 20.5392 52.1991 20.2441 52.3061C20.9873 52.5281 21.581 52.9539 21.581 53.8055V53.8237C21.581 54.8923 20.6809 55.5188 19.3169 55.5188H16.5449L16.5466 49.3064ZM19.0865 52.0751C19.9337 52.0751 20.5224 51.6937 20.5224 50.9654V50.9489C20.5224 50.3357 20.0319 49.9361 19.1402 49.9361H17.241V52.0735L19.0865 52.0751ZM19.3342 54.8891C20.2788 54.8891 20.8676 54.4706 20.8676 53.7793V53.7612C20.8676 53.0871 20.297 52.6925 19.2087 52.6925H17.2394V54.885L19.3342 54.8891Z" fill="#003876"/>
<path d="M23.8926 49.3065H24.5969V55.5188H23.8926V49.3065Z" fill="#003876"/>
<path d="M27.274 49.3065H31.784V49.9461H27.9783V52.0662H31.3811V52.7049H27.9758V54.8793H31.8261V55.5188H27.2715L27.274 49.3065Z" fill="#003876"/>
<path d="M34.0977 49.3071H36.7812C37.4316 49.2724 38.0694 49.4956 38.5549 49.9278C38.7122 50.0905 38.8357 50.2825 38.9183 50.4928C39.0009 50.7032 39.041 50.9277 39.0363 51.1534V51.1707C39.035 51.6292 38.8598 52.0703 38.5458 52.4057C38.2317 52.741 37.802 52.9459 37.3427 52.9792L39.2592 55.5178H38.3947L36.5847 53.1034H34.802V55.5178H34.0977V49.3071ZM36.7185 52.4753C37.6549 52.4753 38.3229 51.9961 38.3229 51.197V51.1806C38.3229 50.4177 37.7349 49.9557 36.7276 49.9557H34.802V52.4761L36.7185 52.4753Z" fill="#003876"/>
<path d="M41.3926 49.3065H42.0531L45.9844 54.2849V49.3065H46.6706V55.5188H46.1091L42.0796 50.4221V55.5188H41.3934L41.3926 49.3065Z" fill="#003876"/>
<path d="M49.0078 52.4307V52.4135C49.0066 51.9974 49.0877 51.5852 49.2466 51.2004C49.4054 50.8155 49.6388 50.4656 49.9335 50.1706C50.2281 49.8755 50.5783 49.6411 50.9639 49.4808C51.3496 49.3205 51.7631 49.2374 52.181 49.2362C52.5989 49.235 53.013 49.3158 53.3996 49.4739C53.7861 49.632 54.1376 49.8644 54.434 50.1578C54.7303 50.4511 54.9657 50.7997 55.1267 51.1837C55.2878 51.5676 55.3713 51.9794 55.3725 52.3954C55.3816 52.4036 55.3816 52.4036 55.3725 52.4135C55.3736 52.8295 55.2924 53.2417 55.1335 53.6266C54.9747 54.0114 54.7412 54.3613 54.4465 54.6563C54.1518 54.9513 53.8016 55.1856 53.416 55.3459C53.0303 55.5062 52.6167 55.5892 52.1988 55.5903C51.7809 55.5915 51.3668 55.5106 50.9803 55.3525C50.5938 55.1943 50.2423 54.9619 49.946 54.6685C49.6497 54.3751 49.4143 54.0265 49.2534 53.6425C49.0924 53.2586 49.009 52.8468 49.0078 52.4307ZM54.6417 52.4307V52.4135C54.655 52.0829 54.6013 51.753 54.4839 51.4434C54.3665 51.1339 54.1877 50.851 53.9582 50.6117C53.7286 50.3724 53.4531 50.1815 53.1479 50.0504C52.8428 49.9193 52.5142 49.8507 52.1819 49.8487C51.8514 49.8496 51.5245 49.917 51.2208 50.0468C50.9172 50.1767 50.643 50.3664 50.4149 50.6044C50.1867 50.8425 50.0093 51.124 49.8932 51.432C49.7771 51.7401 49.7248 52.0683 49.7394 52.397V52.4151C49.7262 52.7457 49.78 53.0755 49.8974 53.385C50.0149 53.6944 50.1937 53.9771 50.4233 54.2164C50.6528 54.4556 50.9282 54.6464 51.2333 54.7775C51.5385 54.9085 51.8669 54.9771 52.1992 54.9791C52.5297 54.9782 52.8566 54.9108 53.1603 54.7809C53.4639 54.651 53.738 54.4614 53.9662 54.2234C54.1943 53.9853 54.3718 53.7038 54.4878 53.3958C54.6039 53.0877 54.6563 52.7594 54.6417 52.4307Z" fill="#003876"/>
<path d="M61.2363 49.3065H63.4022C63.827 49.2785 64.2529 49.3375 64.6538 49.48C65.0547 49.6225 65.4219 49.8455 65.7328 50.135C66.0436 50.4245 66.2915 50.7744 66.461 51.1632C66.6305 51.5519 66.7181 51.9712 66.7183 52.395V52.413C66.7186 52.8377 66.6314 53.2579 66.4623 53.6478C66.2932 54.0377 66.0456 54.3889 65.7349 54.6799C65.4243 54.9709 65.057 55.1954 64.6558 55.3397C64.2546 55.484 63.828 55.5449 63.4022 55.5188H61.2363V49.3065ZM63.4022 54.871C63.7364 54.8944 64.0718 54.8484 64.3872 54.7358C64.7026 54.6232 64.9909 54.4465 65.234 54.217C65.4771 53.9874 65.6695 53.71 65.7991 53.4024C65.9287 53.0948 65.9926 52.7638 65.9867 52.4303V52.413C65.9931 52.0786 65.9298 51.7464 65.8006 51.4376C65.6715 51.1288 65.4794 50.8501 65.2365 50.619C64.9935 50.3879 64.7051 50.2095 64.3894 50.0951C64.0736 49.9806 63.7375 49.9327 63.4022 49.9542H61.9398V54.871H63.4022Z" fill="#003876"/>
<path d="M69.0586 49.3065H73.5695V49.9461H69.7629V52.0662H73.1682V52.7049H69.7629V54.8793H73.6141V55.5188H69.0586V49.3065Z" fill="#003876"/>
<path d="M79.4043 49.3065H80.1086V54.871H83.6212V55.5188H79.4043V49.3065Z" fill="#003876"/>
<path d="M88.0798 49.2626H88.7404L91.5842 55.5193H90.8261L90.0962 53.8752H86.6992L85.956 55.5193H85.2344L88.0798 49.2626ZM89.8138 53.2471L88.3969 50.0797L86.9708 53.2471H89.8138Z" fill="#003876"/>
<path d="M9.21461 73.5933C8.75405 73.7665 8.24981 73.7881 7.776 73.6549C7.30219 73.5218 6.88379 73.2408 6.58222 72.8534L4.65168 70.3864C4.40684 70.0882 4.08954 69.8572 3.72985 69.7153C3.37017 69.5735 2.98001 69.5254 2.59645 69.5758V71.9993C2.59645 72.8731 3.19759 73.0227 4.00019 73.123C4.08771 73.1354 4.02497 73.5472 3.92424 73.5472H0.125897C0.0251592 73.5472 -0.0499648 73.1362 0.0499473 73.123C0.68988 73.0351 1.09036 72.7851 1.09036 71.9993V66.4347C1.09036 65.6127 0.651897 65.3734 0.0499473 65.2115C-0.0499648 65.1868 0.0127734 64.775 0.125897 64.7873C0.604233 64.8412 1.0854 64.8662 1.56677 64.8621C2.49406 64.8621 3.3586 64.7873 3.96138 64.7873C5.85393 64.7873 7.11977 65.5609 7.11977 67.0956C7.11738 67.6836 6.88173 68.2468 6.46414 68.6625C6.04656 69.0782 5.48086 69.3128 4.89031 69.3152V69.3785C5.39153 69.3785 5.75567 69.5906 6.30725 70.2771L8.17419 72.61C8.28803 72.7864 8.44104 72.9344 8.62142 73.0426C8.80181 73.1508 9.00477 73.2163 9.21461 73.234C9.31452 73.2324 9.28975 73.5686 9.21461 73.5933ZM5.54261 67.4278C5.56737 67.1627 5.53374 66.8953 5.44409 66.6444C5.35443 66.3935 5.21091 66.1651 5.02352 65.9751C4.83612 65.7851 4.60934 65.638 4.35902 65.5442C4.1087 65.4504 3.84086 65.412 3.57412 65.4318C2.83097 65.4318 2.59731 65.731 2.59731 66.4298V68.9996H2.96063C4.82758 69.0012 5.54261 68.6773 5.54261 67.4294V67.4278Z" fill="#003876"/>
<path d="M11.2363 73.1197C11.9638 72.9322 12.5278 72.8197 12.5278 71.8957V66.3566C12.5278 65.5575 12.0142 65.3455 11.475 65.2057C11.3742 65.1811 11.437 64.7692 11.5377 64.7815C12.4526 64.881 14.0314 64.8563 14.796 64.8563C15.9363 64.8563 16.7637 64.8062 17.7917 64.7815C18.0923 64.7815 18.0923 64.9813 18.0295 65.2682L17.7289 66.4536C17.691 66.6287 17.378 66.6287 17.3277 66.4536C17.1394 65.8428 16.7637 65.4926 15.1973 65.4926C14.3196 65.4926 14.0314 65.717 14.0314 66.3665V68.4002C14.0314 68.7291 14.1965 68.7866 14.4443 68.7866H14.72C15.5631 68.883 16.4136 68.6848 17.1262 68.2259C17.2517 68.1125 17.5275 68.138 17.4144 68.3904L16.7001 69.963C16.6002 70.1874 16.4119 70.1628 16.2741 69.9753C16.0582 69.7652 15.7979 69.6056 15.5121 69.5085C15.2264 69.4114 14.9225 69.379 14.6226 69.4138H14.4467C14.199 69.4138 14.0339 69.4763 14.0339 69.8002V71.8965C14.0339 72.6084 14.3344 72.8706 15.3749 72.8706C17.2674 72.8706 18.0171 72.0091 18.3202 71.5356C18.4077 71.3974 18.7462 71.4608 18.7462 71.672C18.7462 72.3083 18.2071 73.5693 17.4177 73.5693C16.7158 73.5315 16.0271 73.4937 14.9743 73.4937C13.8183 73.4937 12.4551 73.4567 11.3147 73.5693C11.1868 73.5808 11.1364 73.1443 11.2363 73.1197Z" fill="#003876"/>
<path d="M23.7484 70.1989V71.9992C23.7484 72.8731 24.3496 73.0227 25.1522 73.123C25.2397 73.1353 25.1769 73.5472 25.077 73.5472H21.2787C21.1788 73.5472 21.1036 73.1361 21.2035 73.123C21.8435 73.035 22.244 72.7851 22.244 71.9992V66.4347C22.244 65.6126 21.8055 65.3734 21.2035 65.2114C21.1036 65.1868 21.1664 64.7749 21.2787 64.7873C21.7573 64.8411 22.2388 64.8661 22.7204 64.8621C23.6477 64.8621 24.4247 64.7873 25.0638 64.7873C27.0067 64.7873 28.6144 65.4983 28.6144 67.4573C28.6111 69.6752 26.5179 70.6108 23.7484 70.1989ZM23.7484 66.4314V69.5881C25.8788 69.8874 26.9943 69.376 26.9943 67.7418C27.0216 67.4382 26.9829 67.1324 26.8809 66.8451C26.7788 66.5578 26.6159 66.2957 26.403 66.0767C26.1901 65.8577 25.9324 65.6869 25.6473 65.5759C25.3622 65.4649 25.0565 65.4163 24.7508 65.4334C23.9615 65.4334 23.7484 65.7072 23.7484 66.4314Z" fill="#003876"/>
<path d="M32.1488 70.2729V66.3549C32.1688 66.2124 32.1574 66.0672 32.1151 65.9295C32.0728 65.7919 32.0008 65.6651 31.9041 65.5581C31.8074 65.4511 31.6884 65.3665 31.5553 65.3101C31.4223 65.2538 31.2784 65.2271 31.1339 65.232C31.0332 65.2188 31.1084 64.807 31.2083 64.807H34.6301C34.73 64.807 34.8059 65.218 34.7052 65.232C34.5617 65.229 34.4193 65.2569 34.2878 65.3141C34.1563 65.3712 34.0388 65.4562 33.9434 65.563C33.8481 65.6697 33.7772 65.7958 33.7357 65.9326C33.6941 66.0693 33.6829 66.2134 33.7028 66.3549V70.3354C33.7028 72.0814 34.7176 72.8928 36.0462 72.8928C36.3844 72.915 36.7233 72.8633 37.0393 72.7412C37.3552 72.6191 37.6404 72.4296 37.875 72.186C38.1095 71.9424 38.2876 71.6507 38.3967 71.3312C38.5059 71.0118 38.5435 70.6724 38.5068 70.337V66.3566C38.5068 65.5452 38.0428 65.32 37.4334 65.2337C37.3459 65.2205 37.4086 64.8086 37.5085 64.8086H40.3234C40.4118 64.8086 40.4885 65.2197 40.3861 65.2337C40.2427 65.2306 40.1003 65.2586 39.9688 65.3157C39.8372 65.3729 39.7197 65.4578 39.6244 65.5646C39.5291 65.6713 39.4581 65.7975 39.4166 65.9342C39.375 66.071 39.3638 66.2151 39.3837 66.3566V70.2613C39.4224 70.7272 39.3589 71.1959 39.1977 71.6349C39.0364 72.074 38.7812 72.4728 38.4498 72.8039C38.1184 73.1351 37.7186 73.3905 37.2782 73.5527C36.8378 73.7148 36.3672 73.7796 35.8992 73.7428C34.1305 73.7428 32.1488 72.8065 32.1488 70.2729ZM35.8331 61.7004C36.0594 61.3716 37.1122 62.3367 36.8108 62.5611L35.1693 63.7942C35.0041 63.9183 34.5673 63.5197 34.6928 63.3454L35.8331 61.7004Z" fill="#003876"/>
<path d="M50.4266 71.0234C50.4266 72.5697 49.0097 73.5718 46.9173 73.5718C46.3153 73.5718 45.6135 73.4962 44.6879 73.4962C44.0311 73.4854 43.3742 73.5107 42.7202 73.5718C42.6079 73.5842 42.5443 73.1476 42.645 73.123C43.3717 72.9355 43.9356 72.8229 43.9356 71.8989V66.3599C43.9356 65.5609 43.422 65.3487 42.8828 65.209C42.7829 65.1843 42.8457 64.7725 42.9456 64.7848C43.4494 64.8382 43.9558 64.8632 44.4624 64.8596C45.4649 64.8596 46.2039 64.7848 46.7555 64.7848C48.3722 64.7848 49.7008 65.4589 49.7132 66.8317C49.7208 67.282 49.5655 67.72 49.2757 68.0657C48.9858 68.4115 48.5807 68.642 48.1344 68.7151V68.7899C48.4336 68.7815 48.7314 68.8332 49.0102 68.9418C49.2889 69.0505 49.5427 69.2139 49.7566 69.4223C49.9706 69.6308 50.1401 69.88 50.2552 70.1551C50.3703 70.4301 50.4286 70.7254 50.4266 71.0234ZM45.4385 66.3566V68.5762H46.729C46.9217 68.6021 47.1178 68.5837 47.3021 68.5222C47.4865 68.4607 47.6541 68.3579 47.7922 68.2216C47.9303 68.0854 48.035 67.9193 48.0984 67.7363C48.1617 67.5534 48.1819 67.3583 48.1575 67.1663C48.1721 66.9273 48.134 66.688 48.046 66.4652C47.958 66.2423 47.8221 66.0413 47.6479 65.8762C47.4737 65.711 47.2654 65.5858 47.0375 65.5092C46.8096 65.4326 46.5677 65.4064 46.3286 65.4326C45.6639 65.4334 45.4426 65.6578 45.4426 66.3566H45.4385ZM48.8099 71.2972C48.8313 71.0186 48.7923 70.7386 48.6956 70.4763C48.599 70.214 48.4469 69.9754 48.2496 69.7767C48.0523 69.5779 47.8145 69.4237 47.5521 69.3244C47.2898 69.225 47.0091 69.1829 46.729 69.2009H45.4426V71.8957C45.4426 72.5821 45.7935 72.9199 46.8835 72.9199C47.9825 72.9199 48.8099 72.5944 48.8099 71.2972Z" fill="#003876"/>
<path d="M52.824 73.1196C53.5515 72.9322 54.1155 72.8196 54.1155 71.8956V66.3566C54.1155 65.4827 53.6019 65.3076 53.0627 65.2337C52.9628 65.2205 53.0379 64.8086 53.1254 64.8086H56.5844C56.6719 64.8086 56.7346 65.2197 56.6471 65.2337C56.5015 65.2268 56.3562 65.252 56.2216 65.3075C56.0869 65.3629 55.9661 65.4473 55.868 65.5545C55.7698 65.6618 55.6966 65.7892 55.6536 65.9279C55.6106 66.0665 55.5988 66.2129 55.6191 66.3566V71.8956C55.6191 72.6075 55.9205 72.8698 56.9609 72.8698C58.8534 72.8698 59.6032 72.0082 59.9054 71.5347C59.9938 71.3966 60.3315 71.4599 60.3315 71.6712C60.3315 72.3075 59.7931 73.5685 59.0029 73.5685C58.3011 73.5307 57.6124 73.4929 56.5596 73.4929C55.4036 73.4929 54.0404 73.4559 52.9 73.5685C52.7745 73.5808 52.7241 73.1443 52.824 73.1196Z" fill="#003876"/>
<path d="M62.5403 73.1196C63.1794 73.0317 63.5807 72.7818 63.5807 71.9959V66.3566C63.5807 65.5698 63.1794 65.32 62.5403 65.2337C62.4396 65.2205 62.5147 64.8086 62.6147 64.8086H66.0496C66.1495 64.8086 66.2247 65.2197 66.124 65.2337C65.5856 65.3076 65.0844 65.4802 65.0844 66.3566V71.9959C65.0844 72.8697 65.5856 73.044 66.124 73.1196C66.2247 73.132 66.1495 73.5439 66.0496 73.5439H62.6171C62.5147 73.5439 62.4396 73.132 62.5403 73.1196Z" fill="#003876"/>
<path d="M68.772 69.3382C68.7419 68.7018 68.8471 68.0661 69.0808 67.4729C69.3145 66.8798 69.6714 66.3423 70.128 65.8959C70.5847 65.4495 71.1309 65.1041 71.7309 64.8823C72.3309 64.6605 72.9712 64.5674 73.6099 64.6089C75.0631 64.6089 76.3166 65.0586 76.1696 65.4951L76.0044 65.9818C75.5528 67.3168 75.064 65.6077 72.8337 65.6077C71.0411 65.6077 70.1633 66.7677 70.1633 68.5672C70.1358 69.0855 70.2158 69.604 70.3983 70.0902C70.5808 70.5765 70.8619 71.0202 71.2241 71.3936C71.5863 71.767 72.0218 72.0621 72.5036 72.2607C72.9854 72.4592 73.503 72.5569 74.0243 72.5476C74.7301 72.4913 75.4169 72.2918 76.0424 71.9614C76.1423 71.8981 76.4057 72.1858 76.3306 72.2976C75.6359 73.0407 74.7239 73.5473 73.7238 73.7453C71.6182 73.7429 68.772 72.5204 68.772 69.3382Z" fill="#003876"/>
<path d="M87.7756 73.5439H84.4669C84.3018 73.5439 84.2911 73.1443 84.4298 73.1196C84.893 73.0317 85.3942 72.873 84.931 71.7961L84.7931 71.4846C84.6676 71.1846 84.4545 71.1558 84.0788 71.1558H81.5191C81.1434 71.1558 80.9304 71.1804 80.8048 71.4846L80.6793 71.7961C80.2409 72.8697 80.7173 73.0292 81.3185 73.1196C81.4836 73.1443 81.4439 73.5439 81.2813 73.5439H78.5737C78.4234 73.5439 78.3855 73.1443 78.5358 73.1196C79.0502 73.0317 79.3507 72.8574 79.8148 71.7961L81.9328 66.955C82.2889 66.3122 82.5066 65.6024 82.5719 64.8711C82.8545 64.7282 83.1705 64.6637 83.4868 64.6845L86.5419 71.7838C86.9928 72.8451 87.2933 73.044 87.7945 73.1196C87.9762 73.1443 87.9259 73.5439 87.7756 73.5439ZM84.2786 70.2613L82.8121 66.7676L81.3333 70.2613C81.2582 70.4364 81.4464 70.4611 81.6223 70.4611H83.9904C84.1688 70.4611 84.3538 70.4373 84.2786 70.2613Z" fill="#003876"/>
<path d="M93.8473 73.1197C94.5739 72.9322 95.1379 72.8196 95.1379 71.8957V66.3566C95.1379 65.5575 94.6243 65.3455 94.0851 65.2057C93.9852 65.1811 94.048 64.7692 94.1479 64.7815C94.6688 64.838 95.1927 64.8629 95.7167 64.8563C96.6936 64.8563 97.5713 64.7815 98.2104 64.7815C101.243 64.7815 102.885 66.5786 102.885 68.9864C102.907 69.6011 102.8 70.2137 102.571 70.785C102.342 71.3564 101.997 71.874 101.556 72.3049C101.115 72.7358 100.588 73.0705 100.01 73.2876C99.4322 73.5047 98.815 73.5996 98.198 73.5661C97.5961 73.5661 96.8191 73.4905 95.8918 73.4905C95.235 73.48 94.5781 73.5052 93.9241 73.5661C93.797 73.5809 93.7474 73.1443 93.8473 73.1197ZM101.38 69.6999C101.38 67.3159 100.076 65.4458 97.8207 65.4458C96.9306 65.4458 96.6424 65.7195 96.6424 66.3566V71.8957C96.6424 72.5697 97.1056 72.9068 98.3219 72.9068C100.365 72.9035 101.38 71.8085 101.38 69.6975V69.6999Z" fill="#003876"/>
<path d="M105.607 69.2264C105.583 68.6213 105.685 68.0178 105.904 67.453C106.123 66.8881 106.456 66.3738 106.882 65.9416C107.308 65.5093 107.818 65.1681 108.381 64.9389C108.944 64.7098 109.548 64.5975 110.156 64.6089C110.756 64.5897 111.353 64.6931 111.91 64.9127C112.468 65.1323 112.975 65.4634 113.399 65.8857C113.823 66.3079 114.155 66.8122 114.376 67.3674C114.596 67.9227 114.7 68.517 114.68 69.1138C114.706 69.72 114.606 70.325 114.388 70.8915C114.17 71.4581 113.837 71.974 113.411 72.4077C112.985 72.8414 112.474 73.1836 111.91 73.4132C111.345 73.6428 110.74 73.755 110.131 73.7428C109.531 73.7595 108.934 73.6541 108.377 73.4329C107.82 73.2117 107.313 72.8794 106.89 72.4564C106.466 72.0335 106.134 71.5288 105.913 70.9734C105.692 70.4179 105.588 69.8234 105.607 69.2264ZM113.189 69.8125C113.189 67.2921 111.473 65.4556 109.668 65.4556C108.564 65.4556 107.108 66.179 107.108 68.5252C107.108 71.0735 108.824 72.892 110.616 72.892C111.723 72.8944 113.189 72.171 113.189 69.8125Z" fill="#003876"/>
<path d="M128.322 73.5439H125.05C124.963 73.5439 124.9 73.1328 124.975 73.1197C125.111 73.1141 125.244 73.0791 125.365 73.0171C125.486 72.955 125.592 72.8675 125.676 72.7605C125.759 72.6535 125.818 72.5297 125.849 72.3977C125.88 72.2656 125.881 72.1285 125.853 71.9959L125.615 67.8034L123.584 71.922C123.375 72.3325 123.207 72.7626 123.083 73.206C123.058 73.3565 122.794 73.4313 122.594 73.4313C122.514 73.4376 122.434 73.4194 122.364 73.3791C122.295 73.3389 122.24 73.2785 122.206 73.206L119.311 67.7418L119.122 71.9959C119.084 72.8698 119.599 73.0687 120 73.1197C120.1 73.132 120.025 73.5439 119.937 73.5439H117.342C117.242 73.5439 117.167 73.1328 117.267 73.1197C117.806 73.0564 118.258 72.873 118.307 71.9959L118.709 64.8341C118.721 64.6212 119.198 64.6089 119.323 64.8341L122.956 71.5964L126.328 64.8341C126.441 64.6089 126.942 64.6212 126.954 64.8341L127.356 71.9959C127.406 72.8698 127.857 73.0564 128.384 73.1197C128.484 73.132 128.409 73.5439 128.322 73.5439Z" fill="#003876"/>
<path d="M130.895 73.1196C131.535 73.0317 131.936 72.7818 131.936 71.9959V66.3566C131.936 65.5698 131.535 65.32 130.895 65.2337C130.796 65.2205 130.871 64.8086 130.971 64.8086H134.405C134.505 64.8086 134.58 65.2197 134.48 65.2337C133.942 65.3076 133.44 65.4802 133.44 66.3566V71.9959C133.44 72.8697 133.942 73.044 134.48 73.1196C134.58 73.132 134.505 73.5439 134.405 73.5439H130.971C130.871 73.5439 130.796 73.132 130.895 73.1196Z" fill="#003876"/>
<path d="M144.785 73.4313L138.819 67.2165V71.959C138.819 72.8065 139.321 72.9454 140.035 73.1197C140.135 73.1443 140.085 73.5439 139.96 73.5439H136.987C136.886 73.5439 136.811 73.1567 136.924 73.1197C137.45 72.9446 137.952 72.8451 137.952 71.959V67.117C138.014 66.4981 137.85 65.8775 137.488 65.3701C137.375 65.2205 137.263 65.1235 137.263 65.0832C137.26 65.0142 137.284 64.9466 137.33 64.8952C137.376 64.8438 137.441 64.8127 137.511 64.8087H138.438C138.494 64.8014 138.55 64.8078 138.603 64.8274C138.655 64.8471 138.702 64.8793 138.739 64.9213L144.58 71.0728V66.3813C144.58 65.4951 144.016 65.3948 143.363 65.2304C143.263 65.2049 143.314 64.8054 143.439 64.8054H146.412C146.512 64.8054 146.577 65.2049 146.475 65.2304C145.923 65.3948 145.447 65.4918 145.447 66.3813V71.2314C145.421 71.9665 145.471 72.7023 145.597 73.4272C145.647 73.6146 145.447 73.6639 145.246 73.6639C145.156 73.6642 145.068 73.6432 144.988 73.6028C144.907 73.5623 144.838 73.5035 144.785 73.4313Z" fill="#003876"/>
<path d="M148.988 73.1196C149.628 73.0317 150.028 72.7818 150.028 71.9959V66.3566C150.028 65.5698 149.628 65.32 148.988 65.2337C148.888 65.2205 148.963 64.8086 149.064 64.8086H152.497C152.598 64.8086 152.673 65.2197 152.573 65.2337C152.034 65.3076 151.532 65.4802 151.532 66.3566V71.9959C151.532 72.8697 152.034 73.044 152.573 73.1196C152.673 73.132 152.598 73.5439 152.497 73.5439H149.064C148.962 73.5439 148.887 73.132 148.988 73.1196Z" fill="#003876"/>
<path d="M155.219 69.3382C155.188 68.7016 155.292 68.0657 155.526 67.4722C155.759 66.8787 156.116 66.341 156.573 65.8944C157.029 65.4478 157.576 65.1024 158.176 64.8809C158.776 64.6593 159.417 64.5667 160.056 64.6089C161.51 64.6089 162.763 65.0585 162.615 65.4951L162.45 65.9817C161.999 67.3167 161.51 65.6077 159.28 65.6077C157.487 65.6077 156.61 66.7676 156.61 68.5671C156.583 69.0853 156.662 69.6037 156.845 70.0898C157.027 70.576 157.308 71.0195 157.67 71.3929C158.032 71.7663 158.468 72.0615 158.949 72.2601C159.431 72.4587 159.948 72.5566 160.469 72.5475C161.175 72.4914 161.862 72.2919 162.487 71.9614C162.588 71.8981 162.851 72.1858 162.776 72.2976C162.081 73.041 161.169 73.5476 160.169 73.7453C158.063 73.7428 155.219 72.5204 155.219 69.3382Z" fill="#003876"/>
<path d="M174.223 73.5439H170.913C170.748 73.5439 170.738 73.1443 170.876 73.1196C171.34 73.0317 171.841 72.873 171.377 71.7961L171.239 71.4846C171.114 71.1846 170.901 71.1558 170.525 71.1558H167.965C167.589 71.1558 167.376 71.1804 167.251 71.4846L167.126 71.7961C166.686 72.8697 167.163 73.0292 167.765 73.1196C167.93 73.1443 167.89 73.5439 167.727 73.5439H165.023C164.873 73.5439 164.835 73.1443 164.985 73.1196C165.499 73.0317 165.8 72.8574 166.264 71.7961L168.382 66.955C168.739 66.3122 168.956 65.6024 169.021 64.8711C169.304 64.7282 169.62 64.6637 169.936 64.6845L172.991 71.7838C173.443 72.8451 173.744 73.044 174.245 73.1196C174.42 73.1443 174.373 73.5439 174.223 73.5439ZM170.726 70.2613L169.259 66.7676L167.78 70.2613C167.705 70.4364 167.893 70.4611 168.069 70.4611H170.438C170.613 70.4611 170.801 70.4373 170.726 70.2613Z" fill="#003876"/>
<path d="M184.429 73.4313L178.463 67.2165V71.959C178.463 72.8065 178.964 72.9454 179.679 73.1197C179.779 73.1443 179.729 73.5439 179.603 73.5439H176.631C176.531 73.5439 176.456 73.1567 176.568 73.1197C177.094 72.9446 177.596 72.8451 177.596 71.959V67.117C177.659 66.498 177.494 65.8773 177.132 65.3701C177.02 65.2205 176.907 65.1235 176.907 65.0832C176.903 65.0142 176.927 64.9466 176.974 64.8952C177.02 64.8438 177.085 64.8127 177.154 64.8087H178.082C178.137 64.8014 178.194 64.8078 178.246 64.8274C178.298 64.8471 178.345 64.8793 178.382 64.9213L184.223 71.0728V66.3813C184.223 65.4951 183.659 65.3948 183.007 65.2304C182.906 65.2049 182.957 64.8054 183.082 64.8054H186.055C186.156 64.8054 186.22 65.2049 186.118 65.2304C185.566 65.3948 185.09 65.4918 185.09 66.3813V71.2314C185.064 71.9665 185.115 72.7023 185.241 73.4272C185.29 73.6146 185.09 73.6639 184.89 73.6639C184.8 73.664 184.711 73.6429 184.631 73.6025C184.551 73.562 184.482 73.5034 184.429 73.4313Z" fill="#003876"/>
<path d="M197.366 73.5439H194.058C193.893 73.5439 193.882 73.1443 194.02 73.1196C194.484 73.0317 194.985 72.873 194.521 71.7961L194.383 71.4846C194.257 71.1845 194.044 71.1558 193.669 71.1558H191.109C190.733 71.1558 190.519 71.1804 190.395 71.4846L190.269 71.7961C189.831 72.8697 190.307 73.0292 190.908 73.1196C191.074 73.1443 191.034 73.5439 190.87 73.5439H188.164C188.013 73.5439 187.975 73.1443 188.126 73.1196C188.639 73.0317 188.941 72.8574 189.405 71.7961L191.523 66.955C191.879 66.3122 192.097 65.6024 192.162 64.8711C192.444 64.7282 192.76 64.6637 193.077 64.6845L196.132 71.7838C196.584 72.8451 196.884 73.044 197.385 73.1196C197.567 73.1443 197.517 73.5439 197.366 73.5439ZM193.869 70.2613L192.403 66.7676L190.924 70.2613C190.849 70.4364 191.037 70.4611 191.212 70.4611H193.581C193.756 70.4611 193.945 70.4373 193.869 70.2613Z" fill="#003876"/>
<path d="M45.5797 82.2191H0V79.7529H45.5797" fill="#EE2A24"/>
</svg>
