<svg width="75" height="27" viewBox="0 0 75 27" fill="none" xmlns="http://www.w3.org/2000/svg">
<path d="M3.95717 20.091C3.00915 19.5686 2.2284 18.7886 1.70519 17.841C1.14529 16.8114 0.863339 15.6537 0.887166 14.482C0.862764 13.3073 1.15242 12.1474 1.72619 11.122C2.26537 10.1716 3.06052 9.39166 4.02117 8.87097C5.0238 8.34866 6.13765 8.07593 7.26818 8.07593C8.3987 8.07593 9.51255 8.34866 10.5152 8.87097C11.4776 9.3906 12.2745 10.1702 12.8152 11.121C13.3895 12.1458 13.6798 13.3054 13.6562 14.48C13.6801 15.6571 13.3824 16.8185 12.7952 17.839C12.2412 18.7899 11.4352 19.5693 10.4662 20.091C9.45779 20.63 8.32948 20.9052 7.18618 20.891C6.0589 20.907 4.94661 20.6314 3.95717 20.091V20.091ZM8.78118 17.738C9.29391 17.4492 9.71103 17.0168 9.98119 16.494C10.2958 15.8701 10.4494 15.1774 10.4282 14.479C10.4606 13.9865 10.3952 13.4924 10.2355 13.0254C10.0759 12.5584 9.8253 12.1276 9.49819 11.758C9.20607 11.4504 8.85311 11.207 8.46178 11.0433C8.07045 10.8795 7.64931 10.7991 7.22518 10.807C6.80405 10.7979 6.38578 10.878 5.99782 11.0421C5.60987 11.2062 5.261 11.4505 4.97417 11.759C4.32812 12.5131 4.00291 13.4902 4.06817 14.481C4.00261 15.4677 4.31955 16.4418 4.95318 17.201C5.23448 17.5105 5.57922 17.7556 5.96389 17.9197C6.34856 18.0839 6.76411 18.1631 7.18218 18.152C7.74186 18.1534 8.2925 18.0108 8.78118 17.738Z" fill="#231F20"/>
<path d="M23.2964 8.57302C23.9575 8.90366 24.5269 9.39204 24.9544 9.99502V8.07803H28.1124V20.3C28.1302 21.5058 27.8937 22.7018 27.4184 23.81C26.9528 24.7174 26.2281 25.466 25.3364 25.961C24.3064 26.518 23.1479 26.7939 21.9774 26.761C20.438 26.8264 18.9185 26.3948 17.6434 25.53C17.0979 25.1445 16.6437 24.644 16.3128 24.0637C15.9819 23.4835 15.7824 22.8378 15.7284 22.172H18.8414C19.0083 22.7436 19.3895 23.2287 19.9054 23.526C20.506 23.8755 21.1929 24.0488 21.8874 24.026C22.2927 24.0428 22.6973 23.979 23.0778 23.8384C23.4584 23.6978 23.8073 23.4832 24.1044 23.207C24.7185 22.3678 25.0192 21.3399 24.9544 20.302V18.802C24.5204 19.4116 23.949 19.9104 23.2864 20.258C22.5394 20.6556 21.7034 20.8563 20.8574 20.841C19.8451 20.852 18.8507 20.5745 17.9904 20.041C17.11 19.4875 16.4004 18.7007 15.9404 17.768C15.4242 16.7209 15.1666 15.5653 15.1894 14.398C15.1668 13.2416 15.4237 12.0968 15.9384 11.061C16.3947 10.1383 17.1008 9.36225 17.9764 8.82101C18.8433 8.29586 19.8399 8.02396 20.8534 8.03603C21.6992 8.01424 22.5377 8.19852 23.2964 8.57302ZM24.5074 12.473C24.2297 11.9498 23.8103 11.5153 23.2974 11.219C22.8009 10.9307 22.2365 10.7803 21.6624 10.783C21.0966 10.7787 20.5401 10.9257 20.0504 11.209C19.544 11.5055 19.1288 11.9355 18.8504 12.452C18.5324 13.0471 18.3742 13.7145 18.3914 14.389C18.3766 15.0707 18.5349 15.7451 18.8514 16.349C19.1303 16.88 19.5486 17.3249 20.0614 17.636C20.5435 17.9294 21.0971 18.0841 21.6614 18.083C22.2355 18.0849 22.7998 17.9341 23.2964 17.646C23.8088 17.3494 24.2277 16.9149 24.5054 16.392C24.7999 15.7808 24.9529 15.111 24.9529 14.4325C24.9529 13.754 24.7999 13.0842 24.5054 12.473H24.5074Z" fill="#231F20"/>
<path d="M35.2034 10.844V16.844C35.1876 17.0076 35.2061 17.1727 35.2578 17.3287C35.3094 17.4847 35.3931 17.6282 35.5034 17.75C35.7971 17.9654 36.1599 18.065 36.5224 18.03H37.9814V20.672H36.0114C33.368 20.672 32.0464 19.3883 32.0464 16.821V10.842H30.3384V8.11902H32.0464V4.99402H35.2043V8.11902H37.9814V10.842L35.2034 10.844Z" fill="#231F20"/>
<path d="M43.9901 8.11798V20.673H40.8541V8.11902L43.9901 8.11798ZM43.9901 6.54999V3.41101H40.8521V6.54901L43.9901 6.54999Z" fill="#231F20"/>
<path d="M47.2132 11.098C47.7337 10.154 48.5115 9.37718 49.4562 8.85797C50.4634 8.31317 51.5942 8.03762 52.7392 8.05798C54.1436 8.00267 55.5276 8.40712 56.6812 9.20996C57.7401 10.0069 58.4821 11.1535 58.7752 12.446H55.2812C55.1148 11.9333 54.7858 11.4889 54.3442 11.18C53.8615 10.862 53.2919 10.7019 52.7142 10.722C52.297 10.7033 51.8813 10.7817 51.4996 10.9509C51.1178 11.12 50.7805 11.3754 50.5142 11.697C49.986 12.5186 49.7052 13.4747 49.7052 14.4515C49.7052 15.4282 49.986 16.3844 50.5142 17.206C50.781 17.5269 51.1184 17.7817 51.5001 17.9505C51.8817 18.1193 52.2973 18.1975 52.7142 18.179C53.2717 18.2313 53.8304 18.0911 54.2972 17.7818C54.764 17.4725 55.1109 17.0128 55.2802 16.479H58.7722C58.4608 17.7553 57.7192 18.8854 56.6722 19.679C55.5297 20.4998 54.147 20.9176 52.7412 20.867C51.5969 20.8885 50.4662 20.6151 49.4582 20.073C48.5136 19.5541 47.7357 18.7777 47.2152 17.834C46.6831 16.7901 46.4058 15.6351 46.4058 14.4635C46.4058 13.2919 46.6831 12.1369 47.2152 11.093L47.2132 11.098Z" fill="#231F20"/>
<path d="M65.667 0.665039H68.917L67.292 3.48004L65.667 6.29407L64.043 3.48004L62.418 0.665039H65.667Z" fill="#0064CE"/>
<path d="M74.773 10.9451L65.667 6.29407L68.154 10.946H74.776L74.773 10.9451Z" fill="#6BDB00"/>
<path d="M68.915 0.665039L65.667 6.29407L74.776 10.946L68.915 0.665039Z" fill="#00ADCA"/>
<path d="M65.667 21.2261H68.917L67.292 18.4111L65.667 15.597L64.043 18.4111L62.418 21.2261H65.667Z" fill="#ED2024"/>
<path d="M74.773 10.9451L65.667 15.597L68.154 10.9451H74.776H74.773Z" fill="#FFBA00"/>
<path d="M68.915 21.2261L65.667 15.597L74.776 10.9451L68.915 21.2261Z" fill="#FF6900"/>
</svg>
