<svg width="165" height="24" viewBox="0 0 165 24" fill="none" xmlns="http://www.w3.org/2000/svg">
<path d="M3.07143 17.0024C2.12341 16.48 1.34266 15.6999 0.819447 14.7524C0.259551 13.7228 -0.022403 12.5651 0.00142375 11.3934C-0.0229782 10.2186 0.26668 9.05872 0.840444 8.03337C1.37963 7.08298 2.17478 6.30302 3.13543 5.78233C4.13806 5.26002 5.25191 4.98728 6.38244 4.98728C7.51296 4.98728 8.62681 5.26002 9.62945 5.78233C10.5918 6.30195 11.3888 7.0816 11.9294 8.03233C12.5037 9.05719 12.794 10.2168 12.7704 11.3913C12.7944 12.5685 12.4967 13.7299 11.9094 14.7503C11.3555 15.7013 10.5495 16.4807 9.58043 17.0024C8.57205 17.5413 7.44373 17.8165 6.30044 17.8023C5.17315 17.8183 4.06087 17.5428 3.07143 17.0024V17.0024ZM7.89544 14.6493C8.40816 14.3605 8.82529 13.9282 9.09545 13.4054C9.41002 12.7814 9.56366 12.0888 9.54244 11.3904C9.5749 10.8979 9.50941 10.4038 9.34978 9.93675C9.19015 9.46971 8.93956 9.03895 8.61245 8.66935C8.32033 8.36176 7.96737 8.11836 7.57604 7.95463C7.18471 7.7909 6.76356 7.71044 6.33944 7.71836C5.91831 7.7093 5.50004 7.7894 5.11208 7.95347C4.72413 8.11755 4.37526 8.36185 4.08843 8.67033C3.44238 9.42443 3.11717 10.4015 3.18242 11.3924C3.11686 12.3791 3.4338 13.3531 4.06743 14.1123C4.34873 14.4218 4.69348 14.667 5.07815 14.8311C5.46281 14.9952 5.87837 15.0744 6.29644 15.0633C6.85612 15.0648 7.40676 14.9222 7.89544 14.6493Z" fill="white"/>
<path d="M22.41 5.48428C23.0711 5.81492 23.6405 6.3033 24.068 6.90627V4.98928H27.226V17.2113C27.2438 18.417 27.0073 19.613 26.532 20.7213C26.0664 21.6286 25.3417 22.3773 24.45 22.8723C23.42 23.4293 22.2615 23.7052 21.091 23.6723C19.5516 23.7376 18.0321 23.306 16.757 22.4412C16.2115 22.0558 15.7573 21.5552 15.4264 20.975C15.0955 20.3948 14.896 19.749 14.842 19.0833H17.955C18.1219 19.6549 18.5031 20.14 19.019 20.4373C19.6196 20.7868 20.3065 20.96 21.001 20.9373C21.4063 20.954 21.8109 20.8902 22.1914 20.7497C22.572 20.6091 22.9209 20.3945 23.218 20.1182C23.8321 19.279 24.1329 18.2512 24.068 17.2133V15.7133C23.634 16.3229 23.0626 16.8217 22.4 17.1693C21.653 17.5669 20.817 17.7676 19.971 17.7523C18.9587 17.7632 17.9643 17.4858 17.104 16.9523C16.2236 16.3987 15.514 15.6119 15.054 14.6793C14.5378 13.6322 14.2802 12.4765 14.303 11.3093C14.2804 10.1529 14.5373 9.00808 15.052 7.97225C15.5083 7.04959 16.2144 6.27351 17.09 5.73226C17.9569 5.20712 18.9535 4.93522 19.967 4.94729C20.8128 4.92549 21.6513 5.10978 22.41 5.48428ZM23.621 9.38424C23.3433 8.86103 22.9239 8.42652 22.411 8.13027C21.9145 7.842 21.3501 7.69151 20.776 7.6943C20.2102 7.68991 19.6537 7.83696 19.164 8.12026C18.6576 8.41673 18.2424 8.84672 17.964 9.36324C17.646 9.95833 17.4878 10.6258 17.505 11.3003C17.4902 11.982 17.6485 12.6563 17.965 13.2603C18.2439 13.7913 18.6622 14.2362 19.175 14.5473C19.6571 14.8406 20.2107 14.9953 20.775 14.9943C21.3491 14.9962 21.9134 14.8454 22.41 14.5573C22.9224 14.2607 23.3413 13.8262 23.619 13.3032C23.9135 12.692 24.0665 12.0223 24.0665 11.3438C24.0665 10.6653 23.9135 9.99547 23.619 9.38424H23.621Z" fill="white"/>
<path d="M34.317 7.75525V13.7552C34.3012 13.9188 34.3197 14.0839 34.3714 14.2399C34.423 14.3959 34.5067 14.5394 34.617 14.6613C34.9107 14.8766 35.2735 14.9763 35.636 14.9412H37.095V17.5833H35.125C32.4816 17.5833 31.16 16.2996 31.16 13.7322V7.75323H29.452V5.03027H31.16V1.90527H34.3179V5.03027H37.095V7.75323L34.317 7.75525Z" fill="white"/>
<path d="M43.104 5.02924V17.5842H39.968V5.03027L43.104 5.02924ZM43.104 3.46124V0.322266H39.966V3.46027L43.104 3.46124Z" fill="white"/>
<path d="M46.327 8.00922C46.8475 7.06522 47.6253 6.28844 48.57 5.76923C49.5772 5.22442 50.708 4.94888 51.853 4.96924C53.2574 4.91392 54.6414 5.31837 55.795 6.12122C56.8539 6.91812 57.5959 8.06477 57.889 9.35724H54.395C54.2286 8.8446 53.8996 8.40017 53.458 8.09125C52.9753 7.77324 52.4056 7.61318 51.828 7.63324C51.4108 7.61458 50.9951 7.69294 50.6134 7.86212C50.2316 8.0313 49.8943 8.28666 49.6279 8.60822C49.0998 9.42984 48.819 10.386 48.819 11.3627C48.819 12.3395 49.0998 13.2956 49.6279 14.1172C49.8947 14.4381 50.2322 14.693 50.6138 14.8618C50.9955 15.0306 51.4111 15.1088 51.828 15.0903C52.3855 15.1425 52.9441 15.0023 53.411 14.6931C53.8778 14.3838 54.2247 13.924 54.394 13.3903H57.886C57.5746 14.6666 56.833 15.7967 55.786 16.5903C54.6435 17.411 53.2608 17.8289 51.855 17.7783C50.7107 17.7998 49.58 17.5263 48.572 16.9843C47.6274 16.4654 46.8495 15.6889 46.329 14.7452C45.7969 13.7014 45.5196 12.5464 45.5196 11.3748C45.5196 10.2031 45.7969 9.04813 46.329 8.00427L46.327 8.00922Z" fill="white"/>
<path d="M65.0269 0.322266H68.2769L66.6519 3.13727L65.0269 5.95129L63.4029 3.13727L61.7779 0.322266H65.0269Z" fill="#0064CE"/>
<path d="M74.133 10.6022L65.0269 5.95117L67.5139 10.6031H74.1359L74.133 10.6022Z" fill="#6BDB00"/>
<path d="M68.2749 0.322266L65.0269 5.95129L74.1359 10.6033L68.2749 0.322266Z" fill="#00ADCA"/>
<path d="M65.0269 20.8829H68.2769L66.6519 18.0679L65.0269 15.2539L63.4029 18.0679L61.7779 20.8829H65.0269Z" fill="#ED2024"/>
<path d="M74.133 10.6025L65.0269 15.2545L67.5139 10.6025H74.1359H74.133Z" fill="#FFBA00"/>
<path d="M68.2749 20.8835L65.0269 15.2545L74.1359 10.6025L68.2749 20.8835Z" fill="#FF6900"/>
</svg>
