<svg width="187" height="44" viewBox="0 0 187 44" fill="none" xmlns="http://www.w3.org/2000/svg">
<path d="M19.1369 5.979V5.57639H19.9504V5.04931H19.616V5.38189H19.1369V4.5125H19.2164V4H18.8667V4.5125H18.9462V5.38773H18.4671V5.05028H18.1327V5.57639H18.9462V5.979C18.2139 6.01013 17.5229 6.33132 17.0213 6.87365C16.5197 7.41599 16.2476 8.13625 16.2632 8.87991H21.8121C21.8271 8.13775 21.5558 7.41903 21.056 6.87707C20.5562 6.33511 19.8675 6.01284 19.1369 5.979Z" fill="#003876"/>
<path d="M15.5353 9.85372H22.5301C22.5588 9.85372 22.5863 9.84215 22.6066 9.82154C22.6269 9.80093 22.6384 9.77298 22.6384 9.74383V9.32178C22.6384 9.29263 22.6269 9.26468 22.6066 9.24407C22.5863 9.22346 22.5588 9.21189 22.5301 9.21189H15.5353C15.5066 9.21189 15.479 9.22346 15.4587 9.24407C15.4384 9.26468 15.427 9.29263 15.427 9.32178V9.74383C15.4269 9.7583 15.4296 9.77265 15.435 9.78604C15.4404 9.79943 15.4483 9.8116 15.4584 9.82183C15.4685 9.83206 15.4805 9.84015 15.4937 9.84562C15.5069 9.8511 15.521 9.85385 15.5353 9.85372Z" fill="#003876"/>
<path d="M15.5353 15.2301H22.5301C22.5588 15.2301 22.5863 15.2185 22.6067 15.1979C22.627 15.1773 22.6384 15.1493 22.6384 15.1202V14.6981C22.6385 14.6831 22.6356 14.6682 22.6299 14.6544C22.6242 14.6405 22.6157 14.628 22.605 14.6177C22.5943 14.6073 22.5816 14.5992 22.5678 14.594C22.5539 14.5888 22.5391 14.5865 22.5243 14.5873H15.5353C15.5066 14.5873 15.479 14.5989 15.4587 14.6195C15.4384 14.6401 15.427 14.668 15.427 14.6972V15.1192C15.4268 15.1338 15.4294 15.1482 15.4347 15.1617C15.44 15.1752 15.448 15.1875 15.4581 15.1978C15.4682 15.2082 15.4802 15.2164 15.4935 15.2219C15.5067 15.2274 15.521 15.2302 15.5353 15.2301Z" fill="#003876"/>
<path d="M16.7951 10.1692C16.7683 10.169 16.7417 10.1743 16.7169 10.1847C16.6921 10.195 16.6695 10.2103 16.6505 10.2296C16.6316 10.2488 16.6165 10.2717 16.6063 10.2969C16.5961 10.3221 16.5909 10.3491 16.591 10.3763V14.0717C16.5909 14.099 16.5961 14.126 16.6063 14.1512C16.6165 14.1763 16.6316 14.1992 16.6505 14.2185C16.6695 14.2378 16.6921 14.253 16.7169 14.2634C16.7417 14.2737 16.7683 14.279 16.7951 14.2789H17.6422C17.6689 14.2789 17.6954 14.2735 17.7201 14.2631C17.7449 14.2527 17.7673 14.2374 17.7862 14.2181C17.805 14.1989 17.82 14.1761 17.8301 14.1509C17.8403 14.1258 17.8454 14.0989 17.8453 14.0717V10.3763C17.8454 10.3492 17.8403 10.3222 17.8301 10.2971C17.82 10.272 17.805 10.2491 17.7862 10.2299C17.7673 10.2107 17.7449 10.1954 17.7201 10.185C17.6954 10.1745 17.6689 10.1692 17.6422 10.1692H16.7951Z" fill="#003876"/>
<path d="M18.6044 10.1692C18.5776 10.169 18.551 10.1743 18.5261 10.1847C18.5013 10.195 18.4788 10.2103 18.4598 10.2296C18.4408 10.2488 18.4258 10.2717 18.4156 10.2969C18.4054 10.3221 18.4002 10.3491 18.4003 10.3763V14.0717C18.4002 14.099 18.4054 14.126 18.4156 14.1512C18.4258 14.1763 18.4408 14.1992 18.4598 14.2185C18.4788 14.2378 18.5013 14.253 18.5261 14.2634C18.551 14.2737 18.5776 14.279 18.6044 14.2789H19.4476C19.4744 14.279 19.501 14.2737 19.5259 14.2634C19.5507 14.253 19.5732 14.2378 19.5922 14.2185C19.6112 14.1992 19.6262 14.1763 19.6364 14.1512C19.6466 14.126 19.6518 14.099 19.6517 14.0717V10.3763C19.6518 10.3491 19.6466 10.3221 19.6364 10.2969C19.6262 10.2717 19.6112 10.2488 19.5922 10.2296C19.5732 10.2103 19.5507 10.195 19.5259 10.1847C19.501 10.1743 19.4744 10.169 19.4476 10.1692H18.6044Z" fill="#003876"/>
<path d="M20.3874 10.1692C20.3606 10.169 20.334 10.1743 20.3092 10.1847C20.2844 10.195 20.2618 10.2103 20.2428 10.2296C20.2239 10.2488 20.2088 10.2717 20.1986 10.2969C20.1884 10.3221 20.1832 10.3491 20.1833 10.3763V14.0717C20.1832 14.099 20.1884 14.126 20.1986 14.1512C20.2088 14.1763 20.2239 14.1992 20.2428 14.2185C20.2618 14.2378 20.2844 14.253 20.3092 14.2634C20.334 14.2737 20.3606 14.279 20.3874 14.2789H21.2306C21.2575 14.279 21.2841 14.2737 21.3089 14.2634C21.3337 14.253 21.3563 14.2378 21.3752 14.2185C21.3942 14.1992 21.4092 14.1763 21.4195 14.1512C21.4297 14.126 21.4349 14.099 21.4347 14.0717V10.3763C21.4349 10.3491 21.4297 10.3221 21.4195 10.2969C21.4092 10.2717 21.3942 10.2488 21.3752 10.2296C21.3563 10.2103 21.3337 10.195 21.3089 10.1847C21.2841 10.1743 21.2575 10.169 21.2306 10.1692H20.3874Z" fill="#003876"/>
<path d="M4.57921 28.7476C5.20662 25.8093 6.42786 23.035 8.16572 20.6002C9.58346 18.6797 11.3339 17.0373 13.3313 15.7533C10.173 16.9449 7.38841 18.9763 5.26911 21.6349C2.66221 24.9744 1.21662 29.0951 1.1575 33.3552H3.85577C3.96307 31.8008 4.20516 30.2589 4.57921 28.7476Z" fill="#003876"/>
<path d="M29.9444 20.5981C31.6824 23.0329 32.9036 25.8072 33.5309 28.7456C33.905 30.2572 34.1471 31.7994 34.2543 33.3542H36.9516C36.8919 29.094 35.446 24.9733 32.8391 21.6338C30.7195 18.977 27.9353 16.9473 24.7778 15.7571C26.7753 17.0391 28.526 18.6795 29.9444 20.5981Z" fill="#003876"/>
<path d="M15.7978 16.4257C14.2584 17.1909 12.838 18.181 11.5817 19.3645C6.34043 24.3242 5.73102 31.1462 5.62657 33.3556H10.2987C10.1725 29.2822 10.9835 25.235 12.6674 21.5351C13.5084 19.7125 14.5592 17.9974 15.7978 16.4257Z" fill="#003876"/>
<path d="M32.3781 33.3556C32.2736 31.1462 31.6642 24.3232 26.4229 19.3645C25.1667 18.181 23.7462 17.1909 22.2069 16.4257C23.4435 17.9975 24.4927 19.7122 25.3325 21.5342C27.0163 25.234 27.8273 29.2812 27.7011 33.3547L32.3781 33.3556Z" fill="#003876"/>
<path d="M18.1663 33.3556V16.4257C16.4837 18.2689 15.1077 20.3776 14.092 22.669C12.6174 26.0246 11.9393 29.6846 12.1124 33.3547L18.1663 33.3556Z" fill="#003876"/>
<path d="M19.9265 16.4257V33.3556H25.9803C26.1534 29.6856 25.4754 26.0256 24.0007 22.67C22.9846 20.3785 21.6086 18.2696 19.9265 16.4257Z" fill="#003876"/>
<path d="M34.2918 34.7191V34.1454C34.2915 34.0874 34.2687 34.0319 34.2284 33.9909C34.188 33.95 34.1333 33.9268 34.0762 33.9266H32.5431C32.486 33.9268 32.4313 33.95 32.3909 33.9909C32.3505 34.0319 32.3277 34.0874 32.3275 34.1454V34.7191H27.8317V34.1454C27.8314 34.0874 27.8086 34.0319 27.7682 33.9909C27.7279 33.95 27.6732 33.9268 27.6161 33.9266H26.083C26.0259 33.9268 25.9712 33.95 25.9308 33.9909C25.8904 34.0319 25.8676 34.0874 25.8674 34.1454V34.7191H19.9831V34.1454C19.9829 34.0874 19.9601 34.0319 19.9197 33.9909C19.8793 33.95 19.8246 33.9268 19.7675 33.9266H18.2344C18.1773 33.9268 18.1226 33.95 18.0822 33.9909C18.0419 34.0319 18.0191 34.0874 18.0188 34.1454V34.7191H12.1987V34.1454C12.1985 34.0874 12.1757 34.0319 12.1353 33.9909C12.0949 33.95 12.0403 33.9268 11.9832 33.9266H10.4443C10.3872 33.9268 10.3325 33.95 10.2921 33.9909C10.2518 34.0319 10.229 34.0874 10.2287 34.1454V34.7191H5.7252V34.1454C5.72495 34.0874 5.70215 34.0319 5.66178 33.9909C5.6214 33.95 5.56671 33.9268 5.50961 33.9266H3.9765C3.9194 33.9268 3.86471 33.95 3.82433 33.9909C3.78395 34.0319 3.76116 34.0874 3.76091 34.1454V34.7191H0V35.4047H38V34.7191H34.2918Z" fill="#003876"/>
<path d="M5.48654 37.9123C5.54931 37.9123 5.6095 37.887 5.65389 37.842C5.69827 37.7969 5.72321 37.7358 5.72321 37.6721V35.8487H3.75604V37.676C3.75604 37.7397 3.78097 37.8008 3.82536 37.8459C3.86974 37.8909 3.92994 37.9162 3.99271 37.9162L5.48654 37.9123Z" fill="#003876"/>
<path d="M11.9623 37.9123C12.0251 37.9123 12.0853 37.887 12.1296 37.842C12.174 37.7969 12.199 37.7358 12.199 37.6721V35.8487H10.2318V37.676C10.2318 37.7397 10.2567 37.8008 10.3011 37.8459C10.3455 37.8909 10.4057 37.9162 10.4685 37.9162L11.9623 37.9123Z" fill="#003876"/>
<path d="M19.7462 37.9123C19.809 37.9123 19.8692 37.887 19.9136 37.842C19.9579 37.7969 19.9829 37.7358 19.9829 37.6721V35.8487H18.0157V37.676C18.0157 37.7397 18.0406 37.8008 18.085 37.8459C18.1294 37.8909 18.1896 37.9162 18.2524 37.9162L19.7462 37.9123Z" fill="#003876"/>
<path d="M27.598 37.9123C27.6608 37.9123 27.721 37.887 27.7654 37.842C27.8098 37.7969 27.8347 37.7358 27.8347 37.6721V35.8487H25.8646V37.676C25.8646 37.7397 25.8896 37.8008 25.934 37.8459C25.9783 37.8909 26.0385 37.9162 26.1013 37.9162L27.598 37.9123Z" fill="#003876"/>
<path d="M34.055 37.9123C34.1178 37.9123 34.178 37.887 34.2223 37.842C34.2667 37.7969 34.2917 37.7358 34.2917 37.6721V35.8487H32.3245V37.676C32.3245 37.7397 32.3494 37.8008 32.3938 37.8459C32.4382 37.8909 32.4984 37.9162 32.5612 37.9162L34.055 37.9123Z" fill="#003876"/>
<path d="M37.7413 38.4927H0.255837C0.188151 38.4927 0.123222 38.5199 0.075271 38.5684C0.0273196 38.6169 0.000253508 38.6826 0 38.7513V39.7404C0 39.8092 0.0269542 39.8753 0.074933 39.924C0.122912 39.9726 0.187985 40 0.255837 40H37.7403C37.8082 40 37.8733 39.9726 37.9212 39.924C37.9692 39.8753 37.9962 39.8092 37.9962 39.7404V38.7513C37.9962 38.6827 37.9693 38.6169 37.9215 38.5684C37.8737 38.5199 37.8089 38.4927 37.7413 38.4927Z" fill="#003876"/>
<path d="M51.63 4.03C51.514 3.786 51.346 3.598 51.126 3.466C50.906 3.33 50.65 3.262 50.358 3.262C50.066 3.262 49.802 3.33 49.566 3.466C49.334 3.598 49.15 3.79 49.014 4.042C48.882 4.29 48.816 4.578 48.816 4.906C48.816 5.234 48.882 5.522 49.014 5.77C49.15 6.018 49.334 6.21 49.566 6.346C49.802 6.478 50.066 6.544 50.358 6.544C50.766 6.544 51.102 6.422 51.366 6.178C51.63 5.934 51.784 5.604 51.828 5.188H50.16V4.744H52.41V5.164C52.378 5.508 52.27 5.824 52.086 6.112C51.902 6.396 51.66 6.622 51.36 6.79C51.06 6.954 50.726 7.036 50.358 7.036C49.97 7.036 49.616 6.946 49.296 6.766C48.976 6.582 48.722 6.328 48.534 6.004C48.35 5.68 48.258 5.314 48.258 4.906C48.258 4.498 48.35 4.132 48.534 3.808C48.722 3.48 48.976 3.226 49.296 3.046C49.616 2.862 49.97 2.77 50.358 2.77C50.802 2.77 51.194 2.88 51.534 3.1C51.878 3.32 52.128 3.63 52.284 4.03H51.63ZM55.2679 7.042C54.8799 7.042 54.5259 6.952 54.2059 6.772C53.8859 6.588 53.6319 6.334 53.4439 6.01C53.2599 5.682 53.1679 5.314 53.1679 4.906C53.1679 4.498 53.2599 4.132 53.4439 3.808C53.6319 3.48 53.8859 3.226 54.2059 3.046C54.5259 2.862 54.8799 2.77 55.2679 2.77C55.6599 2.77 56.0159 2.862 56.3359 3.046C56.6559 3.226 56.9079 3.478 57.0919 3.802C57.2759 4.126 57.3679 4.494 57.3679 4.906C57.3679 5.318 57.2759 5.686 57.0919 6.01C56.9079 6.334 56.6559 6.588 56.3359 6.772C56.0159 6.952 55.6599 7.042 55.2679 7.042ZM55.2679 6.568C55.5599 6.568 55.8219 6.5 56.0539 6.364C56.2899 6.228 56.4739 6.034 56.6059 5.782C56.7419 5.53 56.8099 5.238 56.8099 4.906C56.8099 4.57 56.7419 4.278 56.6059 4.03C56.4739 3.778 56.2919 3.584 56.0599 3.448C55.8279 3.312 55.5639 3.244 55.2679 3.244C54.9719 3.244 54.7079 3.312 54.4759 3.448C54.2439 3.584 54.0599 3.778 53.9239 4.03C53.7919 4.278 53.7259 4.57 53.7259 4.906C53.7259 5.238 53.7919 5.53 53.9239 5.782C54.0599 6.034 54.2439 6.228 54.4759 6.364C54.7119 6.5 54.9759 6.568 55.2679 6.568ZM60.4227 4.846C60.5747 4.87 60.7127 4.932 60.8367 5.032C60.9647 5.132 61.0647 5.256 61.1367 5.404C61.2127 5.552 61.2507 5.71 61.2507 5.878C61.2507 6.09 61.1967 6.282 61.0887 6.454C60.9807 6.622 60.8227 6.756 60.6147 6.856C60.4107 6.952 60.1687 7 59.8887 7H58.3287V2.818H59.8287C60.1127 2.818 60.3547 2.866 60.5547 2.962C60.7547 3.054 60.9047 3.18 61.0047 3.34C61.1047 3.5 61.1547 3.68 61.1547 3.88C61.1547 4.128 61.0867 4.334 60.9507 4.498C60.8187 4.658 60.6427 4.774 60.4227 4.846ZM58.8747 4.624H59.7927C60.0487 4.624 60.2467 4.564 60.3867 4.444C60.5267 4.324 60.5967 4.158 60.5967 3.946C60.5967 3.734 60.5267 3.568 60.3867 3.448C60.2467 3.328 60.0447 3.268 59.7807 3.268H58.8747V4.624ZM59.8407 6.55C60.1127 6.55 60.3247 6.486 60.4767 6.358C60.6287 6.23 60.7047 6.052 60.7047 5.824C60.7047 5.592 60.6247 5.41 60.4647 5.278C60.3047 5.142 60.0907 5.074 59.8227 5.074H58.8747V6.55H59.8407ZM62.7944 2.818V7H62.2484V2.818H62.7944ZM64.511 3.262V4.66H66.035V5.11H64.511V6.55H66.215V7H63.965V2.812H66.215V3.262H64.511ZM69.4831 7L68.4871 5.29H67.8271V7H67.2811V2.818H68.6311C68.9471 2.818 69.2131 2.872 69.4291 2.98C69.6491 3.088 69.8131 3.234 69.9211 3.418C70.0291 3.602 70.0831 3.812 70.0831 4.048C70.0831 4.336 69.9991 4.59 69.8311 4.81C69.6671 5.03 69.4191 5.176 69.0871 5.248L70.1371 7H69.4831ZM67.8271 4.852H68.6311C68.9271 4.852 69.1491 4.78 69.2971 4.636C69.4451 4.488 69.5191 4.292 69.5191 4.048C69.5191 3.8 69.4451 3.608 69.2971 3.472C69.1531 3.336 68.9311 3.268 68.6311 3.268H67.8271V4.852ZM74.4595 7H73.9135L71.7175 3.67V7H71.1715V2.812H71.7175L73.9135 6.136V2.812H74.4595V7ZM77.5263 7.042C77.1383 7.042 76.7843 6.952 76.4643 6.772C76.1443 6.588 75.8903 6.334 75.7023 6.01C75.5183 5.682 75.4263 5.314 75.4263 4.906C75.4263 4.498 75.5183 4.132 75.7023 3.808C75.8903 3.48 76.1443 3.226 76.4643 3.046C76.7843 2.862 77.1383 2.77 77.5263 2.77C77.9183 2.77 78.2743 2.862 78.5943 3.046C78.9143 3.226 79.1663 3.478 79.3503 3.802C79.5343 4.126 79.6263 4.494 79.6263 4.906C79.6263 5.318 79.5343 5.686 79.3503 6.01C79.1663 6.334 78.9143 6.588 78.5943 6.772C78.2743 6.952 77.9183 7.042 77.5263 7.042ZM77.5263 6.568C77.8183 6.568 78.0803 6.5 78.3123 6.364C78.5483 6.228 78.7323 6.034 78.8643 5.782C79.0003 5.53 79.0683 5.238 79.0683 4.906C79.0683 4.57 79.0003 4.278 78.8643 4.03C78.7323 3.778 78.5503 3.584 78.3183 3.448C78.0863 3.312 77.8223 3.244 77.5263 3.244C77.2303 3.244 76.9663 3.312 76.7343 3.448C76.5023 3.584 76.3183 3.778 76.1823 4.03C76.0503 4.278 75.9843 4.57 75.9843 4.906C75.9843 5.238 76.0503 5.53 76.1823 5.782C76.3183 6.034 76.5023 6.228 76.7343 6.364C76.9703 6.5 77.2343 6.568 77.5263 6.568ZM83.7287 2.818C84.1847 2.818 84.5787 2.904 84.9107 3.076C85.2467 3.244 85.5027 3.486 85.6787 3.802C85.8587 4.118 85.9487 4.49 85.9487 4.918C85.9487 5.346 85.8587 5.718 85.6787 6.034C85.5027 6.346 85.2467 6.586 84.9107 6.754C84.5787 6.918 84.1847 7 83.7287 7H82.4267V2.818H83.7287ZM83.7287 6.55C84.2687 6.55 84.6807 6.408 84.9647 6.124C85.2487 5.836 85.3907 5.434 85.3907 4.918C85.3907 4.398 85.2467 3.992 84.9587 3.7C84.6747 3.408 84.2647 3.262 83.7287 3.262H82.9727V6.55H83.7287ZM87.4549 3.262V4.66H88.9789V5.11H87.4549V6.55H89.1589V7H86.9089V2.812H89.1589V3.262H87.4549ZM92.6107 6.556H94.0747V7H92.0647V2.818H92.6107V6.556ZM97.3665 6.07H95.5425L95.2065 7H94.6305L96.1425 2.842H96.7725L98.2785 7H97.7025L97.3665 6.07ZM97.2105 5.626L96.4545 3.514L95.6985 5.626H97.2105ZM53.936 17.04C53.992 17.016 54 16.816 53.936 16.816C53.72 16.816 53.52 16.736 53.304 16.464L52.056 14.904C51.72 14.48 51.536 14.368 51.256 14.368V14.32C51.84 14.28 52.64 13.832 52.64 12.864C52.64 11.856 51.784 11.384 50.672 11.384C50.312 11.384 49.824 11.432 49.304 11.432C49.08 11.432 48.72 11.424 48.4 11.384C48.328 11.376 48.288 11.6 48.352 11.616C48.744 11.72 49.032 11.872 49.032 12.4V16.048C49.032 16.568 48.744 16.712 48.352 16.768C48.288 16.776 48.336 17 48.4 17H50.656C50.72 17 50.76 16.776 50.704 16.768C50.16 16.696 49.8 16.6 49.8 16.048V14.472C50.4 14.48 50.856 14.568 51.176 14.984L52.44 16.592C52.856 17.136 53.512 17.216 53.936 17.04ZM49.8 14.136V12.4C49.8 11.944 49.984 11.752 50.48 11.752C51.232 11.752 51.824 12.192 51.824 13.064C51.824 13.928 51.264 14.136 50.064 14.136H49.8ZM54.3016 17.016C55.0456 16.944 55.8056 16.968 56.5496 16.968C57.2376 16.968 57.7816 16.992 58.1416 17.016C58.6216 17 58.9496 16.272 58.9496 15.808C58.9496 15.656 58.7656 15.64 58.7016 15.744C58.5016 16.096 58.1176 16.6 56.7816 16.6C56.0856 16.6 55.8616 16.456 55.8616 15.992V14.584C55.8616 14.376 55.9656 14.336 56.1256 14.336H56.2456C56.7416 14.336 57.1496 14.44 57.3416 14.68C57.4296 14.792 57.5336 14.808 57.5976 14.688L58.0696 13.68C58.1336 13.528 57.9656 13.512 57.8936 13.584C57.5336 13.936 57.0056 13.976 56.2696 13.976H56.1256C55.9656 13.976 55.8616 13.936 55.8616 13.728V12.392C55.8616 11.936 56.0456 11.792 56.6696 11.792C57.6936 11.792 57.9496 12.072 58.0616 12.44C58.0936 12.552 58.2856 12.552 58.3096 12.44L58.5096 11.688C58.5576 11.512 58.5496 11.384 58.3656 11.384C57.7496 11.4 57.1976 11.432 56.4696 11.432C55.8296 11.432 55.0456 11.432 54.4536 11.384C54.3736 11.376 54.3416 11.608 54.4056 11.624C54.7576 11.704 55.0936 11.848 55.0936 12.392V15.992C55.0936 16.584 54.7256 16.656 54.2536 16.776C54.1896 16.792 54.2216 17.024 54.3016 17.016ZM59.5916 17H61.8476C61.9116 17 61.9516 16.776 61.8956 16.768C61.3516 16.696 60.9916 16.6 60.9916 16.048V14.832C62.7436 15.096 64.0796 14.544 64.0796 13.096C64.0796 11.832 63.0716 11.384 61.8956 11.384C61.4876 11.384 61.0156 11.432 60.4956 11.432C60.2716 11.432 59.9116 11.424 59.5916 11.384C59.5196 11.376 59.4796 11.6 59.5436 11.616C59.9356 11.72 60.2236 11.872 60.2236 12.4V16.048C60.2236 16.568 59.9356 16.712 59.5436 16.768C59.4796 16.776 59.5276 17 59.5916 17ZM60.9916 14.48V12.4C60.9916 11.944 61.1596 11.752 61.7436 11.752C62.5356 11.752 63.2556 12.184 63.2556 13.272C63.2556 14.416 62.4396 14.688 60.9916 14.48ZM67.7046 17.128C68.9526 17.128 69.8966 16.376 69.8966 14.912V12.352C69.8966 11.792 70.2166 11.68 70.5526 11.632C70.6166 11.624 70.5686 11.4 70.5046 11.4H68.7846C68.7206 11.4 68.6806 11.624 68.7366 11.632C69.1286 11.688 69.4326 11.824 69.4326 12.352V14.96C69.4326 16.104 68.7046 16.664 67.7686 16.664C66.8486 16.664 66.1766 16.104 66.1766 14.96V12.352C66.1766 11.792 66.4966 11.68 66.8166 11.632C66.8806 11.624 66.8326 11.4 66.7686 11.4H64.7606C64.6966 11.4 64.6486 11.624 64.7126 11.632C65.0886 11.68 65.3766 11.832 65.3766 12.352V14.92C65.3766 16.536 66.6086 17.128 67.7046 17.128ZM67.1126 10.512C67.0326 10.624 67.2806 10.832 67.3846 10.752L68.4486 9.944C68.6406 9.792 68.0086 9.224 67.8646 9.432L67.1126 10.512ZM71.0616 17.016C71.4376 16.976 71.8296 16.968 72.2376 16.968C72.7416 16.968 73.2456 17.016 73.6296 17.016C75.0136 17.016 75.8536 16.36 75.8536 15.4C75.8536 14.504 75.1416 13.952 74.4216 13.952V13.912C74.9016 13.816 75.4216 13.392 75.4136 12.712C75.4136 11.824 74.5496 11.384 73.4936 11.384C73.1336 11.384 72.6536 11.432 72.1256 11.432C71.9016 11.432 71.5416 11.424 71.2056 11.384C71.1416 11.376 71.1016 11.608 71.1656 11.624C71.5176 11.704 71.8536 11.848 71.8536 12.392V15.992C71.8536 16.584 71.4856 16.656 71.0136 16.776C70.9496 16.792 70.9816 17.024 71.0616 17.016ZM72.6216 15.992V14.192H73.4936C74.2856 14.192 75.0136 14.496 75.0136 15.544C75.0136 16.384 74.5416 16.648 73.6696 16.648C72.8776 16.648 72.6216 16.44 72.6216 15.992ZM72.6216 13.832V12.392C72.6216 11.912 72.7736 11.752 73.2856 11.752C73.9576 11.752 74.6216 12.024 74.6216 12.872C74.6216 13.592 74.1496 13.832 73.4936 13.832H72.6216ZM76.2941 17.016C77.0381 16.944 77.7981 16.968 78.5421 16.968C79.2301 16.968 79.7741 16.992 80.1341 17.016C80.6141 17 80.9421 16.272 80.9421 15.808C80.9421 15.656 80.7581 15.64 80.6941 15.744C80.4941 16.096 80.1101 16.6 78.7741 16.6C78.0781 16.6 77.8541 16.456 77.8541 15.992V12.352C77.8541 11.792 78.1741 11.68 78.5181 11.632C78.5741 11.624 78.5341 11.4 78.4701 11.4H76.4381C76.3821 11.4 76.3341 11.624 76.3981 11.632C76.7501 11.68 77.0861 11.792 77.0861 12.352V15.992C77.0861 16.584 76.7181 16.656 76.2461 16.776C76.1821 16.792 76.2141 17.024 76.2941 17.016ZM81.4278 17H83.4438C83.5078 17 83.5558 16.776 83.4918 16.768C83.1478 16.72 82.8278 16.608 82.8278 16.048V12.352C82.8278 11.792 83.1478 11.68 83.4918 11.632C83.5558 11.624 83.5078 11.4 83.4438 11.4H81.4278C81.3638 11.4 81.3158 11.624 81.3798 11.632C81.7718 11.688 82.0598 11.832 82.0598 12.352V16.048C82.0598 16.568 81.7718 16.712 81.3798 16.768C81.3158 16.776 81.3638 17 81.4278 17ZM87.3923 17.128C87.6083 17.128 88.6483 16.696 88.9923 16.2C89.0403 16.128 88.8963 15.976 88.8323 16.016C88.2963 16.352 87.6723 16.456 87.5363 16.456C86.3283 16.456 84.9763 15.624 84.9763 13.832C84.9763 12.584 85.6483 11.832 86.8243 11.832C88.1683 11.832 88.5683 12.832 88.8003 12.112L88.8883 11.832C88.9763 11.552 88.1683 11.272 87.2643 11.272C85.0723 11.272 84.2003 12.888 84.2003 14.288C84.2003 16.336 86.0483 17.128 87.3923 17.128ZM89.4527 17H91.1167C91.2207 17 91.2367 16.768 91.1407 16.752C90.7407 16.688 90.4367 16.6 90.7327 15.88L90.8607 15.568C90.9407 15.384 91.1247 15.384 91.3647 15.384H93.0447C93.3167 15.384 93.5007 15.384 93.5727 15.568L93.7087 15.88C94.0047 16.584 93.7007 16.704 93.3967 16.752C93.3007 16.768 93.3167 17 93.4207 17H95.3567C95.4527 17 95.4847 16.768 95.3727 16.752C95.0527 16.704 94.8607 16.576 94.5567 15.872L92.6047 11.32C92.5807 11.264 92.0207 11.392 92.0207 11.44C92.0207 11.744 91.9247 12.104 91.6127 12.808L90.2607 15.88C89.9567 16.576 89.7647 16.704 89.4287 16.752C89.3247 16.768 89.3487 17 89.4527 17ZM91.1647 14.872L92.2287 12.352L93.2847 14.872C93.3327 14.976 93.1967 14.992 93.0767 14.992H91.3727C91.2447 14.992 91.1167 14.976 91.1647 14.872ZM97.3238 17.016C97.6998 16.976 98.0918 16.968 98.4998 16.968C99.0038 16.968 99.4998 17.016 99.8918 17.016C101.852 17.016 102.884 15.664 102.884 14.088C102.884 12.528 101.892 11.384 99.8998 11.384C99.4758 11.384 98.9158 11.432 98.3878 11.432C98.1398 11.432 97.8038 11.424 97.4758 11.384C97.3958 11.376 97.3638 11.608 97.4278 11.624C97.7798 11.712 98.1158 11.848 98.1158 12.392V15.992C98.1158 16.584 97.7478 16.656 97.2758 16.776C97.2118 16.792 97.2438 17.024 97.3238 17.016ZM98.8838 15.992V12.392C98.8838 11.952 99.0518 11.76 99.6918 11.76C101.252 11.76 102.108 12.992 102.108 14.448C102.108 15.872 101.308 16.64 99.8838 16.64C99.0998 16.64 98.8838 16.44 98.8838 15.992ZM106.518 17.128C108.27 17.128 109.39 15.784 109.39 14.168C109.39 12.512 108.206 11.272 106.534 11.272C104.782 11.272 103.646 12.616 103.646 14.224C103.646 15.88 104.846 17.128 106.518 17.128ZM104.422 13.824C104.422 12.208 105.486 11.736 106.246 11.736C107.47 11.736 108.63 12.896 108.63 14.568C108.63 16.192 107.55 16.664 106.798 16.664C105.566 16.664 104.422 15.504 104.422 13.824ZM110.112 17H111.672C111.736 17 111.784 16.776 111.72 16.768C111.416 16.728 111.16 16.568 111.184 16.048L111.312 13.12L113.232 16.784C113.28 16.88 113.344 16.928 113.448 16.928C113.56 16.928 113.68 16.872 113.696 16.784C113.72 16.64 113.864 16.264 114 15.992L115.448 13.064L115.592 16.048C115.616 16.592 115.344 16.72 115.064 16.768C115.008 16.776 115.056 17 115.112 17H116.984C117.048 17 117.096 16.776 117.032 16.768C116.68 16.72 116.392 16.608 116.36 16.048L116.128 11.408C116.12 11.288 115.872 11.288 115.808 11.4L113.624 15.832L111.296 11.4C111.232 11.288 110.984 11.288 110.976 11.4L110.744 16.048C110.712 16.608 110.408 16.728 110.064 16.768C110 16.776 110.048 17 110.112 17ZM117.704 17H119.72C119.784 17 119.832 16.776 119.768 16.768C119.424 16.72 119.104 16.608 119.104 16.048V12.352C119.104 11.792 119.424 11.68 119.768 11.632C119.832 11.624 119.784 11.4 119.72 11.4H117.704C117.64 11.4 117.592 11.624 117.656 11.632C118.048 11.688 118.336 11.832 118.336 12.352V16.048C118.336 16.568 118.048 16.712 117.656 16.768C117.592 16.776 117.64 17 117.704 17ZM125.612 17.08C125.708 17.08 125.844 17.048 125.804 16.92C125.724 16.632 125.708 16.056 125.708 15.568V12.36C125.708 11.8 126.02 11.728 126.38 11.632C126.452 11.616 126.404 11.4 126.332 11.4H124.588C124.508 11.4 124.476 11.616 124.54 11.632C124.892 11.728 125.244 11.8 125.244 12.36V15.656L121.46 11.472C121.404 11.408 121.348 11.4 121.26 11.4H120.708C120.628 11.4 120.58 11.48 120.58 11.536C120.58 11.584 120.644 11.64 120.692 11.688C120.972 11.992 121.02 12.344 121.02 12.832V16.032C121.02 16.552 120.74 16.664 120.348 16.768C120.284 16.784 120.324 17 120.396 17H122.14C122.22 17 122.252 16.784 122.188 16.768C121.796 16.664 121.484 16.568 121.484 16.032V12.704L125.348 16.928C125.428 17.016 125.492 17.08 125.612 17.08ZM127.052 17H129.068C129.132 17 129.18 16.776 129.116 16.768C128.772 16.72 128.452 16.608 128.452 16.048V12.352C128.452 11.792 128.772 11.68 129.116 11.632C129.18 11.624 129.132 11.4 129.068 11.4H127.052C126.988 11.4 126.94 11.624 127.004 11.632C127.396 11.688 127.684 11.832 127.684 12.352V16.048C127.684 16.568 127.396 16.712 127.004 16.768C126.94 16.776 126.988 17 127.052 17ZM133.016 17.128C133.232 17.128 134.272 16.696 134.616 16.2C134.664 16.128 134.52 15.976 134.456 16.016C133.92 16.352 133.296 16.456 133.16 16.456C131.952 16.456 130.6 15.624 130.6 13.832C130.6 12.584 131.272 11.832 132.448 11.832C133.792 11.832 134.192 12.832 134.424 12.112L134.512 11.832C134.6 11.552 133.792 11.272 132.888 11.272C130.696 11.272 129.824 12.888 129.824 14.288C129.824 16.336 131.672 17.128 133.016 17.128ZM135.076 17H136.74C136.844 17 136.86 16.768 136.764 16.752C136.364 16.688 136.06 16.6 136.356 15.88L136.484 15.568C136.564 15.384 136.748 15.384 136.988 15.384H138.668C138.94 15.384 139.124 15.384 139.196 15.568L139.332 15.88C139.628 16.584 139.324 16.704 139.02 16.752C138.924 16.768 138.94 17 139.044 17H140.98C141.076 17 141.108 16.768 140.996 16.752C140.676 16.704 140.484 16.576 140.18 15.872L138.228 11.32C138.204 11.264 137.644 11.392 137.644 11.44C137.644 11.744 137.548 12.104 137.236 12.808L135.884 15.88C135.58 16.576 135.388 16.704 135.052 16.752C134.948 16.768 134.972 17 135.076 17ZM136.788 14.872L137.852 12.352L138.908 14.872C138.956 14.976 138.82 14.992 138.7 14.992H136.996C136.868 14.992 136.74 14.976 136.788 14.872ZM146.761 17.08C146.857 17.08 146.993 17.048 146.953 16.92C146.873 16.632 146.857 16.056 146.857 15.568V12.36C146.857 11.8 147.169 11.728 147.529 11.632C147.601 11.616 147.553 11.4 147.481 11.4H145.737C145.657 11.4 145.625 11.616 145.689 11.632C146.041 11.728 146.393 11.8 146.393 12.36V15.656L142.609 11.472C142.553 11.408 142.497 11.4 142.409 11.4H141.857C141.777 11.4 141.729 11.48 141.729 11.536C141.729 11.584 141.793 11.64 141.841 11.688C142.121 11.992 142.169 12.344 142.169 12.832V16.032C142.169 16.552 141.889 16.664 141.497 16.768C141.433 16.784 141.473 17 141.545 17H143.289C143.369 17 143.401 16.784 143.337 16.768C142.945 16.664 142.633 16.568 142.633 16.032V12.704L146.497 16.928C146.577 17.016 146.641 17.08 146.761 17.08ZM147.854 17H149.518C149.622 17 149.638 16.768 149.542 16.752C149.142 16.688 148.838 16.6 149.134 15.88L149.262 15.568C149.342 15.384 149.526 15.384 149.766 15.384H151.446C151.718 15.384 151.902 15.384 151.974 15.568L152.11 15.88C152.406 16.584 152.102 16.704 151.798 16.752C151.702 16.768 151.718 17 151.822 17H153.758C153.854 17 153.886 16.768 153.774 16.752C153.454 16.704 153.262 16.576 152.958 15.872L151.006 11.32C150.982 11.264 150.422 11.392 150.422 11.44C150.422 11.744 150.326 12.104 150.014 12.808L148.662 15.88C148.358 16.576 148.166 16.704 147.83 16.752C147.726 16.768 147.75 17 147.854 17ZM149.566 14.872L150.63 12.352L151.686 14.872C151.734 14.976 151.598 14.992 151.478 14.992H149.774C149.646 14.992 149.518 14.976 149.566 14.872Z" fill="#003876"/>
<path d="M48 22H154" stroke="#DC3F32"/>
<path d="M48.28 31.016C49.008 30.944 49.88 30.968 50.616 30.968C51.288 30.968 51.728 30.992 52.176 31.016C52.68 31.016 53.024 30.208 53.024 29.8C53.024 29.664 52.808 29.624 52.752 29.712C52.56 30.016 52.08 30.568 50.872 30.568C50.208 30.568 50.016 30.4 50.016 29.944V28.6C50.016 28.392 50.12 28.352 50.28 28.352H50.4C50.864 28.352 51.264 28.456 51.448 28.712C51.536 28.832 51.656 28.848 51.72 28.704L52.176 27.696C52.248 27.536 52.072 27.52 51.992 27.592C51.664 27.888 51.096 27.952 50.448 27.952H50.28C50.12 27.952 50.016 27.912 50.016 27.704V26.4C50.016 25.984 50.2 25.84 50.76 25.84C51.76 25.84 52 26.064 52.12 26.456C52.152 26.568 52.344 26.568 52.376 26.456L52.568 25.696C52.616 25.512 52.608 25.384 52.416 25.384C51.76 25.4 51.232 25.432 50.504 25.432C50.016 25.432 49.008 25.448 48.424 25.384C48.36 25.376 48.32 25.64 48.384 25.656C48.728 25.744 49.056 25.88 49.056 26.392V29.944C49.056 30.536 48.696 30.608 48.232 30.728C48.168 30.744 48.2 31.024 48.28 31.016ZM56.8656 31.128C57.1136 31.128 58.1856 30.704 58.5296 30.2C58.5776 30.128 58.4096 29.944 58.3456 29.984C57.9296 30.248 57.2016 30.36 57.0576 30.36C55.9616 30.36 54.5936 29.608 54.5936 27.808C54.5936 26.656 55.1536 25.912 56.2976 25.912C57.7216 25.912 58.0336 27.008 58.3216 26.152L58.4256 25.84C58.5216 25.56 57.7216 25.272 56.7936 25.272C54.5536 25.272 53.7056 26.92 53.7056 28.304C53.7056 30.344 55.5216 31.128 56.8656 31.128ZM62.2655 31.128C64.0255 31.128 65.1695 29.784 65.1695 28.16C65.1695 26.496 63.9535 25.272 62.2815 25.272C60.5295 25.272 59.3775 26.616 59.3775 28.232C59.3775 29.896 60.6015 31.128 62.2655 31.128ZM60.3375 27.784C60.3375 26.28 61.2655 25.816 61.9695 25.816C63.1215 25.816 64.2175 26.992 64.2175 28.608C64.2175 30.12 63.2815 30.584 62.5775 30.584C61.4335 30.584 60.3375 29.416 60.3375 27.784ZM71.2334 31.08C71.3614 31.08 71.4894 31.048 71.4574 30.928C71.3774 30.632 71.3614 30.048 71.3614 29.52V26.408C71.3614 25.84 71.6654 25.776 72.0174 25.672C72.0814 25.656 72.0414 25.4 71.9774 25.4H70.0814C70.0014 25.4 69.9694 25.656 70.0334 25.672C70.4494 25.776 70.8094 25.84 70.8094 26.408V29.416L67.0814 25.472C67.0254 25.408 66.9694 25.4 66.8894 25.4H66.2974C66.1854 25.4 66.1374 25.496 66.1374 25.552C66.1374 25.6 66.2094 25.672 66.2814 25.768C66.4894 26.048 66.5774 26.312 66.5774 26.88V29.984C66.5774 30.552 66.2574 30.616 65.9214 30.728C65.8494 30.752 65.8974 31 65.9614 31H67.8574C67.9374 31 67.9694 30.744 67.9054 30.728C67.4494 30.616 67.1294 30.528 67.1294 29.984V26.944L70.9374 30.928C71.0254 31.024 71.0974 31.08 71.2334 31.08ZM75.6952 31.128C77.4552 31.128 78.5992 29.784 78.5992 28.16C78.5992 26.496 77.3832 25.272 75.7112 25.272C73.9592 25.272 72.8072 26.616 72.8072 28.232C72.8072 29.896 74.0312 31.128 75.6952 31.128ZM73.7672 27.784C73.7672 26.28 74.6952 25.816 75.3992 25.816C76.5512 25.816 77.6472 26.992 77.6472 28.608C77.6472 30.12 76.7112 30.584 76.0072 30.584C74.8632 30.584 73.7672 29.416 73.7672 27.784ZM79.4 31H81.056C81.112 31 81.16 30.736 81.096 30.728C80.84 30.696 80.512 30.568 80.536 30.008L80.656 27.28L82.504 30.784C82.552 30.88 82.632 30.928 82.752 30.928C82.88 30.928 83.048 30.88 83.064 30.784C83.088 30.656 83.216 30.304 83.384 29.96L84.68 27.32L84.832 30.008C84.856 30.512 84.608 30.672 84.272 30.728C84.224 30.736 84.264 31 84.32 31H86.408C86.464 31 86.512 30.736 86.448 30.728C86.112 30.688 85.824 30.568 85.792 30.008L85.536 25.416C85.528 25.28 85.208 25.272 85.136 25.416L82.984 29.752L80.664 25.416C80.584 25.272 80.28 25.28 80.272 25.416L80.016 30.008C79.984 30.568 79.696 30.688 79.352 30.728C79.288 30.736 79.336 31 79.4 31ZM87.1969 31H89.3889C89.4529 31 89.5009 30.736 89.4369 30.728C89.0929 30.68 88.7729 30.568 88.7729 30.008V26.392C88.7729 25.832 89.0929 25.72 89.4369 25.672C89.5009 25.664 89.4529 25.4 89.3889 25.4H87.1969C87.1329 25.4 87.0849 25.664 87.1489 25.672C87.5569 25.728 87.8129 25.888 87.8129 26.392V30.008C87.8129 30.512 87.5569 30.672 87.1489 30.728C87.0849 30.736 87.1329 31 87.1969 31ZM87.6129 24.464C87.5329 24.576 87.8129 24.832 87.9169 24.752L88.9649 23.96C89.1569 23.816 88.4849 23.2 88.3409 23.408L87.6129 24.464ZM90.0771 31H91.8051C91.9091 31 91.9331 30.744 91.8291 30.728C91.4451 30.672 91.1411 30.568 91.4211 29.88L91.5011 29.68C91.5811 29.488 91.7171 29.472 91.9571 29.472H93.5891C93.8291 29.472 93.9651 29.488 94.0451 29.68L94.1331 29.88C94.4291 30.568 94.1091 30.672 93.8131 30.728C93.7251 30.744 93.7331 31 93.8371 31H95.9491C96.0451 31 96.0771 30.744 95.9651 30.728C95.6451 30.68 95.4531 30.552 95.1651 29.872L93.2131 25.32C93.1891 25.264 92.6291 25.392 92.6291 25.44C92.6291 25.744 92.5331 26.072 92.2211 26.776L90.8691 29.88C90.5731 30.56 90.3811 30.672 90.0531 30.728C89.9571 30.744 89.9811 31 90.0771 31ZM91.8371 28.896L92.7811 26.656L93.7171 28.896C93.7651 29.008 93.6451 29.024 93.5331 29.024H92.0211C91.9091 29.024 91.7891 29.008 91.8371 28.896ZM96.7544 32.28C97.4264 31.832 97.9704 31.056 97.9704 30.488C97.9704 30.264 97.5464 29.864 97.3704 29.864C97.1944 29.864 96.7464 30.256 96.7464 30.48C96.7464 30.688 97.2184 30.8 97.2184 31C97.2184 31.336 96.8424 31.856 96.5304 32.112C96.4504 32.176 96.6744 32.328 96.7544 32.28ZM100.377 31H102.801C102.865 31 102.905 30.736 102.849 30.728C102.337 30.664 101.953 30.568 101.953 30.008V28.856C103.721 29.12 105.057 28.52 105.057 27.096C105.057 25.84 104.033 25.384 102.793 25.384C102.385 25.384 101.889 25.432 101.297 25.432C101.041 25.432 100.689 25.424 100.377 25.384C100.305 25.376 100.265 25.64 100.329 25.656C100.713 25.76 100.993 25.912 100.993 26.44V30.008C100.993 30.512 100.737 30.672 100.329 30.728C100.265 30.736 100.313 31 100.377 31ZM101.953 28.464V26.44C101.953 25.976 102.089 25.8 102.593 25.8C103.417 25.8 104.025 26.328 104.025 27.28C104.025 28.328 103.313 28.656 101.953 28.464ZM105.733 31.016C106.461 30.944 107.333 30.968 108.069 30.968C108.741 30.968 109.181 30.992 109.629 31.016C110.133 31.016 110.477 30.208 110.477 29.8C110.477 29.664 110.261 29.624 110.205 29.712C110.013 30.016 109.533 30.568 108.325 30.568C107.661 30.568 107.469 30.4 107.469 29.944V26.392C107.469 25.832 107.789 25.712 108.125 25.672C108.181 25.664 108.141 25.4 108.085 25.4H105.877C105.821 25.4 105.773 25.664 105.837 25.672C106.181 25.72 106.509 25.832 106.509 26.392V29.944C106.509 30.536 106.149 30.608 105.685 30.728C105.621 30.744 105.653 31.024 105.733 31.016ZM110.929 31H112.657C112.761 31 112.785 30.744 112.681 30.728C112.297 30.672 111.993 30.568 112.273 29.88L112.353 29.68C112.433 29.488 112.569 29.472 112.809 29.472H114.441C114.681 29.472 114.817 29.488 114.897 29.68L114.985 29.88C115.281 30.568 114.961 30.672 114.665 30.728C114.577 30.744 114.585 31 114.689 31H116.801C116.897 31 116.929 30.744 116.817 30.728C116.497 30.68 116.305 30.552 116.017 29.872L114.065 25.32C114.041 25.264 113.481 25.392 113.481 25.44C113.481 25.744 113.385 26.072 113.073 26.776L111.721 29.88C111.425 30.56 111.233 30.672 110.905 30.728C110.809 30.744 110.833 31 110.929 31ZM112.689 28.896L113.633 26.656L114.569 28.896C114.617 29.008 114.497 29.024 114.385 29.024H112.873C112.761 29.024 112.641 29.008 112.689 28.896ZM122.71 31.08C122.838 31.08 122.966 31.048 122.934 30.928C122.854 30.632 122.838 30.048 122.838 29.52V26.408C122.838 25.84 123.142 25.776 123.494 25.672C123.558 25.656 123.518 25.4 123.454 25.4H121.558C121.478 25.4 121.446 25.656 121.51 25.672C121.926 25.776 122.286 25.84 122.286 26.408V29.416L118.558 25.472C118.502 25.408 118.446 25.4 118.366 25.4H117.774C117.662 25.4 117.614 25.496 117.614 25.552C117.614 25.6 117.686 25.672 117.758 25.768C117.966 26.048 118.054 26.312 118.054 26.88V29.984C118.054 30.552 117.734 30.616 117.398 30.728C117.326 30.752 117.374 31 117.438 31H119.334C119.414 31 119.446 30.744 119.382 30.728C118.926 30.616 118.606 30.528 118.606 29.984V26.944L122.414 30.928C122.502 31.024 122.574 31.08 122.71 31.08ZM124.244 31H126.436C126.5 31 126.548 30.736 126.484 30.728C126.14 30.68 125.82 30.568 125.82 30.008V26.392C125.82 25.832 126.14 25.72 126.484 25.672C126.548 25.664 126.5 25.4 126.436 25.4H124.244C124.18 25.4 124.132 25.664 124.196 25.672C124.604 25.728 124.86 25.888 124.86 26.392V30.008C124.86 30.512 124.604 30.672 124.196 30.728C124.132 30.736 124.18 31 124.244 31ZM127.116 31.016C127.492 30.976 127.908 30.968 128.372 30.968C128.836 30.968 129.252 30.976 129.828 31.016C129.908 31.024 129.948 30.744 129.876 30.728C129.22 30.584 128.852 30.536 128.852 29.944V28.68C128.852 28.472 128.956 28.432 129.116 28.432H129.244C129.7 28.432 130.1 28.536 130.284 28.792C130.372 28.912 130.492 28.928 130.556 28.784L131.012 27.776C131.084 27.616 130.908 27.6 130.828 27.672C130.5 27.968 129.94 28.032 129.292 28.032H129.116C128.956 28.032 128.852 27.992 128.852 27.784V26.4C128.852 25.984 129.036 25.84 129.596 25.84C130.596 25.84 130.836 26.064 130.956 26.456C130.988 26.568 131.188 26.568 131.212 26.456L131.404 25.696C131.444 25.512 131.444 25.384 131.252 25.384C130.596 25.4 130.068 25.432 129.34 25.432C128.852 25.432 127.844 25.448 127.26 25.384C127.196 25.376 127.156 25.64 127.22 25.656C127.564 25.744 127.892 25.88 127.892 26.392V29.944C127.892 30.536 127.532 30.608 127.068 30.728C127.004 30.744 127.036 31.024 127.116 31.016ZM132.189 31H134.381C134.445 31 134.493 30.736 134.429 30.728C134.085 30.68 133.765 30.568 133.765 30.008V26.392C133.765 25.832 134.085 25.72 134.429 25.672C134.493 25.664 134.445 25.4 134.381 25.4H132.189C132.125 25.4 132.077 25.664 132.141 25.672C132.549 25.728 132.805 25.888 132.805 26.392V30.008C132.805 30.512 132.549 30.672 132.141 30.728C132.077 30.736 132.125 31 132.189 31ZM138.381 31.128C138.629 31.128 139.701 30.704 140.045 30.2C140.093 30.128 139.925 29.944 139.861 29.984C139.445 30.248 138.717 30.36 138.573 30.36C137.477 30.36 136.109 29.608 136.109 27.808C136.109 26.656 136.669 25.912 137.813 25.912C139.237 25.912 139.549 27.008 139.837 26.152L139.941 25.84C140.037 25.56 139.237 25.272 138.309 25.272C136.069 25.272 135.221 26.92 135.221 28.304C135.221 30.344 137.037 31.128 138.381 31.128ZM140.585 31H142.313C142.417 31 142.441 30.744 142.337 30.728C141.953 30.672 141.649 30.568 141.929 29.88L142.009 29.68C142.089 29.488 142.225 29.472 142.465 29.472H144.097C144.337 29.472 144.473 29.488 144.553 29.68L144.641 29.88C144.937 30.568 144.617 30.672 144.321 30.728C144.233 30.744 144.241 31 144.345 31H146.457C146.553 31 146.585 30.744 146.473 30.728C146.153 30.68 145.961 30.552 145.673 29.872L143.721 25.32C143.697 25.264 143.137 25.392 143.137 25.44C143.137 25.744 143.041 26.072 142.729 26.776L141.377 29.88C141.081 30.56 140.889 30.672 140.561 30.728C140.465 30.744 140.489 31 140.585 31ZM142.345 28.896L143.289 26.656L144.225 28.896C144.273 29.008 144.153 29.024 144.041 29.024H142.529C142.417 29.024 142.297 29.008 142.345 28.896ZM149.944 31.128C150.192 31.128 151.264 30.704 151.608 30.2C151.656 30.128 151.488 29.944 151.424 29.984C151.008 30.248 150.28 30.36 150.136 30.36C149.04 30.36 147.672 29.608 147.672 27.808C147.672 26.656 148.232 25.912 149.376 25.912C150.8 25.912 151.112 27.008 151.4 26.152L151.504 25.84C151.6 25.56 150.8 25.272 149.872 25.272C147.632 25.272 146.784 26.92 146.784 28.304C146.784 30.344 148.6 31.128 149.944 31.128ZM152.416 31H154.608C154.672 31 154.72 30.736 154.656 30.728C154.312 30.68 153.992 30.568 153.992 30.008V26.392C153.992 25.832 154.312 25.72 154.656 25.672C154.72 25.664 154.672 25.4 154.608 25.4H152.416C152.352 25.4 152.304 25.664 152.368 25.672C152.776 25.728 153.032 25.888 153.032 26.392V30.008C153.032 30.512 152.776 30.672 152.368 30.728C152.304 30.736 152.352 31 152.416 31ZM158.336 31.128C160.096 31.128 161.24 29.784 161.24 28.16C161.24 26.496 160.024 25.272 158.352 25.272C156.6 25.272 155.448 26.616 155.448 28.232C155.448 29.896 156.672 31.128 158.336 31.128ZM156.408 27.784C156.408 26.28 157.336 25.816 158.04 25.816C159.192 25.816 160.288 26.992 160.288 28.608C160.288 30.12 159.352 30.584 158.648 30.584C157.504 30.584 156.408 29.416 156.408 27.784ZM157.664 24.464C157.584 24.576 157.864 24.832 157.968 24.752L159.016 23.96C159.208 23.816 158.536 23.2 158.392 23.408L157.664 24.464ZM167.304 31.08C167.432 31.08 167.56 31.048 167.528 30.928C167.448 30.632 167.432 30.048 167.432 29.52V26.408C167.432 25.84 167.736 25.776 168.088 25.672C168.152 25.656 168.112 25.4 168.048 25.4H166.152C166.072 25.4 166.04 25.656 166.104 25.672C166.52 25.776 166.88 25.84 166.88 26.408V29.416L163.152 25.472C163.096 25.408 163.04 25.4 162.96 25.4H162.368C162.256 25.4 162.208 25.496 162.208 25.552C162.208 25.6 162.28 25.672 162.352 25.768C162.56 26.048 162.648 26.312 162.648 26.88V29.984C162.648 30.552 162.328 30.616 161.992 30.728C161.92 30.752 161.968 31 162.032 31H163.928C164.008 31 164.04 30.744 163.976 30.728C163.52 30.616 163.2 30.528 163.2 29.984V26.944L167.008 30.928C167.096 31.024 167.168 31.08 167.304 31.08ZM171.24 26.528L172.584 28.552V30.008C172.584 30.552 172.288 30.656 171.76 30.728C171.704 30.736 171.744 31 171.808 31H174.312C174.376 31 174.416 30.736 174.36 30.728C173.864 30.664 173.544 30.568 173.544 30.008V28.52L174.824 26.52C175.192 25.944 175.464 25.72 175.776 25.672C175.872 25.656 175.848 25.4 175.752 25.4H174.04C173.944 25.4 173.912 25.656 174.024 25.672C174.448 25.736 174.648 26 174.312 26.52L173.336 28.032L172.32 26.52C171.976 26 172.112 25.728 172.464 25.672C172.56 25.656 172.544 25.4 172.44 25.4H170.328C170.224 25.4 170.2 25.656 170.304 25.672C170.648 25.728 170.872 25.976 171.24 26.528ZM48.28 41.016C48.648 40.976 49.04 40.968 49.536 40.968C50.128 40.968 50.624 41.016 51.008 41.016C52.952 41.016 54 39.616 54 38.08C54 36.536 52.952 35.384 51.016 35.384C50.608 35.384 50.048 35.432 49.424 35.432C49.088 35.432 48.752 35.424 48.424 35.384C48.36 35.376 48.32 35.64 48.384 35.656C48.728 35.744 49.056 35.88 49.056 36.392V39.944C49.056 40.536 48.696 40.608 48.232 40.728C48.168 40.744 48.2 41.024 48.28 41.016ZM50.016 39.944V36.392C50.016 35.984 50.2 35.808 50.768 35.808C52.208 35.808 53.04 37.008 53.04 38.536C53.04 39.888 52.392 40.592 51.088 40.592C50.312 40.592 50.016 40.376 50.016 39.944ZM54.4363 41.016C55.1643 40.944 56.0363 40.968 56.7723 40.968C57.4443 40.968 57.8843 40.992 58.3323 41.016C58.8363 41.016 59.1803 40.208 59.1803 39.8C59.1803 39.664 58.9643 39.624 58.9083 39.712C58.7163 40.016 58.2363 40.568 57.0283 40.568C56.3643 40.568 56.1723 40.4 56.1723 39.944V38.6C56.1723 38.392 56.2763 38.352 56.4363 38.352H56.5563C57.0203 38.352 57.4203 38.456 57.6043 38.712C57.6923 38.832 57.8123 38.848 57.8763 38.704L58.3323 37.696C58.4043 37.536 58.2283 37.52 58.1483 37.592C57.8203 37.888 57.2523 37.952 56.6043 37.952H56.4363C56.2763 37.952 56.1723 37.912 56.1723 37.704V36.4C56.1723 35.984 56.3563 35.84 56.9163 35.84C57.9163 35.84 58.1562 36.064 58.2763 36.456C58.3083 36.568 58.5003 36.568 58.5323 36.456L58.7243 35.696C58.7723 35.512 58.7643 35.384 58.5723 35.384C57.9163 35.4 57.3883 35.432 56.6603 35.432C56.1723 35.432 55.1643 35.448 54.5803 35.384C54.5163 35.376 54.4763 35.64 54.5403 35.656C54.8843 35.744 55.2122 35.88 55.2122 36.392V39.944C55.2122 40.536 54.8523 40.608 54.3883 40.728C54.3243 40.744 54.3563 41.024 54.4363 41.016ZM61.548 41.128C62.62 41.128 63.604 40.4 63.604 39.4C63.604 38.824 63.26 38.464 62.412 37.936L61.572 37.416C61.036 37.088 60.82 36.888 60.82 36.528C60.82 36.104 61.116 35.816 61.684 35.816C62.78 35.816 62.98 36.888 63.228 36.112L63.324 35.808C63.412 35.536 62.636 35.272 62.028 35.272C61.036 35.272 60.076 35.952 60.076 36.936C60.076 37.536 60.428 37.872 61.292 38.416L62.068 38.904C62.636 39.256 62.876 39.416 62.876 39.792C62.876 40.256 62.548 40.584 61.876 40.584C60.556 40.584 60.292 39.352 60.068 40.192L59.988 40.488C59.892 40.84 60.892 41.128 61.548 41.128ZM64.0614 41H65.7894C65.8934 41 65.9174 40.744 65.8134 40.728C65.4294 40.672 65.1254 40.568 65.4054 39.88L65.4854 39.68C65.5654 39.488 65.7014 39.472 65.9414 39.472H67.5734C67.8134 39.472 67.9494 39.488 68.0294 39.68L68.1174 39.88C68.4134 40.568 68.0934 40.672 67.7974 40.728C67.7094 40.744 67.7174 41 67.8214 41H69.9334C70.0294 41 70.0614 40.744 69.9494 40.728C69.6294 40.68 69.4374 40.552 69.1494 39.872L67.1974 35.32C67.1734 35.264 66.6134 35.392 66.6134 35.44C66.6134 35.744 66.5174 36.072 66.2054 36.776L64.8534 39.88C64.5574 40.56 64.3654 40.672 64.0374 40.728C63.9414 40.744 63.9654 41 64.0614 41ZM65.8214 38.896L66.7654 36.656L67.7014 38.896C67.7494 39.008 67.6294 39.024 67.5174 39.024H66.0054C65.8934 39.024 65.7734 39.008 65.8214 38.896ZM76.4188 41.032C76.4668 41.016 76.4828 40.8 76.4188 40.8C76.2428 40.8 76.0028 40.712 75.7548 40.4L74.5628 38.904C74.2108 38.464 73.9788 38.328 73.6588 38.328V38.288C74.3307 38.248 75.0828 37.792 75.0828 36.864C75.0828 35.88 74.2748 35.384 73.0668 35.384C72.6828 35.384 72.1308 35.432 71.5388 35.432C71.2828 35.432 70.9308 35.424 70.6188 35.384C70.5468 35.376 70.5068 35.64 70.5708 35.656C70.9548 35.76 71.2348 35.912 71.2348 36.44V40.008C71.2348 40.512 70.9788 40.672 70.5708 40.728C70.5068 40.736 70.5548 41 70.6188 41H73.0428C73.1068 41 73.1468 40.736 73.0908 40.728C72.5788 40.664 72.1948 40.568 72.1948 40.008V38.456C72.7548 38.464 73.1628 38.528 73.5068 38.976L74.7387 40.56C75.2188 41.176 75.9148 41.2 76.4188 41.032ZM72.1948 38.088V36.44C72.1948 35.992 72.3468 35.8 72.8188 35.8C73.5308 35.8 74.0748 36.224 74.0748 37.08C74.0748 37.88 73.6188 38.088 72.4268 38.088H72.1948ZM82.7781 41.032C82.8261 41.016 82.8421 40.8 82.7781 40.8C82.6021 40.8 82.3621 40.712 82.1141 40.4L80.9221 38.904C80.5701 38.464 80.3381 38.328 80.0181 38.328V38.288C80.6901 38.248 81.4421 37.792 81.4421 36.864C81.4421 35.88 80.6341 35.384 79.4261 35.384C79.0421 35.384 78.4901 35.432 77.8981 35.432C77.6421 35.432 77.2901 35.424 76.9781 35.384C76.9061 35.376 76.8661 35.64 76.9301 35.656C77.3141 35.76 77.5941 35.912 77.5941 36.44V40.008C77.5941 40.512 77.3381 40.672 76.9301 40.728C76.8661 40.736 76.9141 41 76.9781 41H79.4021C79.4661 41 79.5061 40.736 79.4501 40.728C78.9381 40.664 78.5541 40.568 78.5541 40.008V38.456C79.1141 38.464 79.5221 38.528 79.8661 38.976L81.0981 40.56C81.5781 41.176 82.2741 41.2 82.7781 41.032ZM78.5541 38.088V36.44C78.5541 35.992 78.7061 35.8 79.1781 35.8C79.8901 35.8 80.4341 36.224 80.4341 37.08C80.4341 37.88 79.9781 38.088 78.7861 38.088H78.5541ZM85.8671 41.128C87.6271 41.128 88.7711 39.784 88.7711 38.16C88.7711 36.496 87.5551 35.272 85.8831 35.272C84.1311 35.272 82.9791 36.616 82.9791 38.232C82.9791 39.896 84.2031 41.128 85.8671 41.128ZM83.9391 37.784C83.9391 36.28 84.8671 35.816 85.5711 35.816C86.7231 35.816 87.8191 36.992 87.8191 38.608C87.8191 40.12 86.8831 40.584 86.1791 40.584C85.0351 40.584 83.9391 39.416 83.9391 37.784ZM89.4909 41.016C90.2189 40.944 91.0909 40.968 91.8269 40.968C92.4989 40.968 92.9389 40.992 93.3869 41.016C93.8909 41.016 94.2349 40.208 94.2349 39.8C94.2349 39.664 94.0189 39.624 93.9629 39.712C93.7709 40.016 93.2909 40.568 92.0829 40.568C91.4189 40.568 91.2269 40.4 91.2269 39.944V36.392C91.2269 35.832 91.5469 35.712 91.8829 35.672C91.9389 35.664 91.8989 35.4 91.8429 35.4H89.6349C89.5789 35.4 89.5309 35.664 89.5949 35.672C89.9389 35.72 90.2669 35.832 90.2669 36.392V39.944C90.2669 40.536 89.9069 40.608 89.4429 40.728C89.3789 40.744 89.4109 41.024 89.4909 41.016ZM94.6784 41.016C95.4064 40.944 96.2784 40.968 97.0144 40.968C97.6864 40.968 98.1264 40.992 98.5744 41.016C99.0784 41.016 99.4224 40.208 99.4224 39.8C99.4224 39.664 99.2064 39.624 99.1504 39.712C98.9584 40.016 98.4784 40.568 97.2704 40.568C96.6064 40.568 96.4144 40.4 96.4144 39.944V36.392C96.4144 35.832 96.7344 35.712 97.0704 35.672C97.1264 35.664 97.0864 35.4 97.0304 35.4H94.8224C94.7664 35.4 94.7184 35.664 94.7824 35.672C95.1264 35.72 95.4544 35.832 95.4544 36.392V39.944C95.4544 40.536 95.0944 40.608 94.6304 40.728C94.5664 40.744 94.5984 41.024 94.6784 41.016ZM102.992 41.128C104.752 41.128 105.896 39.784 105.896 38.16C105.896 36.496 104.68 35.272 103.008 35.272C101.256 35.272 100.104 36.616 100.104 38.232C100.104 39.896 101.328 41.128 102.992 41.128ZM101.064 37.784C101.064 36.28 101.992 35.816 102.696 35.816C103.848 35.816 104.944 36.992 104.944 38.608C104.944 40.12 104.008 40.584 103.304 40.584C102.16 40.584 101.064 39.416 101.064 37.784Z" fill="#EE2A24"/>
</svg>
