<svg width="285" height="38" viewBox="0 0 285 38" fill="none" xmlns="http://www.w3.org/2000/svg">
<path d="M19.972 2.035V1.621H20.821V1.079H20.472V1.421H19.972V0.527H20.055V0H19.69V0.527H19.773V1.427H19.273V1.08H18.924V1.621H19.773V2.035C19.0088 2.06701 18.2876 2.39729 17.7641 2.95497C17.2407 3.51265 16.9567 4.2533 16.973 5.018H22.764C22.7797 4.25484 22.4965 3.51578 21.9749 2.95849C21.4533 2.40119 20.7345 2.0698 19.972 2.035Z" fill="#003876"/>
<path d="M16.213 6.01938H23.513C23.543 6.01938 23.5717 6.00747 23.5929 5.98628C23.6141 5.96509 23.626 5.93634 23.626 5.90637V5.47237C23.626 5.44241 23.6141 5.41366 23.5929 5.39247C23.5717 5.37128 23.543 5.35938 23.513 5.35938H16.213C16.183 5.35938 16.1543 5.37128 16.1331 5.39247C16.1119 5.41366 16.1 5.44241 16.1 5.47237V5.90637C16.0998 5.92125 16.1027 5.93601 16.1083 5.94978C16.1139 5.96355 16.1223 5.97606 16.1328 5.98658C16.1433 5.9971 16.1558 6.00541 16.1696 6.01105C16.1834 6.01668 16.1981 6.01951 16.213 6.01938Z" fill="#003876"/>
<path d="M16.213 11.5479H23.513C23.543 11.5479 23.5717 11.536 23.5929 11.5148C23.6141 11.4936 23.626 11.4648 23.626 11.4349V11.0009C23.6262 10.9854 23.6231 10.9701 23.6172 10.9559C23.6112 10.9417 23.6023 10.9288 23.5912 10.9181C23.58 10.9074 23.5668 10.8992 23.5523 10.8938C23.5378 10.8884 23.5224 10.8861 23.507 10.8869H16.213C16.183 10.8869 16.1543 10.8988 16.1331 10.92C16.1119 10.9412 16.1 10.9699 16.1 10.9999V11.4339C16.0997 11.4488 16.1025 11.4637 16.108 11.4776C16.1136 11.4915 16.1219 11.5041 16.1324 11.5147C16.143 11.5254 16.1555 11.5338 16.1694 11.5395C16.1832 11.5452 16.198 11.548 16.213 11.5479Z" fill="#003876"/>
<path d="M17.528 6.34375C17.5 6.34362 17.4722 6.34904 17.4463 6.3597C17.4204 6.37035 17.3969 6.38604 17.3771 6.40584C17.3573 6.42565 17.3416 6.44918 17.3309 6.47508C17.3203 6.50099 17.3149 6.52874 17.315 6.55675V10.3568C17.3149 10.3848 17.3203 10.4125 17.3309 10.4384C17.3416 10.4643 17.3573 10.4879 17.3771 10.5077C17.3969 10.5275 17.4204 10.5432 17.4463 10.5538C17.4722 10.5645 17.5 10.5699 17.528 10.5698H18.412C18.4399 10.5698 18.4676 10.5642 18.4934 10.5535C18.5192 10.5428 18.5426 10.5271 18.5623 10.5073C18.582 10.4875 18.5976 10.464 18.6082 10.4382C18.6187 10.4124 18.6241 10.3847 18.624 10.3568V6.55675C18.6241 6.52883 18.6187 6.50115 18.6082 6.47532C18.5976 6.44948 18.582 6.42599 18.5623 6.4062C18.5426 6.38641 18.5192 6.3707 18.4934 6.35999C18.4676 6.34927 18.4399 6.34375 18.412 6.34375H17.528Z" fill="#003876"/>
<path d="M19.416 6.34375C19.388 6.34362 19.3602 6.34904 19.3343 6.3597C19.3084 6.37035 19.2849 6.38604 19.2651 6.40584C19.2453 6.42565 19.2296 6.44918 19.219 6.47508C19.2083 6.50099 19.2029 6.52874 19.203 6.55675V10.3568C19.2029 10.3848 19.2083 10.4125 19.219 10.4384C19.2296 10.4643 19.2453 10.4879 19.2651 10.5077C19.2849 10.5275 19.3084 10.5432 19.3343 10.5538C19.3602 10.5645 19.388 10.5699 19.416 10.5698H20.296C20.324 10.5699 20.3518 10.5645 20.3777 10.5538C20.4036 10.5432 20.4271 10.5275 20.4469 10.5077C20.4667 10.4879 20.4824 10.4643 20.4931 10.4384C20.5037 10.4125 20.5091 10.3848 20.509 10.3568V6.55675C20.5091 6.52874 20.5037 6.50099 20.4931 6.47508C20.4824 6.44918 20.4667 6.42565 20.4469 6.40584C20.4271 6.38604 20.4036 6.37035 20.3777 6.3597C20.3518 6.34904 20.324 6.34362 20.296 6.34375H19.416Z" fill="#003876"/>
<path d="M21.277 6.34375C21.249 6.34362 21.2213 6.34904 21.1954 6.3597C21.1695 6.37035 21.1459 6.38604 21.1261 6.40584C21.1063 6.42565 21.0906 6.44918 21.08 6.47508C21.0693 6.50099 21.0639 6.52874 21.064 6.55675V10.3568C21.0639 10.3848 21.0693 10.4125 21.08 10.4384C21.0906 10.4643 21.1063 10.4879 21.1261 10.5077C21.1459 10.5275 21.1695 10.5432 21.1954 10.5538C21.2213 10.5645 21.249 10.5699 21.277 10.5698H22.157C22.185 10.5699 22.2128 10.5645 22.2387 10.5538C22.2646 10.5432 22.2881 10.5275 22.3079 10.5077C22.3277 10.4879 22.3434 10.4643 22.3541 10.4384C22.3647 10.4125 22.3702 10.3848 22.37 10.3568V6.55675C22.3702 6.52874 22.3647 6.50099 22.3541 6.47508C22.3434 6.44918 22.3277 6.42565 22.3079 6.40584C22.2881 6.38604 22.2646 6.37035 22.2387 6.3597C22.2128 6.34904 22.185 6.34362 22.157 6.34375H21.277Z" fill="#003876"/>
<path d="M4.77901 25.4479C5.43379 22.4264 6.70832 19.5737 8.52201 17.0699C10.0016 15.0952 11.8284 13.4063 13.913 12.0859C10.6169 13.3112 7.71077 15.4001 5.49901 18.1339C2.77837 21.5679 1.26971 25.8053 1.20801 30.1859H4.02401C4.13599 28.5875 4.38863 27.002 4.77901 25.4479Z" fill="#003876"/>
<path d="M31.251 17.0678C33.0649 19.5715 34.3394 22.4243 34.994 25.4458C35.3845 27.0002 35.6371 28.5861 35.749 30.1848H38.564C38.5017 25.8041 36.9927 21.5669 34.272 18.1328C32.06 15.4008 29.1543 13.3137 25.859 12.0898C27.9437 13.4081 29.7708 15.0949 31.251 17.0678Z" fill="#003876"/>
<path d="M16.487 12.7773C14.8805 13.5641 13.398 14.5823 12.087 15.7993C6.61701 20.8993 5.98101 27.9143 5.87201 30.1863H10.748C10.6163 25.9976 11.4627 21.8359 13.22 18.0313C14.0977 16.1572 15.1944 14.3935 16.487 12.7773Z" fill="#003876"/>
<path d="M33.791 30.1863C33.682 27.9143 33.046 20.8983 27.576 15.7993C26.265 14.5823 24.7826 13.5641 23.176 12.7773C24.4667 14.3936 25.5616 16.1569 26.438 18.0303C28.1953 21.8349 29.0417 25.9966 28.91 30.1853L33.791 30.1863Z" fill="#003876"/>
<path d="M18.959 30.1863V12.7773C17.2031 14.6727 15.767 16.841 14.707 19.1973C13.168 22.6479 12.4604 26.4115 12.641 30.1853L18.959 30.1863Z" fill="#003876"/>
<path d="M20.796 12.7773V30.1863H27.114C27.2947 26.4125 26.587 22.6489 25.048 19.1983C23.9875 16.842 22.5515 14.6734 20.796 12.7773Z" fill="#003876"/>
<path d="M35.788 31.5884V30.9984C35.7877 30.9388 35.7639 30.8818 35.7218 30.8396C35.6797 30.7975 35.6226 30.7737 35.563 30.7734H33.963C33.9034 30.7737 33.8463 30.7975 33.8042 30.8396C33.7621 30.8818 33.7383 30.9388 33.738 30.9984V31.5884H29.046V30.9984C29.0457 30.9388 29.0219 30.8818 28.9798 30.8396C28.9377 30.7975 28.8806 30.7737 28.821 30.7734H27.221C27.1614 30.7737 27.1043 30.7975 27.0622 30.8396C27.0201 30.8818 26.9963 30.9388 26.996 30.9984V31.5884H20.855V30.9984C20.8547 30.9388 20.8309 30.8818 20.7888 30.8396C20.7467 30.7975 20.6896 30.7737 20.63 30.7734H19.03C18.9704 30.7737 18.9133 30.7975 18.8712 30.8396C18.8291 30.8818 18.8053 30.9388 18.805 30.9984V31.5884H12.731V30.9984C12.7307 30.9388 12.7069 30.8818 12.6648 30.8396C12.6227 30.7975 12.5656 30.7737 12.506 30.7734H10.9C10.8404 30.7737 10.7833 30.7975 10.7412 30.8396C10.6991 30.8818 10.6753 30.9388 10.675 30.9984V31.5884H5.975V30.9984C5.97474 30.9388 5.95095 30.8818 5.90881 30.8396C5.86667 30.7975 5.80959 30.7737 5.75 30.7734H4.15C4.09041 30.7737 4.03333 30.7975 3.99119 30.8396C3.94905 30.8818 3.92526 30.9388 3.925 30.9984V31.5884H0V32.2934H39.658V31.5884H35.788Z" fill="#003876"/>
<path d="M5.72598 34.872C5.79149 34.872 5.85432 34.846 5.90064 34.7997C5.94696 34.7533 5.97298 34.6905 5.97298 34.625V32.75H3.91998V34.629C3.91998 34.6945 3.94601 34.7573 3.99233 34.8037C4.03865 34.85 4.10147 34.876 4.16698 34.876L5.72598 34.872Z" fill="#003876"/>
<path d="M12.484 34.872C12.5495 34.872 12.6123 34.846 12.6586 34.7997C12.705 34.7533 12.731 34.6905 12.731 34.625V32.75H10.678V34.629C10.678 34.6945 10.704 34.7573 10.7503 34.8037C10.7966 34.85 10.8595 34.876 10.925 34.876L12.484 34.872Z" fill="#003876"/>
<path d="M20.608 34.872C20.6735 34.872 20.7363 34.846 20.7827 34.7997C20.829 34.7533 20.855 34.6905 20.855 34.625V32.75H18.802V34.629C18.802 34.6945 18.828 34.7573 18.8743 34.8037C18.9207 34.85 18.9835 34.876 19.049 34.876L20.608 34.872Z" fill="#003876"/>
<path d="M28.802 34.872C28.8675 34.872 28.9303 34.846 28.9766 34.7997C29.023 34.7533 29.049 34.6905 29.049 34.625V32.75H26.993V34.629C26.993 34.6945 27.019 34.7573 27.0653 34.8037C27.1116 34.85 27.1745 34.876 27.24 34.876L28.802 34.872Z" fill="#003876"/>
<path d="M35.541 34.872C35.6065 34.872 35.6693 34.846 35.7156 34.7997C35.762 34.7533 35.788 34.6905 35.788 34.625V32.75H33.735V34.629C33.735 34.6945 33.761 34.7573 33.8073 34.8037C33.8537 34.85 33.9165 34.876 33.982 34.876L35.541 34.872Z" fill="#003876"/>
<path d="M39.388 35.4688H0.267C0.19636 35.4687 0.128599 35.4967 0.0785552 35.5466C0.0285116 35.5965 0.000264569 35.6641 0 35.7347L0 36.7518C0 36.8226 0.0281303 36.8905 0.0782025 36.9405C0.128275 36.9906 0.196187 37.0187 0.267 37.0187H39.387C39.4578 37.0187 39.5257 36.9906 39.5758 36.9405C39.6259 36.8905 39.654 36.8226 39.654 36.7518V35.7347C39.654 35.6642 39.626 35.5965 39.5761 35.5467C39.5262 35.4968 39.4585 35.4688 39.388 35.4688Z" fill="#003876"/>
<path d="M54.36 5.04C54.2054 4.71467 53.9814 4.464 53.688 4.288C53.3947 4.10667 53.0534 4.016 52.664 4.016C52.2747 4.016 51.9227 4.10667 51.608 4.288C51.2987 4.464 51.0534 4.72 50.872 5.056C50.696 5.38667 50.608 5.77067 50.608 6.208C50.608 6.64533 50.696 7.02933 50.872 7.36C51.0534 7.69067 51.2987 7.94667 51.608 8.128C51.9227 8.304 52.2747 8.392 52.664 8.392C53.208 8.392 53.656 8.22933 54.008 7.904C54.36 7.57867 54.5654 7.13867 54.624 6.584H52.4V5.992H55.4V6.552C55.3574 7.01067 55.2134 7.432 54.968 7.816C54.7227 8.19467 54.4 8.496 54 8.72C53.6 8.93867 53.1547 9.048 52.664 9.048C52.1467 9.048 51.6747 8.928 51.248 8.688C50.8214 8.44267 50.4827 8.104 50.232 7.672C49.9867 7.24 49.864 6.752 49.864 6.208C49.864 5.664 49.9867 5.176 50.232 4.744C50.4827 4.30667 50.8214 3.968 51.248 3.728C51.6747 3.48267 52.1467 3.36 52.664 3.36C53.256 3.36 53.7787 3.50667 54.232 3.8C54.6907 4.09333 55.024 4.50667 55.232 5.04H54.36ZM58.8906 9.056C58.3732 9.056 57.9012 8.936 57.4746 8.696C57.0479 8.45067 56.7092 8.112 56.4586 7.68C56.2132 7.24267 56.0906 6.752 56.0906 6.208C56.0906 5.664 56.2132 5.176 56.4586 4.744C56.7092 4.30667 57.0479 3.968 57.4746 3.728C57.9012 3.48267 58.3732 3.36 58.8906 3.36C59.4132 3.36 59.8879 3.48267 60.3146 3.728C60.7412 3.968 61.0772 4.304 61.3226 4.736C61.5679 5.168 61.6906 5.65867 61.6906 6.208C61.6906 6.75733 61.5679 7.248 61.3226 7.68C61.0772 8.112 60.7412 8.45067 60.3146 8.696C59.8879 8.936 59.4132 9.056 58.8906 9.056ZM58.8906 8.424C59.2799 8.424 59.6292 8.33333 59.9386 8.152C60.2532 7.97067 60.4986 7.712 60.6746 7.376C60.8559 7.04 60.9466 6.65067 60.9466 6.208C60.9466 5.76 60.8559 5.37067 60.6746 5.04C60.4986 4.704 60.2559 4.44533 59.9466 4.264C59.6372 4.08267 59.2852 3.992 58.8906 3.992C58.4959 3.992 58.1439 4.08267 57.8346 4.264C57.5252 4.44533 57.2799 4.704 57.0986 5.04C56.9226 5.37067 56.8346 5.76 56.8346 6.208C56.8346 6.65067 56.9226 7.04 57.0986 7.376C57.2799 7.712 57.5252 7.97067 57.8346 8.152C58.1492 8.33333 58.5012 8.424 58.8906 8.424ZM65.4436 6.128C65.6463 6.16 65.8303 6.24267 65.9956 6.376C66.1663 6.50933 66.2996 6.67467 66.3956 6.872C66.497 7.06933 66.5476 7.28 66.5476 7.504C66.5476 7.78667 66.4756 8.04267 66.3316 8.272C66.1876 8.496 65.977 8.67467 65.6996 8.808C65.4276 8.936 65.105 9 64.7316 9H62.6516V3.424H64.6516C65.0303 3.424 65.353 3.488 65.6196 3.616C65.8863 3.73867 66.0863 3.90667 66.2196 4.12C66.353 4.33333 66.4196 4.57333 66.4196 4.84C66.4196 5.17067 66.329 5.44533 66.1476 5.664C65.9716 5.87733 65.737 6.032 65.4436 6.128ZM63.3796 5.832H64.6036C64.945 5.832 65.209 5.752 65.3956 5.592C65.5823 5.432 65.6756 5.21067 65.6756 4.928C65.6756 4.64533 65.5823 4.424 65.3956 4.264C65.209 4.104 64.9396 4.024 64.5876 4.024H63.3796V5.832ZM64.6676 8.4C65.0303 8.4 65.313 8.31467 65.5156 8.144C65.7183 7.97333 65.8196 7.736 65.8196 7.432C65.8196 7.12267 65.713 6.88 65.4996 6.704C65.2863 6.52267 65.001 6.432 64.6436 6.432H63.3796V8.4H64.6676ZM68.2859 3.424V9H67.5579V3.424H68.2859ZM70.2546 4.016V5.88H72.2866V6.48H70.2546V8.4H72.5266V9H69.5266V3.416H72.5266V4.016H70.2546ZM76.5642 9L75.2362 6.72H74.3562V9H73.6282V3.424H75.4282C75.8495 3.424 76.2042 3.496 76.4922 3.64C76.7855 3.784 77.0042 3.97867 77.1482 4.224C77.2922 4.46933 77.3642 4.74933 77.3642 5.064C77.3642 5.448 77.2522 5.78667 77.0282 6.08C76.8095 6.37333 76.4789 6.568 76.0362 6.664L77.4362 9H76.5642ZM74.3562 6.136H75.4282C75.8229 6.136 76.1189 6.04 76.3162 5.848C76.5135 5.65067 76.6122 5.38933 76.6122 5.064C76.6122 4.73333 76.5135 4.47733 76.3162 4.296C76.1242 4.11467 75.8282 4.024 75.4282 4.024H74.3562V6.136ZM82.8794 9H82.1514L79.2234 4.56V9H78.4954V3.416H79.2234L82.1514 7.848V3.416H82.8794V9ZM86.6484 9.056C86.1311 9.056 85.6591 8.936 85.2324 8.696C84.8057 8.45067 84.4671 8.112 84.2164 7.68C83.9711 7.24267 83.8484 6.752 83.8484 6.208C83.8484 5.664 83.9711 5.176 84.2164 4.744C84.4671 4.30667 84.8057 3.968 85.2324 3.728C85.6591 3.48267 86.1311 3.36 86.6484 3.36C87.1711 3.36 87.6457 3.48267 88.0724 3.728C88.4991 3.968 88.8351 4.304 89.0804 4.736C89.3257 5.168 89.4484 5.65867 89.4484 6.208C89.4484 6.75733 89.3257 7.248 89.0804 7.68C88.8351 8.112 88.4991 8.45067 88.0724 8.696C87.6457 8.936 87.1711 9.056 86.6484 9.056ZM86.6484 8.424C87.0377 8.424 87.3871 8.33333 87.6964 8.152C88.0111 7.97067 88.2564 7.712 88.4324 7.376C88.6137 7.04 88.7044 6.65067 88.7044 6.208C88.7044 5.76 88.6137 5.37067 88.4324 5.04C88.2564 4.704 88.0137 4.44533 87.7044 4.264C87.3951 4.08267 87.0431 3.992 86.6484 3.992C86.2537 3.992 85.9017 4.08267 85.5924 4.264C85.2831 4.44533 85.0377 4.704 84.8564 5.04C84.6804 5.37067 84.5924 5.76 84.5924 6.208C84.5924 6.65067 84.6804 7.04 84.8564 7.376C85.0377 7.712 85.2831 7.97067 85.5924 8.152C85.9071 8.33333 86.2591 8.424 86.6484 8.424ZM94.2783 3.424C94.8863 3.424 95.4116 3.53867 95.8543 3.768C96.3023 3.992 96.6436 4.31467 96.8783 4.736C97.1183 5.15733 97.2383 5.65333 97.2383 6.224C97.2383 6.79467 97.1183 7.29067 96.8783 7.712C96.6436 8.128 96.3023 8.448 95.8543 8.672C95.4116 8.89067 94.8863 9 94.2783 9H92.5423V3.424H94.2783ZM94.2783 8.4C94.9983 8.4 95.5476 8.21067 95.9263 7.832C96.3049 7.448 96.4943 6.912 96.4943 6.224C96.4943 5.53067 96.3023 4.98933 95.9183 4.6C95.5396 4.21067 94.9929 4.016 94.2783 4.016H93.2703V8.4H94.2783ZM98.9265 4.016V5.88H100.959V6.48H98.9265V8.4H101.199V9H98.1985V3.416H101.199V4.016H98.9265ZM105.161 8.408H107.113V9H104.433V3.424H105.161V8.408ZM111.182 7.76H108.75L108.302 9H107.534L109.55 3.456H110.39L112.398 9H111.63L111.182 7.76ZM110.974 7.168L109.966 4.352L108.958 7.168H110.974ZM53.072 21L51.744 18.72H50.864V21H50.136V15.424H51.936C52.3574 15.424 52.712 15.496 53 15.64C53.2934 15.784 53.512 15.9787 53.656 16.224C53.8 16.4693 53.872 16.7493 53.872 17.064C53.872 17.448 53.76 17.7867 53.536 18.08C53.3174 18.3733 52.9867 18.568 52.544 18.664L53.944 21H53.072ZM50.864 18.136H51.936C52.3307 18.136 52.6267 18.04 52.824 17.848C53.0214 17.6507 53.12 17.3893 53.12 17.064C53.12 16.7333 53.0214 16.4773 52.824 16.296C52.632 16.1147 52.336 16.024 51.936 16.024H50.864V18.136ZM55.7312 16.016V17.88H57.7632V18.48H55.7312V20.4H58.0032V21H55.0032V15.416H58.0032V16.016H55.7312ZM62.8328 17.056C62.8328 17.52 62.6728 17.9067 62.3528 18.216C62.0381 18.52 61.5554 18.672 60.9048 18.672H59.8328V21H59.1048V15.424H60.9048C61.5341 15.424 62.0114 15.576 62.3368 15.88C62.6674 16.184 62.8328 16.576 62.8328 17.056ZM60.9048 18.072C61.3101 18.072 61.6088 17.984 61.8008 17.808C61.9928 17.632 62.0888 17.3813 62.0888 17.056C62.0888 16.368 61.6941 16.024 60.9048 16.024H59.8328V18.072H60.9048ZM64.4496 15.424V18.952C64.4496 19.448 64.5696 19.816 64.8096 20.056C65.0549 20.296 65.3936 20.416 65.8256 20.416C66.2522 20.416 66.5856 20.296 66.8256 20.056C67.0709 19.816 67.1936 19.448 67.1936 18.952V15.424H67.9216V18.944C67.9216 19.408 67.8282 19.8 67.6416 20.12C67.4549 20.4347 67.2016 20.6693 66.8816 20.824C66.5669 20.9787 66.2122 21.056 65.8176 21.056C65.4229 21.056 65.0656 20.9787 64.7456 20.824C64.4309 20.6693 64.1802 20.4347 63.9936 20.12C63.8122 19.8 63.7216 19.408 63.7216 18.944V15.424H64.4496ZM66.6016 14.216L64.8976 15.128V14.584L66.6016 13.584V14.216ZM71.928 18.128C72.1307 18.16 72.3147 18.2427 72.48 18.376C72.6507 18.5093 72.784 18.6747 72.88 18.872C72.9814 19.0693 73.032 19.28 73.032 19.504C73.032 19.7867 72.96 20.0427 72.816 20.272C72.672 20.496 72.4614 20.6747 72.184 20.808C71.912 20.936 71.5894 21 71.216 21H69.136V15.424H71.136C71.5147 15.424 71.8374 15.488 72.104 15.616C72.3707 15.7387 72.5707 15.9067 72.704 16.12C72.8374 16.3333 72.904 16.5733 72.904 16.84C72.904 17.1707 72.8134 17.4453 72.632 17.664C72.456 17.8773 72.2214 18.032 71.928 18.128ZM69.864 17.832H71.088C71.4294 17.832 71.6934 17.752 71.88 17.592C72.0667 17.432 72.16 17.2107 72.16 16.928C72.16 16.6453 72.0667 16.424 71.88 16.264C71.6934 16.104 71.424 16.024 71.072 16.024H69.864V17.832ZM71.152 20.4C71.5147 20.4 71.7974 20.3147 72 20.144C72.2027 19.9733 72.304 19.736 72.304 19.432C72.304 19.1227 72.1974 18.88 71.984 18.704C71.7707 18.5227 71.4854 18.432 71.128 18.432H69.864V20.4H71.152ZM74.7703 20.408H76.7223V21H74.0423V15.424H74.7703V20.408ZM78.2234 15.424V21H77.4954V15.424H78.2234ZM79.1921 18.208C79.1921 17.664 79.3148 17.176 79.5601 16.744C79.8055 16.3067 80.1388 15.9653 80.5601 15.72C80.9868 15.4747 81.4588 15.352 81.9761 15.352C82.5841 15.352 83.1148 15.4987 83.5681 15.792C84.0215 16.0853 84.3521 16.5013 84.5601 17.04H83.6881C83.5335 16.704 83.3095 16.4453 83.0161 16.264C82.7281 16.0827 82.3815 15.992 81.9761 15.992C81.5868 15.992 81.2375 16.0827 80.9281 16.264C80.6188 16.4453 80.3761 16.704 80.2001 17.04C80.0241 17.3707 79.9361 17.76 79.9361 18.208C79.9361 18.6507 80.0241 19.04 80.2001 19.376C80.3761 19.7067 80.6188 19.9627 80.9281 20.144C81.2375 20.3253 81.5868 20.416 81.9761 20.416C82.3815 20.416 82.7281 20.328 83.0161 20.152C83.3095 19.9707 83.5335 19.712 83.6881 19.376H84.5601C84.3521 19.9093 84.0215 20.3227 83.5681 20.616C83.1148 20.904 82.5841 21.048 81.9761 21.048C81.4588 21.048 80.9868 20.928 80.5601 20.688C80.1388 20.4427 79.8055 20.104 79.5601 19.672C79.3148 19.24 79.1921 18.752 79.1921 18.208ZM88.9398 19.76H86.5078L86.0598 21H85.2918L87.3078 15.456H88.1478L90.1558 21H89.3878L88.9398 19.76ZM88.7318 19.168L87.7238 16.352L86.7158 19.168H88.7318ZM94.9033 15.424C95.5113 15.424 96.0366 15.5387 96.4793 15.768C96.9273 15.992 97.2686 16.3147 97.5033 16.736C97.7433 17.1573 97.8633 17.6533 97.8633 18.224C97.8633 18.7947 97.7433 19.2907 97.5033 19.712C97.2686 20.128 96.9273 20.448 96.4793 20.672C96.0366 20.8907 95.5113 21 94.9033 21H93.1673V15.424H94.9033ZM94.9033 20.4C95.6233 20.4 96.1726 20.2107 96.5513 19.832C96.9299 19.448 97.1193 18.912 97.1193 18.224C97.1193 17.5307 96.9273 16.9893 96.5433 16.6C96.1646 16.2107 95.6179 16.016 94.9033 16.016H93.8953V20.4H94.9033ZM101.352 21.056C100.834 21.056 100.362 20.936 99.9355 20.696C99.5089 20.4507 99.1702 20.112 98.9195 19.68C98.6742 19.2427 98.5515 18.752 98.5515 18.208C98.5515 17.664 98.6742 17.176 98.9195 16.744C99.1702 16.3067 99.5089 15.968 99.9355 15.728C100.362 15.4827 100.834 15.36 101.352 15.36C101.874 15.36 102.349 15.4827 102.776 15.728C103.202 15.968 103.538 16.304 103.784 16.736C104.029 17.168 104.152 17.6587 104.152 18.208C104.152 18.7573 104.029 19.248 103.784 19.68C103.538 20.112 103.202 20.4507 102.776 20.696C102.349 20.936 101.874 21.056 101.352 21.056ZM101.352 20.424C101.741 20.424 102.09 20.3333 102.4 20.152C102.714 19.9707 102.96 19.712 103.136 19.376C103.317 19.04 103.408 18.6507 103.408 18.208C103.408 17.76 103.317 17.3707 103.136 17.04C102.96 16.704 102.717 16.4453 102.408 16.264C102.098 16.0827 101.746 15.992 101.352 15.992C100.957 15.992 100.605 16.0827 100.296 16.264C99.9862 16.4453 99.7409 16.704 99.5595 17.04C99.3835 17.3707 99.2955 17.76 99.2955 18.208C99.2955 18.6507 99.3835 19.04 99.5595 19.376C99.7409 19.712 99.9862 19.9707 100.296 20.152C100.61 20.3333 100.962 20.424 101.352 20.424ZM110.769 15.464V21H110.041V16.872L108.201 21H107.689L105.841 16.864V21H105.113V15.464H105.897L107.945 20.04L109.993 15.464H110.769ZM112.731 15.424V21H112.003V15.424H112.731ZM118.356 21H117.628L114.7 16.56V21H113.972V15.416H114.7L117.628 19.848V15.416H118.356V21ZM120.325 15.424V21H119.597V15.424H120.325ZM121.294 18.208C121.294 17.664 121.416 17.176 121.662 16.744C121.907 16.3067 122.24 15.9653 122.662 15.72C123.088 15.4747 123.56 15.352 124.078 15.352C124.686 15.352 125.216 15.4987 125.67 15.792C126.123 16.0853 126.454 16.5013 126.662 17.04H125.79C125.635 16.704 125.411 16.4453 125.118 16.264C124.83 16.0827 124.483 15.992 124.078 15.992C123.688 15.992 123.339 16.0827 123.03 16.264C122.72 16.4453 122.478 16.704 122.302 17.04C122.126 17.3707 122.038 17.76 122.038 18.208C122.038 18.6507 122.126 19.04 122.302 19.376C122.478 19.7067 122.72 19.9627 123.03 20.144C123.339 20.3253 123.688 20.416 124.078 20.416C124.483 20.416 124.83 20.328 125.118 20.152C125.411 19.9707 125.635 19.712 125.79 19.376H126.662C126.454 19.9093 126.123 20.3227 125.67 20.616C125.216 20.904 124.686 21.048 124.078 21.048C123.56 21.048 123.088 20.928 122.662 20.688C122.24 20.4427 121.907 20.104 121.662 19.672C121.416 19.24 121.294 18.752 121.294 18.208ZM131.041 19.76H128.609L128.161 21H127.393L129.409 15.456H130.249L132.257 21H131.489L131.041 19.76ZM130.833 19.168L129.825 16.352L128.817 19.168H130.833ZM137.52 21H136.792L133.864 16.56V21H133.136V15.416H133.864L136.792 19.848V15.416H137.52V21ZM142.057 19.76H139.625L139.177 21H138.409L140.425 15.456H141.265L143.273 21H142.505L142.057 19.76ZM141.849 19.168L140.841 16.352L139.833 19.168H141.849Z" fill="#003876"/>
<path d="M49.87 35.02C50.78 34.93 51.87 34.96 52.79 34.96C53.63 34.96 54.18 34.99 54.74 35.02C55.37 35.02 55.8 34.01 55.8 33.5C55.8 33.33 55.53 33.28 55.46 33.39C55.22 33.77 54.62 34.46 53.11 34.46C52.28 34.46 52.04 34.25 52.04 33.68V32C52.04 31.74 52.17 31.69 52.37 31.69H52.52C53.1 31.69 53.6 31.82 53.83 32.14C53.94 32.29 54.09 32.31 54.17 32.13L54.74 30.87C54.83 30.67 54.61 30.65 54.51 30.74C54.1 31.11 53.39 31.19 52.58 31.19H52.37C52.17 31.19 52.04 31.14 52.04 30.88V29.25C52.04 28.73 52.27 28.55 52.97 28.55C54.22 28.55 54.52 28.83 54.67 29.32C54.71 29.46 54.95 29.46 54.99 29.32L55.23 28.37C55.29 28.14 55.28 27.98 55.04 27.98C54.22 28 53.56 28.04 52.65 28.04C52.04 28.04 50.78 28.06 50.05 27.98C49.97 27.97 49.92 28.3 50 28.32C50.43 28.43 50.84 28.6 50.84 29.24V33.68C50.84 34.42 50.39 34.51 49.81 34.66C49.73 34.68 49.77 35.03 49.87 35.02ZM60.6021 35.16C60.9121 35.16 62.2521 34.63 62.6821 34C62.7421 33.91 62.5321 33.68 62.4521 33.73C61.9321 34.06 61.0221 34.2 60.8421 34.2C59.4721 34.2 57.7621 33.26 57.7621 31.01C57.7621 29.57 58.4621 28.64 59.8921 28.64C61.6721 28.64 62.0621 30.01 62.4221 28.94L62.5521 28.55C62.6721 28.2 61.6721 27.84 60.5121 27.84C57.7121 27.84 56.6521 29.9 56.6521 31.63C56.6521 34.18 58.9221 35.16 60.6021 35.16ZM67.3519 35.16C69.5519 35.16 70.9819 33.48 70.9819 31.45C70.9819 29.37 69.4619 27.84 67.3719 27.84C65.1819 27.84 63.7419 29.52 63.7419 31.54C63.7419 33.62 65.2719 35.16 67.3519 35.16ZM64.9419 30.98C64.9419 29.1 66.1019 28.52 66.9819 28.52C68.4219 28.52 69.7919 29.99 69.7919 32.01C69.7919 33.9 68.6219 34.48 67.7419 34.48C66.3119 34.48 64.9419 33.02 64.9419 30.98ZM78.5617 35.1C78.7217 35.1 78.8817 35.06 78.8417 34.91C78.7417 34.54 78.7217 33.81 78.7217 33.15V29.26C78.7217 28.55 79.1017 28.47 79.5417 28.34C79.6217 28.32 79.5717 28 79.4917 28H77.1217C77.0217 28 76.9817 28.32 77.0617 28.34C77.5817 28.47 78.0317 28.55 78.0317 29.26V33.02L73.3717 28.09C73.3017 28.01 73.2317 28 73.1317 28H72.3917C72.2517 28 72.1917 28.12 72.1917 28.19C72.1917 28.25 72.2817 28.34 72.3717 28.46C72.6317 28.81 72.7417 29.14 72.7417 29.85V33.73C72.7417 34.44 72.3417 34.52 71.9217 34.66C71.8317 34.69 71.8917 35 71.9717 35H74.3417C74.4417 35 74.4817 34.68 74.4017 34.66C73.8317 34.52 73.4317 34.41 73.4317 33.73V29.93L78.1917 34.91C78.3017 35.03 78.3917 35.1 78.5617 35.1ZM84.139 35.16C86.339 35.16 87.769 33.48 87.769 31.45C87.769 29.37 86.249 27.84 84.159 27.84C81.969 27.84 80.529 29.52 80.529 31.54C80.529 33.62 82.059 35.16 84.139 35.16ZM81.729 30.98C81.729 29.1 82.889 28.52 83.769 28.52C85.209 28.52 86.579 29.99 86.579 32.01C86.579 33.9 85.409 34.48 84.529 34.48C83.099 34.48 81.729 33.02 81.729 30.98ZM88.77 35H90.84C90.91 35 90.97 34.67 90.89 34.66C90.57 34.62 90.16 34.46 90.19 33.76L90.34 30.35L92.65 34.73C92.71 34.85 92.81 34.91 92.96 34.91C93.12 34.91 93.33 34.85 93.35 34.73C93.38 34.57 93.54 34.13 93.75 33.7L95.37 30.4L95.56 33.76C95.59 34.39 95.28 34.59 94.86 34.66C94.8 34.67 94.85 35 94.92 35H97.53C97.6 35 97.66 34.67 97.58 34.66C97.16 34.61 96.8 34.46 96.76 33.76L96.44 28.02C96.43 27.85 96.03 27.84 95.94 28.02L93.25 33.44L90.35 28.02C90.25 27.84 89.87 27.85 89.86 28.02L89.54 33.76C89.5 34.46 89.14 34.61 88.71 34.66C88.63 34.67 88.69 35 88.77 35ZM98.5161 35H101.256C101.336 35 101.396 34.67 101.316 34.66C100.886 34.6 100.486 34.46 100.486 33.76V29.24C100.486 28.54 100.886 28.4 101.316 28.34C101.396 28.33 101.336 28 101.256 28H98.5161C98.4361 28 98.3761 28.33 98.4561 28.34C98.9661 28.41 99.2861 28.61 99.2861 29.24V33.76C99.2861 34.39 98.9661 34.59 98.4561 34.66C98.3761 34.67 98.4361 35 98.5161 35ZM99.0361 26.83C98.9361 26.97 99.2861 27.29 99.4161 27.19L100.726 26.2C100.966 26.02 100.126 25.25 99.9461 25.51L99.0361 26.83ZM102.116 35H104.276C104.406 35 104.436 34.68 104.306 34.66C103.826 34.59 103.446 34.46 103.796 33.6L103.896 33.35C103.996 33.11 104.166 33.09 104.466 33.09H106.506C106.806 33.09 106.976 33.11 107.076 33.35L107.186 33.6C107.556 34.46 107.156 34.59 106.786 34.66C106.676 34.68 106.686 35 106.816 35H109.456C109.576 35 109.616 34.68 109.476 34.66C109.076 34.6 108.836 34.44 108.476 33.59L106.036 27.9C106.006 27.83 105.306 27.99 105.306 28.05C105.306 28.43 105.186 28.84 104.796 29.72L103.106 33.6C102.736 34.45 102.496 34.59 102.086 34.66C101.966 34.68 101.996 35 102.116 35ZM104.316 32.37L105.496 29.57L106.666 32.37C106.726 32.51 106.576 32.53 106.436 32.53H104.546C104.406 32.53 104.256 32.51 104.316 32.37ZM110.463 36.6C111.303 36.04 111.983 35.07 111.983 34.36C111.983 34.08 111.453 33.58 111.233 33.58C111.013 33.58 110.453 34.07 110.453 34.35C110.453 34.61 111.043 34.75 111.043 35C111.043 35.42 110.573 36.07 110.183 36.39C110.083 36.47 110.363 36.66 110.463 36.6ZM114.991 35H118.021C118.101 35 118.151 34.67 118.081 34.66C117.441 34.58 116.961 34.46 116.961 33.76V32.32C119.171 32.65 120.841 31.9 120.841 30.12C120.841 28.55 119.561 27.98 118.011 27.98C117.501 27.98 116.881 28.04 116.141 28.04C115.821 28.04 115.381 28.03 114.991 27.98C114.901 27.97 114.851 28.3 114.931 28.32C115.411 28.45 115.761 28.64 115.761 29.3V33.76C115.761 34.39 115.441 34.59 114.931 34.66C114.851 34.67 114.911 35 114.991 35ZM116.961 31.83V29.3C116.961 28.72 117.131 28.5 117.761 28.5C118.791 28.5 119.551 29.16 119.551 30.35C119.551 31.66 118.661 32.07 116.961 31.83ZM121.686 35.02C122.596 34.93 123.686 34.96 124.606 34.96C125.446 34.96 125.996 34.99 126.556 35.02C127.186 35.02 127.616 34.01 127.616 33.5C127.616 33.33 127.346 33.28 127.276 33.39C127.036 33.77 126.436 34.46 124.926 34.46C124.096 34.46 123.856 34.25 123.856 33.68V29.24C123.856 28.54 124.256 28.39 124.676 28.34C124.746 28.33 124.696 28 124.626 28H121.866C121.796 28 121.736 28.33 121.816 28.34C122.246 28.4 122.656 28.54 122.656 29.24V33.68C122.656 34.42 122.206 34.51 121.626 34.66C121.546 34.68 121.586 35.03 121.686 35.02ZM128.181 35H130.341C130.471 35 130.501 34.68 130.371 34.66C129.891 34.59 129.511 34.46 129.861 33.6L129.961 33.35C130.061 33.11 130.231 33.09 130.531 33.09H132.571C132.871 33.09 133.041 33.11 133.141 33.35L133.251 33.6C133.621 34.46 133.221 34.59 132.851 34.66C132.741 34.68 132.751 35 132.881 35H135.521C135.641 35 135.681 34.68 135.541 34.66C135.141 34.6 134.901 34.44 134.541 33.59L132.101 27.9C132.071 27.83 131.371 27.99 131.371 28.05C131.371 28.43 131.251 28.84 130.861 29.72L129.171 33.6C128.801 34.45 128.561 34.59 128.151 34.66C128.031 34.68 128.061 35 128.181 35ZM130.381 32.37L131.561 29.57L132.731 32.37C132.791 32.51 132.641 32.53 132.501 32.53H130.611C130.471 32.53 130.321 32.51 130.381 32.37ZM142.907 35.1C143.067 35.1 143.227 35.06 143.187 34.91C143.087 34.54 143.067 33.81 143.067 33.15V29.26C143.067 28.55 143.447 28.47 143.887 28.34C143.967 28.32 143.917 28 143.837 28H141.467C141.367 28 141.327 28.32 141.407 28.34C141.927 28.47 142.377 28.55 142.377 29.26V33.02L137.717 28.09C137.647 28.01 137.577 28 137.477 28H136.737C136.597 28 136.537 28.12 136.537 28.19C136.537 28.25 136.627 28.34 136.717 28.46C136.977 28.81 137.087 29.14 137.087 29.85V33.73C137.087 34.44 136.687 34.52 136.267 34.66C136.177 34.69 136.237 35 136.317 35H138.687C138.787 35 138.827 34.68 138.747 34.66C138.177 34.52 137.777 34.41 137.777 33.73V29.93L142.537 34.91C142.647 35.03 142.737 35.1 142.907 35.1ZM144.825 35H147.565C147.645 35 147.705 34.67 147.625 34.66C147.195 34.6 146.795 34.46 146.795 33.76V29.24C146.795 28.54 147.195 28.4 147.625 28.34C147.705 28.33 147.645 28 147.565 28H144.825C144.745 28 144.685 28.33 144.765 28.34C145.275 28.41 145.595 28.61 145.595 29.24V33.76C145.595 34.39 145.275 34.59 144.765 34.66C144.685 34.67 144.745 35 144.825 35ZM148.415 35.02C148.885 34.97 149.405 34.96 149.985 34.96C150.565 34.96 151.085 34.97 151.805 35.02C151.905 35.03 151.955 34.68 151.865 34.66C151.045 34.48 150.585 34.42 150.585 33.68V32.1C150.585 31.84 150.715 31.79 150.915 31.79H151.075C151.645 31.79 152.145 31.92 152.375 32.24C152.485 32.39 152.635 32.41 152.715 32.23L153.285 30.97C153.375 30.77 153.155 30.75 153.055 30.84C152.645 31.21 151.945 31.29 151.135 31.29H150.915C150.715 31.29 150.585 31.24 150.585 30.98V29.25C150.585 28.73 150.815 28.55 151.515 28.55C152.765 28.55 153.065 28.83 153.215 29.32C153.255 29.46 153.505 29.46 153.535 29.32L153.775 28.37C153.825 28.14 153.825 27.98 153.585 27.98C152.765 28 152.105 28.04 151.195 28.04C150.585 28.04 149.325 28.06 148.595 27.98C148.515 27.97 148.465 28.3 148.545 28.32C148.975 28.43 149.385 28.6 149.385 29.24V33.68C149.385 34.42 148.935 34.51 148.355 34.66C148.275 34.68 148.315 35.03 148.415 35.02ZM154.756 35H157.496C157.576 35 157.636 34.67 157.556 34.66C157.126 34.6 156.726 34.46 156.726 33.76V29.24C156.726 28.54 157.126 28.4 157.556 28.34C157.636 28.33 157.576 28 157.496 28H154.756C154.676 28 154.616 28.33 154.696 28.34C155.206 28.41 155.526 28.61 155.526 29.24V33.76C155.526 34.39 155.206 34.59 154.696 34.66C154.616 34.67 154.676 35 154.756 35ZM162.497 35.16C162.807 35.16 164.147 34.63 164.577 34C164.637 33.91 164.427 33.68 164.347 33.73C163.827 34.06 162.917 34.2 162.737 34.2C161.367 34.2 159.657 33.26 159.657 31.01C159.657 29.57 160.357 28.64 161.787 28.64C163.567 28.64 163.957 30.01 164.317 28.94L164.447 28.55C164.567 28.2 163.567 27.84 162.407 27.84C159.607 27.84 158.547 29.9 158.547 31.63C158.547 34.18 160.817 35.16 162.497 35.16ZM165.251 35H167.411C167.541 35 167.571 34.68 167.441 34.66C166.961 34.59 166.581 34.46 166.931 33.6L167.031 33.35C167.131 33.11 167.301 33.09 167.601 33.09H169.641C169.941 33.09 170.111 33.11 170.211 33.35L170.321 33.6C170.691 34.46 170.291 34.59 169.921 34.66C169.811 34.68 169.821 35 169.951 35H172.591C172.711 35 172.751 34.68 172.611 34.66C172.211 34.6 171.971 34.44 171.611 33.59L169.171 27.9C169.141 27.83 168.441 27.99 168.441 28.05C168.441 28.43 168.321 28.84 167.931 29.72L166.241 33.6C165.871 34.45 165.631 34.59 165.221 34.66C165.101 34.68 165.131 35 165.251 35ZM167.451 32.37L168.631 29.57L169.801 32.37C169.861 32.51 169.711 32.53 169.571 32.53H167.681C167.541 32.53 167.391 32.51 167.451 32.37ZM176.95 35.16C177.26 35.16 178.6 34.63 179.03 34C179.09 33.91 178.88 33.68 178.8 33.73C178.28 34.06 177.37 34.2 177.19 34.2C175.82 34.2 174.11 33.26 174.11 31.01C174.11 29.57 174.81 28.64 176.24 28.64C178.02 28.64 178.41 30.01 178.77 28.94L178.9 28.55C179.02 28.2 178.02 27.84 176.86 27.84C174.06 27.84 173 29.9 173 31.63C173 34.18 175.27 35.16 176.95 35.16ZM180.04 35H182.78C182.86 35 182.92 34.67 182.84 34.66C182.41 34.6 182.01 34.46 182.01 33.76V29.24C182.01 28.54 182.41 28.4 182.84 28.34C182.92 28.33 182.86 28 182.78 28H180.04C179.96 28 179.9 28.33 179.98 28.34C180.49 28.41 180.81 28.61 180.81 29.24V33.76C180.81 34.39 180.49 34.59 179.98 34.66C179.9 34.67 179.96 35 180.04 35ZM187.44 35.16C189.64 35.16 191.07 33.48 191.07 31.45C191.07 29.37 189.55 27.84 187.46 27.84C185.27 27.84 183.83 29.52 183.83 31.54C183.83 33.62 185.36 35.16 187.44 35.16ZM185.03 30.98C185.03 29.1 186.19 28.52 187.07 28.52C188.51 28.52 189.88 29.99 189.88 32.01C189.88 33.9 188.71 34.48 187.83 34.48C186.4 34.48 185.03 33.02 185.03 30.98ZM186.6 26.83C186.5 26.97 186.85 27.29 186.98 27.19L188.29 26.2C188.53 26.02 187.69 25.25 187.51 25.51L186.6 26.83ZM198.65 35.1C198.81 35.1 198.97 35.06 198.93 34.91C198.83 34.54 198.81 33.81 198.81 33.15V29.26C198.81 28.55 199.19 28.47 199.63 28.34C199.71 28.32 199.66 28 199.58 28H197.21C197.11 28 197.07 28.32 197.15 28.34C197.67 28.47 198.12 28.55 198.12 29.26V33.02L193.46 28.09C193.39 28.01 193.32 28 193.22 28H192.48C192.34 28 192.28 28.12 192.28 28.19C192.28 28.25 192.37 28.34 192.46 28.46C192.72 28.81 192.83 29.14 192.83 29.85V33.73C192.83 34.44 192.43 34.52 192.01 34.66C191.92 34.69 191.98 35 192.06 35H194.43C194.53 35 194.57 34.68 194.49 34.66C193.92 34.52 193.52 34.41 193.52 33.73V29.93L198.28 34.91C198.39 35.03 198.48 35.1 198.65 35.1ZM203.57 29.41L205.25 31.94V33.76C205.25 34.44 204.88 34.57 204.22 34.66C204.15 34.67 204.2 35 204.28 35H207.41C207.49 35 207.54 34.67 207.47 34.66C206.85 34.58 206.45 34.46 206.45 33.76V31.9L208.05 29.4C208.51 28.68 208.85 28.4 209.24 28.34C209.36 28.32 209.33 28 209.21 28H207.07C206.95 28 206.91 28.32 207.05 28.34C207.58 28.42 207.83 28.75 207.41 29.4L206.19 31.29L204.92 29.4C204.49 28.75 204.66 28.41 205.1 28.34C205.22 28.32 205.2 28 205.07 28H202.43C202.3 28 202.27 28.32 202.4 28.34C202.83 28.41 203.11 28.72 203.57 29.41ZM211.921 35.02C212.381 34.97 212.871 34.96 213.491 34.96C214.231 34.96 214.851 35.02 215.331 35.02C217.761 35.02 219.071 33.27 219.071 31.35C219.071 29.42 217.761 27.98 215.341 27.98C214.831 27.98 214.131 28.04 213.351 28.04C212.931 28.04 212.511 28.03 212.101 27.98C212.021 27.97 211.971 28.3 212.051 28.32C212.481 28.43 212.891 28.6 212.891 29.24V33.68C212.891 34.42 212.441 34.51 211.861 34.66C211.781 34.68 211.821 35.03 211.921 35.02ZM214.091 33.68V29.24C214.091 28.73 214.321 28.51 215.031 28.51C216.831 28.51 217.871 30.01 217.871 31.92C217.871 33.61 217.061 34.49 215.431 34.49C214.461 34.49 214.091 34.22 214.091 33.68ZM219.616 35.02C220.526 34.93 221.616 34.96 222.536 34.96C223.376 34.96 223.926 34.99 224.486 35.02C225.116 35.02 225.546 34.01 225.546 33.5C225.546 33.33 225.276 33.28 225.206 33.39C224.966 33.77 224.366 34.46 222.856 34.46C222.026 34.46 221.786 34.25 221.786 33.68V32C221.786 31.74 221.916 31.69 222.116 31.69H222.266C222.846 31.69 223.346 31.82 223.576 32.14C223.686 32.29 223.836 32.31 223.916 32.13L224.486 30.87C224.576 30.67 224.356 30.65 224.256 30.74C223.846 31.11 223.136 31.19 222.326 31.19H222.116C221.916 31.19 221.786 31.14 221.786 30.88V29.25C221.786 28.73 222.016 28.55 222.716 28.55C223.966 28.55 224.266 28.83 224.416 29.32C224.456 29.46 224.696 29.46 224.736 29.32L224.976 28.37C225.036 28.14 225.026 27.98 224.786 27.98C223.966 28 223.306 28.04 222.396 28.04C221.786 28.04 220.526 28.06 219.796 27.98C219.716 27.97 219.666 28.3 219.746 28.32C220.176 28.43 220.586 28.6 220.586 29.24V33.68C220.586 34.42 220.136 34.51 219.556 34.66C219.476 34.68 219.516 35.03 219.616 35.02ZM228.506 35.16C229.846 35.16 231.076 34.25 231.076 33C231.076 32.28 230.646 31.83 229.586 31.17L228.536 30.52C227.866 30.11 227.596 29.86 227.596 29.41C227.596 28.88 227.966 28.52 228.676 28.52C230.046 28.52 230.296 29.86 230.606 28.89L230.726 28.51C230.836 28.17 229.866 27.84 229.106 27.84C227.866 27.84 226.666 28.69 226.666 29.92C226.666 30.67 227.106 31.09 228.186 31.77L229.156 32.38C229.866 32.82 230.166 33.02 230.166 33.49C230.166 34.07 229.756 34.48 228.916 34.48C227.266 34.48 226.936 32.94 226.656 33.99L226.556 34.36C226.436 34.8 227.686 35.16 228.506 35.16ZM231.648 35H233.808C233.938 35 233.968 34.68 233.838 34.66C233.358 34.59 232.978 34.46 233.328 33.6L233.428 33.35C233.528 33.11 233.698 33.09 233.998 33.09H236.038C236.338 33.09 236.508 33.11 236.608 33.35L236.718 33.6C237.088 34.46 236.688 34.59 236.318 34.66C236.208 34.68 236.218 35 236.348 35H238.988C239.108 35 239.148 34.68 239.008 34.66C238.608 34.6 238.368 34.44 238.008 33.59L235.568 27.9C235.538 27.83 234.838 27.99 234.838 28.05C234.838 28.43 234.718 28.84 234.328 29.72L232.638 33.6C232.268 34.45 232.028 34.59 231.618 34.66C231.498 34.68 231.528 35 231.648 35ZM233.848 32.37L235.028 29.57L236.198 32.37C236.258 32.51 236.108 32.53 235.968 32.53H234.078C233.938 32.53 233.788 32.51 233.848 32.37ZM247.094 35.04C247.154 35.02 247.174 34.75 247.094 34.75C246.874 34.75 246.574 34.64 246.264 34.25L244.774 32.38C244.334 31.83 244.044 31.66 243.644 31.66V31.61C244.484 31.56 245.424 30.99 245.424 29.83C245.424 28.6 244.414 27.98 242.904 27.98C242.424 27.98 241.734 28.04 240.994 28.04C240.674 28.04 240.234 28.03 239.844 27.98C239.754 27.97 239.704 28.3 239.784 28.32C240.264 28.45 240.614 28.64 240.614 29.3V33.76C240.614 34.39 240.294 34.59 239.784 34.66C239.704 34.67 239.764 35 239.844 35H242.874C242.954 35 243.004 34.67 242.934 34.66C242.294 34.58 241.814 34.46 241.814 33.76V31.82C242.514 31.83 243.024 31.91 243.454 32.47L244.994 34.45C245.594 35.22 246.464 35.25 247.094 35.04ZM241.814 31.36V29.3C241.814 28.74 242.004 28.5 242.594 28.5C243.484 28.5 244.164 29.03 244.164 30.1C244.164 31.1 243.594 31.36 242.104 31.36H241.814ZM255.043 35.04C255.103 35.02 255.123 34.75 255.043 34.75C254.823 34.75 254.523 34.64 254.213 34.25L252.723 32.38C252.283 31.83 251.993 31.66 251.593 31.66V31.61C252.433 31.56 253.373 30.99 253.373 29.83C253.373 28.6 252.363 27.98 250.853 27.98C250.373 27.98 249.683 28.04 248.943 28.04C248.623 28.04 248.183 28.03 247.793 27.98C247.703 27.97 247.653 28.3 247.733 28.32C248.213 28.45 248.563 28.64 248.563 29.3V33.76C248.563 34.39 248.243 34.59 247.733 34.66C247.653 34.67 247.713 35 247.793 35H250.823C250.903 35 250.953 34.67 250.883 34.66C250.243 34.58 249.763 34.46 249.763 33.76V31.82C250.463 31.83 250.973 31.91 251.403 32.47L252.943 34.45C253.543 35.22 254.413 35.25 255.043 35.04ZM249.763 31.36V29.3C249.763 28.74 249.953 28.5 250.543 28.5C251.433 28.5 252.113 29.03 252.113 30.1C252.113 31.1 251.543 31.36 250.053 31.36H249.763ZM258.905 35.16C261.105 35.16 262.535 33.48 262.535 31.45C262.535 29.37 261.015 27.84 258.925 27.84C256.735 27.84 255.295 29.52 255.295 31.54C255.295 33.62 256.825 35.16 258.905 35.16ZM256.495 30.98C256.495 29.1 257.655 28.52 258.535 28.52C259.975 28.52 261.345 29.99 261.345 32.01C261.345 33.9 260.175 34.48 259.295 34.48C257.865 34.48 256.495 33.02 256.495 30.98ZM263.434 35.02C264.344 34.93 265.434 34.96 266.354 34.96C267.194 34.96 267.744 34.99 268.304 35.02C268.934 35.02 269.364 34.01 269.364 33.5C269.364 33.33 269.094 33.28 269.024 33.39C268.784 33.77 268.184 34.46 266.674 34.46C265.844 34.46 265.604 34.25 265.604 33.68V29.24C265.604 28.54 266.004 28.39 266.424 28.34C266.494 28.33 266.444 28 266.374 28H263.614C263.544 28 263.484 28.33 263.564 28.34C263.994 28.4 264.404 28.54 264.404 29.24V33.68C264.404 34.42 263.954 34.51 263.374 34.66C263.294 34.68 263.334 35.03 263.434 35.02ZM269.919 35.02C270.829 34.93 271.919 34.96 272.839 34.96C273.679 34.96 274.229 34.99 274.789 35.02C275.419 35.02 275.849 34.01 275.849 33.5C275.849 33.33 275.579 33.28 275.509 33.39C275.269 33.77 274.669 34.46 273.159 34.46C272.329 34.46 272.089 34.25 272.089 33.68V29.24C272.089 28.54 272.489 28.39 272.909 28.34C272.979 28.33 272.929 28 272.859 28H270.099C270.029 28 269.969 28.33 270.049 28.34C270.479 28.4 270.889 28.54 270.889 29.24V33.68C270.889 34.42 270.439 34.51 269.859 34.66C269.779 34.68 269.819 35.03 269.919 35.02ZM280.311 35.16C282.511 35.16 283.941 33.48 283.941 31.45C283.941 29.37 282.421 27.84 280.331 27.84C278.141 27.84 276.701 29.52 276.701 31.54C276.701 33.62 278.231 35.16 280.311 35.16ZM277.901 30.98C277.901 29.1 279.061 28.52 279.941 28.52C281.381 28.52 282.751 29.99 282.751 32.01C282.751 33.9 281.581 34.48 280.701 34.48C279.271 34.48 277.901 33.02 277.901 30.98Z" fill="#EE2A24"/>
<path d="M49.02 24.5H188.02" stroke="#DC3F32"/>
</svg>
