<svg width="21" height="24" viewBox="0 0 21 24" fill="none" xmlns="http://www.w3.org/2000/svg">
<path d="M0 23.28V19.2C0.921031 19.033 1.77153 18.4692 2.41395 17.6C3.06292 16.6799 3.54873 15.5878 3.83753 14.4C4.134 13.047 4.27988 11.6462 4.27081 10.24H0.433272V0H8.29407V9.36C8.38565 11.9534 7.98173 14.5361 7.11803 16.88C6.42613 18.6677 5.37954 20.1861 4.08512 21.28C2.8352 22.279 1.44832 22.958 0 23.28ZM12.503 23.28V19.2C13.424 19.033 14.2745 18.4692 14.917 17.6C15.5659 16.6798 16.0518 15.5878 16.3406 14.4C16.637 13.0469 16.7829 11.6462 16.7739 10.24H12.9363V0H20.7956V9.36C20.8871 11.9534 20.4832 14.5361 19.6195 16.88C18.9276 18.6677 17.881 20.1861 16.5866 21.28C15.3372 22.2787 13.9508 22.9577 12.503 23.28Z" fill="#0064D2"/>
</svg>
